M48
INCH
T1C0.0157
T2C0.0236
T3C0.0315
T4C0.0394
%
G90
G05
T1
X2.54Y-1.935
X2.545Y-2.1
X2.55Y-2.38
X2.56Y-1.74
X2.625Y-2.53
X2.695Y-2.025
X2.7Y-2.62
X2.72Y-1.565
X2.74Y-2.525
X2.785Y-1.73
X2.885Y-1.73
X2.885Y-2.55
X2.9Y-2.16
X2.9Y-2.38
X2.915Y-1.895
X2.995Y-1.73
X2.995Y-1.895
X3.0Y-2.55
X3.005Y-1.8138
X3.045Y-2.19
X3.1Y-1.73
X3.12Y-2.145
X3.17Y-2.03
X3.1848Y-1.9624
X3.205Y-1.73
X3.2135Y-2.1965
X3.215Y-2.335
X3.3Y-1.73
X3.3Y-2.115
X3.3001Y-2.1544
X3.315Y-2.05
X3.315Y-2.555
X3.33Y-1.805
X3.36Y-2.35
X3.395Y-1.73
X3.42Y-2.355
X3.46Y-2.255
X3.4978Y-2.2658
X3.51Y-2.085
X3.52Y-1.73
X3.53Y-2.48
X3.5348Y-2.3652
X3.5427Y-2.1145
X3.55Y-2.0555
X3.5592Y-2.1538
X3.57Y-1.9469
X3.59Y-1.84
X3.59Y-2.2658
X3.595Y-1.9019
X3.5971Y-2.1685
X3.6Y-1.68
X3.6144Y-2.055
X3.62Y-2.345
X3.635Y-2.48
X3.65Y-2.555
X3.6537Y-2.0555
X3.6702Y-2.1301
X3.695Y-2.035
X3.7068Y-1.75
X3.7234Y-2.2884
X3.737Y-2.3254
X3.74Y-2.625
X3.745Y-2.515
X3.79Y-1.7
X3.801Y-2.549
X3.815Y-1.815
X3.815Y-2.22
X3.87Y-2.23
X3.88Y-2.54
X3.9259Y-2.1509
X3.94Y-2.325
X3.95Y-1.93
X3.96Y-2.445
X4.0Y-1.7
X4.03Y-2.42
X4.08Y-2.285
X4.085Y-2.0335
X4.09Y-1.94
X4.095Y-1.73
X4.1103Y-2.4447
X4.15Y-1.945
X4.19Y-1.73
X4.215Y-2.105
X4.215Y-2.26
X4.215Y-2.4
X4.29Y-1.73
X4.36Y-2.37
X4.37Y-2.05
X4.42Y-2.385
X4.42Y-2.55
X4.425Y-1.57
X4.425Y-1.73
T2
X2.7865Y-1.9919
X2.7865Y-2.0549
X2.8337Y-1.9604
X2.8337Y-2.0234
X2.8337Y-2.0864
T4
X2.845Y-1.595
X2.945Y-1.595
X2.995Y-2.26
X2.995Y-2.36
X3.045Y-1.595
X3.095Y-2.26
X3.095Y-2.36
X3.145Y-1.595
X3.245Y-1.595
X3.345Y-1.595
X3.445Y-1.595
X3.545Y-1.595
X3.645Y-1.595
X3.745Y-1.595
X3.845Y-1.595
X3.945Y-1.595
X4.0306Y-2.565
X4.045Y-1.595
X4.1306Y-2.565
X4.145Y-1.595
X4.2306Y-2.565
X4.245Y-1.595
X4.295Y-1.89
X4.295Y-1.99
X4.345Y-1.595
X4.395Y-1.89
X4.395Y-1.99
T3
G00X2.6329Y-1.8738
M15
G01X2.5857Y-1.8738
M16
G05
G00X2.6329Y-2.173
M15
G01X2.5857Y-2.173
M16
G05
G00X2.8219Y-1.8738
M15
G01X2.7746Y-1.8738
M16
G05
G00X2.8219Y-2.173
M15
G01X2.7746Y-2.173
M16
G05
T0
M30
