%TF.GenerationSoftware,KiCad,Pcbnew,7.0.5*%
%TF.CreationDate,2023-07-22T19:28:39+09:00*%
%TF.ProjectId,power,706f7765-722e-46b6-9963-61645f706362,rev?*%
%TF.SameCoordinates,Original*%
%TF.FileFunction,Legend,Top*%
%TF.FilePolarity,Positive*%
%FSLAX46Y46*%
G04 Gerber Fmt 4.6, Leading zero omitted, Abs format (unit mm)*
G04 Created by KiCad (PCBNEW 7.0.5) date 2023-07-22 19:28:39*
%MOMM*%
%LPD*%
G01*
G04 APERTURE LIST*
G04 Aperture macros list*
%AMRoundRect*
0 Rectangle with rounded corners*
0 $1 Rounding radius*
0 $2 $3 $4 $5 $6 $7 $8 $9 X,Y pos of 4 corners*
0 Add a 4 corners polygon primitive as box body*
4,1,4,$2,$3,$4,$5,$6,$7,$8,$9,$2,$3,0*
0 Add four circle primitives for the rounded corners*
1,1,$1+$1,$2,$3*
1,1,$1+$1,$4,$5*
1,1,$1+$1,$6,$7*
1,1,$1+$1,$8,$9*
0 Add four rect primitives between the rounded corners*
20,1,$1+$1,$2,$3,$4,$5,0*
20,1,$1+$1,$4,$5,$6,$7,0*
20,1,$1+$1,$6,$7,$8,$9,0*
20,1,$1+$1,$8,$9,$2,$3,0*%
G04 Aperture macros list end*
%ADD10C,0.150000*%
%ADD11C,0.120000*%
%ADD12RoundRect,0.237500X-0.287500X-0.237500X0.287500X-0.237500X0.287500X0.237500X-0.287500X0.237500X0*%
%ADD13RoundRect,0.150000X0.512500X0.150000X-0.512500X0.150000X-0.512500X-0.150000X0.512500X-0.150000X0*%
%ADD14RoundRect,0.237500X0.287500X0.237500X-0.287500X0.237500X-0.287500X-0.237500X0.287500X-0.237500X0*%
%ADD15RoundRect,0.250000X-0.337500X-0.475000X0.337500X-0.475000X0.337500X0.475000X-0.337500X0.475000X0*%
%ADD16RoundRect,0.237500X0.237500X-0.300000X0.237500X0.300000X-0.237500X0.300000X-0.237500X-0.300000X0*%
%ADD17C,1.200000*%
%ADD18O,2.600000X1.500000*%
%ADD19RoundRect,0.237500X0.300000X0.237500X-0.300000X0.237500X-0.300000X-0.237500X0.300000X-0.237500X0*%
%ADD20RoundRect,0.250000X-0.350000X-0.450000X0.350000X-0.450000X0.350000X0.450000X-0.350000X0.450000X0*%
%ADD21RoundRect,0.237500X-0.237500X0.300000X-0.237500X-0.300000X0.237500X-0.300000X0.237500X0.300000X0*%
%ADD22RoundRect,0.237500X-0.300000X-0.237500X0.300000X-0.237500X0.300000X0.237500X-0.300000X0.237500X0*%
%ADD23RoundRect,0.237500X-0.250000X-0.237500X0.250000X-0.237500X0.250000X0.237500X-0.250000X0.237500X0*%
%ADD24RoundRect,0.075000X0.521491X-0.415425X-0.415425X0.521491X-0.521491X0.415425X0.415425X-0.521491X0*%
%ADD25RoundRect,0.075000X0.521491X0.415425X0.415425X0.521491X-0.521491X-0.415425X-0.415425X-0.521491X0*%
%ADD26R,4.500000X2.000000*%
%ADD27RoundRect,0.250000X-0.450000X0.350000X-0.450000X-0.350000X0.450000X-0.350000X0.450000X0.350000X0*%
%ADD28RoundRect,0.250000X0.250000X-0.650000X0.250000X0.650000X-0.250000X0.650000X-0.250000X-0.650000X0*%
%ADD29R,1.700000X1.700000*%
%ADD30O,1.700000X1.700000*%
%ADD31RoundRect,0.237500X-0.380070X0.044194X0.044194X-0.380070X0.380070X-0.044194X-0.044194X0.380070X0*%
%ADD32RoundRect,0.250000X0.350000X0.450000X-0.350000X0.450000X-0.350000X-0.450000X0.350000X-0.450000X0*%
%ADD33RoundRect,0.250000X0.475000X-0.337500X0.475000X0.337500X-0.475000X0.337500X-0.475000X-0.337500X0*%
%ADD34RoundRect,0.250000X0.325000X0.450000X-0.325000X0.450000X-0.325000X-0.450000X0.325000X-0.450000X0*%
G04 APERTURE END LIST*
D10*
X72096333Y-43539580D02*
X72048714Y-43587200D01*
X72048714Y-43587200D02*
X71905857Y-43634819D01*
X71905857Y-43634819D02*
X71810619Y-43634819D01*
X71810619Y-43634819D02*
X71667762Y-43587200D01*
X71667762Y-43587200D02*
X71572524Y-43491961D01*
X71572524Y-43491961D02*
X71524905Y-43396723D01*
X71524905Y-43396723D02*
X71477286Y-43206247D01*
X71477286Y-43206247D02*
X71477286Y-43063390D01*
X71477286Y-43063390D02*
X71524905Y-42872914D01*
X71524905Y-42872914D02*
X71572524Y-42777676D01*
X71572524Y-42777676D02*
X71667762Y-42682438D01*
X71667762Y-42682438D02*
X71810619Y-42634819D01*
X71810619Y-42634819D02*
X71905857Y-42634819D01*
X71905857Y-42634819D02*
X72048714Y-42682438D01*
X72048714Y-42682438D02*
X72096333Y-42730057D01*
X72429667Y-42634819D02*
X73096333Y-42634819D01*
X73096333Y-42634819D02*
X72667762Y-43634819D01*
X109775810Y-54318819D02*
X110394857Y-54318819D01*
X110394857Y-54318819D02*
X110061524Y-54699771D01*
X110061524Y-54699771D02*
X110204381Y-54699771D01*
X110204381Y-54699771D02*
X110299619Y-54747390D01*
X110299619Y-54747390D02*
X110347238Y-54795009D01*
X110347238Y-54795009D02*
X110394857Y-54890247D01*
X110394857Y-54890247D02*
X110394857Y-55128342D01*
X110394857Y-55128342D02*
X110347238Y-55223580D01*
X110347238Y-55223580D02*
X110299619Y-55271200D01*
X110299619Y-55271200D02*
X110204381Y-55318819D01*
X110204381Y-55318819D02*
X109918667Y-55318819D01*
X109918667Y-55318819D02*
X109823429Y-55271200D01*
X109823429Y-55271200D02*
X109775810Y-55223580D01*
X110823429Y-55223580D02*
X110871048Y-55271200D01*
X110871048Y-55271200D02*
X110823429Y-55318819D01*
X110823429Y-55318819D02*
X110775810Y-55271200D01*
X110775810Y-55271200D02*
X110823429Y-55223580D01*
X110823429Y-55223580D02*
X110823429Y-55318819D01*
X111204381Y-54318819D02*
X111823428Y-54318819D01*
X111823428Y-54318819D02*
X111490095Y-54699771D01*
X111490095Y-54699771D02*
X111632952Y-54699771D01*
X111632952Y-54699771D02*
X111728190Y-54747390D01*
X111728190Y-54747390D02*
X111775809Y-54795009D01*
X111775809Y-54795009D02*
X111823428Y-54890247D01*
X111823428Y-54890247D02*
X111823428Y-55128342D01*
X111823428Y-55128342D02*
X111775809Y-55223580D01*
X111775809Y-55223580D02*
X111728190Y-55271200D01*
X111728190Y-55271200D02*
X111632952Y-55318819D01*
X111632952Y-55318819D02*
X111347238Y-55318819D01*
X111347238Y-55318819D02*
X111252000Y-55271200D01*
X111252000Y-55271200D02*
X111204381Y-55223580D01*
X112109143Y-54318819D02*
X112442476Y-55318819D01*
X112442476Y-55318819D02*
X112775809Y-54318819D01*
X109624905Y-43634819D02*
X109624905Y-42634819D01*
X109624905Y-42634819D02*
X109863000Y-42634819D01*
X109863000Y-42634819D02*
X110005857Y-42682438D01*
X110005857Y-42682438D02*
X110101095Y-42777676D01*
X110101095Y-42777676D02*
X110148714Y-42872914D01*
X110148714Y-42872914D02*
X110196333Y-43063390D01*
X110196333Y-43063390D02*
X110196333Y-43206247D01*
X110196333Y-43206247D02*
X110148714Y-43396723D01*
X110148714Y-43396723D02*
X110101095Y-43491961D01*
X110101095Y-43491961D02*
X110005857Y-43587200D01*
X110005857Y-43587200D02*
X109863000Y-43634819D01*
X109863000Y-43634819D02*
X109624905Y-43634819D01*
X110815381Y-42634819D02*
X110910619Y-42634819D01*
X110910619Y-42634819D02*
X111005857Y-42682438D01*
X111005857Y-42682438D02*
X111053476Y-42730057D01*
X111053476Y-42730057D02*
X111101095Y-42825295D01*
X111101095Y-42825295D02*
X111148714Y-43015771D01*
X111148714Y-43015771D02*
X111148714Y-43253866D01*
X111148714Y-43253866D02*
X111101095Y-43444342D01*
X111101095Y-43444342D02*
X111053476Y-43539580D01*
X111053476Y-43539580D02*
X111005857Y-43587200D01*
X111005857Y-43587200D02*
X110910619Y-43634819D01*
X110910619Y-43634819D02*
X110815381Y-43634819D01*
X110815381Y-43634819D02*
X110720143Y-43587200D01*
X110720143Y-43587200D02*
X110672524Y-43539580D01*
X110672524Y-43539580D02*
X110624905Y-43444342D01*
X110624905Y-43444342D02*
X110577286Y-43253866D01*
X110577286Y-43253866D02*
X110577286Y-43015771D01*
X110577286Y-43015771D02*
X110624905Y-42825295D01*
X110624905Y-42825295D02*
X110672524Y-42730057D01*
X110672524Y-42730057D02*
X110720143Y-42682438D01*
X110720143Y-42682438D02*
X110815381Y-42634819D01*
X87336333Y-43539580D02*
X87288714Y-43587200D01*
X87288714Y-43587200D02*
X87145857Y-43634819D01*
X87145857Y-43634819D02*
X87050619Y-43634819D01*
X87050619Y-43634819D02*
X86907762Y-43587200D01*
X86907762Y-43587200D02*
X86812524Y-43491961D01*
X86812524Y-43491961D02*
X86764905Y-43396723D01*
X86764905Y-43396723D02*
X86717286Y-43206247D01*
X86717286Y-43206247D02*
X86717286Y-43063390D01*
X86717286Y-43063390D02*
X86764905Y-42872914D01*
X86764905Y-42872914D02*
X86812524Y-42777676D01*
X86812524Y-42777676D02*
X86907762Y-42682438D01*
X86907762Y-42682438D02*
X87050619Y-42634819D01*
X87050619Y-42634819D02*
X87145857Y-42634819D01*
X87145857Y-42634819D02*
X87288714Y-42682438D01*
X87288714Y-42682438D02*
X87336333Y-42730057D01*
X88288714Y-43634819D02*
X87717286Y-43634819D01*
X88003000Y-43634819D02*
X88003000Y-42634819D01*
X88003000Y-42634819D02*
X87907762Y-42777676D01*
X87907762Y-42777676D02*
X87812524Y-42872914D01*
X87812524Y-42872914D02*
X87717286Y-42920533D01*
X89876333Y-43539580D02*
X89828714Y-43587200D01*
X89828714Y-43587200D02*
X89685857Y-43634819D01*
X89685857Y-43634819D02*
X89590619Y-43634819D01*
X89590619Y-43634819D02*
X89447762Y-43587200D01*
X89447762Y-43587200D02*
X89352524Y-43491961D01*
X89352524Y-43491961D02*
X89304905Y-43396723D01*
X89304905Y-43396723D02*
X89257286Y-43206247D01*
X89257286Y-43206247D02*
X89257286Y-43063390D01*
X89257286Y-43063390D02*
X89304905Y-42872914D01*
X89304905Y-42872914D02*
X89352524Y-42777676D01*
X89352524Y-42777676D02*
X89447762Y-42682438D01*
X89447762Y-42682438D02*
X89590619Y-42634819D01*
X89590619Y-42634819D02*
X89685857Y-42634819D01*
X89685857Y-42634819D02*
X89828714Y-42682438D01*
X89828714Y-42682438D02*
X89876333Y-42730057D01*
X90495381Y-42634819D02*
X90590619Y-42634819D01*
X90590619Y-42634819D02*
X90685857Y-42682438D01*
X90685857Y-42682438D02*
X90733476Y-42730057D01*
X90733476Y-42730057D02*
X90781095Y-42825295D01*
X90781095Y-42825295D02*
X90828714Y-43015771D01*
X90828714Y-43015771D02*
X90828714Y-43253866D01*
X90828714Y-43253866D02*
X90781095Y-43444342D01*
X90781095Y-43444342D02*
X90733476Y-43539580D01*
X90733476Y-43539580D02*
X90685857Y-43587200D01*
X90685857Y-43587200D02*
X90590619Y-43634819D01*
X90590619Y-43634819D02*
X90495381Y-43634819D01*
X90495381Y-43634819D02*
X90400143Y-43587200D01*
X90400143Y-43587200D02*
X90352524Y-43539580D01*
X90352524Y-43539580D02*
X90304905Y-43444342D01*
X90304905Y-43444342D02*
X90257286Y-43253866D01*
X90257286Y-43253866D02*
X90257286Y-43015771D01*
X90257286Y-43015771D02*
X90304905Y-42825295D01*
X90304905Y-42825295D02*
X90352524Y-42730057D01*
X90352524Y-42730057D02*
X90400143Y-42682438D01*
X90400143Y-42682438D02*
X90495381Y-42634819D01*
X77176333Y-43539580D02*
X77128714Y-43587200D01*
X77128714Y-43587200D02*
X76985857Y-43634819D01*
X76985857Y-43634819D02*
X76890619Y-43634819D01*
X76890619Y-43634819D02*
X76747762Y-43587200D01*
X76747762Y-43587200D02*
X76652524Y-43491961D01*
X76652524Y-43491961D02*
X76604905Y-43396723D01*
X76604905Y-43396723D02*
X76557286Y-43206247D01*
X76557286Y-43206247D02*
X76557286Y-43063390D01*
X76557286Y-43063390D02*
X76604905Y-42872914D01*
X76604905Y-42872914D02*
X76652524Y-42777676D01*
X76652524Y-42777676D02*
X76747762Y-42682438D01*
X76747762Y-42682438D02*
X76890619Y-42634819D01*
X76890619Y-42634819D02*
X76985857Y-42634819D01*
X76985857Y-42634819D02*
X77128714Y-42682438D01*
X77128714Y-42682438D02*
X77176333Y-42730057D01*
X78081095Y-42634819D02*
X77604905Y-42634819D01*
X77604905Y-42634819D02*
X77557286Y-43111009D01*
X77557286Y-43111009D02*
X77604905Y-43063390D01*
X77604905Y-43063390D02*
X77700143Y-43015771D01*
X77700143Y-43015771D02*
X77938238Y-43015771D01*
X77938238Y-43015771D02*
X78033476Y-43063390D01*
X78033476Y-43063390D02*
X78081095Y-43111009D01*
X78081095Y-43111009D02*
X78128714Y-43206247D01*
X78128714Y-43206247D02*
X78128714Y-43444342D01*
X78128714Y-43444342D02*
X78081095Y-43539580D01*
X78081095Y-43539580D02*
X78033476Y-43587200D01*
X78033476Y-43587200D02*
X77938238Y-43634819D01*
X77938238Y-43634819D02*
X77700143Y-43634819D01*
X77700143Y-43634819D02*
X77604905Y-43587200D01*
X77604905Y-43587200D02*
X77557286Y-43539580D01*
X110958333Y-61414819D02*
X110625000Y-60938628D01*
X110386905Y-61414819D02*
X110386905Y-60414819D01*
X110386905Y-60414819D02*
X110767857Y-60414819D01*
X110767857Y-60414819D02*
X110863095Y-60462438D01*
X110863095Y-60462438D02*
X110910714Y-60510057D01*
X110910714Y-60510057D02*
X110958333Y-60605295D01*
X110958333Y-60605295D02*
X110958333Y-60748152D01*
X110958333Y-60748152D02*
X110910714Y-60843390D01*
X110910714Y-60843390D02*
X110863095Y-60891009D01*
X110863095Y-60891009D02*
X110767857Y-60938628D01*
X110767857Y-60938628D02*
X110386905Y-60938628D01*
X111291667Y-60414819D02*
X111958333Y-61414819D01*
X111958333Y-60414819D02*
X111291667Y-61414819D01*
X110363095Y-63970819D02*
X110934523Y-63970819D01*
X110648809Y-64970819D02*
X110648809Y-63970819D01*
X111172619Y-63970819D02*
X111839285Y-64970819D01*
X111839285Y-63970819D02*
X111172619Y-64970819D01*
X84796333Y-43539580D02*
X84748714Y-43587200D01*
X84748714Y-43587200D02*
X84605857Y-43634819D01*
X84605857Y-43634819D02*
X84510619Y-43634819D01*
X84510619Y-43634819D02*
X84367762Y-43587200D01*
X84367762Y-43587200D02*
X84272524Y-43491961D01*
X84272524Y-43491961D02*
X84224905Y-43396723D01*
X84224905Y-43396723D02*
X84177286Y-43206247D01*
X84177286Y-43206247D02*
X84177286Y-43063390D01*
X84177286Y-43063390D02*
X84224905Y-42872914D01*
X84224905Y-42872914D02*
X84272524Y-42777676D01*
X84272524Y-42777676D02*
X84367762Y-42682438D01*
X84367762Y-42682438D02*
X84510619Y-42634819D01*
X84510619Y-42634819D02*
X84605857Y-42634819D01*
X84605857Y-42634819D02*
X84748714Y-42682438D01*
X84748714Y-42682438D02*
X84796333Y-42730057D01*
X85177286Y-42730057D02*
X85224905Y-42682438D01*
X85224905Y-42682438D02*
X85320143Y-42634819D01*
X85320143Y-42634819D02*
X85558238Y-42634819D01*
X85558238Y-42634819D02*
X85653476Y-42682438D01*
X85653476Y-42682438D02*
X85701095Y-42730057D01*
X85701095Y-42730057D02*
X85748714Y-42825295D01*
X85748714Y-42825295D02*
X85748714Y-42920533D01*
X85748714Y-42920533D02*
X85701095Y-43063390D01*
X85701095Y-43063390D02*
X85129667Y-43634819D01*
X85129667Y-43634819D02*
X85748714Y-43634819D01*
X82256333Y-43539580D02*
X82208714Y-43587200D01*
X82208714Y-43587200D02*
X82065857Y-43634819D01*
X82065857Y-43634819D02*
X81970619Y-43634819D01*
X81970619Y-43634819D02*
X81827762Y-43587200D01*
X81827762Y-43587200D02*
X81732524Y-43491961D01*
X81732524Y-43491961D02*
X81684905Y-43396723D01*
X81684905Y-43396723D02*
X81637286Y-43206247D01*
X81637286Y-43206247D02*
X81637286Y-43063390D01*
X81637286Y-43063390D02*
X81684905Y-42872914D01*
X81684905Y-42872914D02*
X81732524Y-42777676D01*
X81732524Y-42777676D02*
X81827762Y-42682438D01*
X81827762Y-42682438D02*
X81970619Y-42634819D01*
X81970619Y-42634819D02*
X82065857Y-42634819D01*
X82065857Y-42634819D02*
X82208714Y-42682438D01*
X82208714Y-42682438D02*
X82256333Y-42730057D01*
X82589667Y-42634819D02*
X83208714Y-42634819D01*
X83208714Y-42634819D02*
X82875381Y-43015771D01*
X82875381Y-43015771D02*
X83018238Y-43015771D01*
X83018238Y-43015771D02*
X83113476Y-43063390D01*
X83113476Y-43063390D02*
X83161095Y-43111009D01*
X83161095Y-43111009D02*
X83208714Y-43206247D01*
X83208714Y-43206247D02*
X83208714Y-43444342D01*
X83208714Y-43444342D02*
X83161095Y-43539580D01*
X83161095Y-43539580D02*
X83113476Y-43587200D01*
X83113476Y-43587200D02*
X83018238Y-43634819D01*
X83018238Y-43634819D02*
X82732524Y-43634819D01*
X82732524Y-43634819D02*
X82637286Y-43587200D01*
X82637286Y-43587200D02*
X82589667Y-43539580D01*
X79716333Y-43539580D02*
X79668714Y-43587200D01*
X79668714Y-43587200D02*
X79525857Y-43634819D01*
X79525857Y-43634819D02*
X79430619Y-43634819D01*
X79430619Y-43634819D02*
X79287762Y-43587200D01*
X79287762Y-43587200D02*
X79192524Y-43491961D01*
X79192524Y-43491961D02*
X79144905Y-43396723D01*
X79144905Y-43396723D02*
X79097286Y-43206247D01*
X79097286Y-43206247D02*
X79097286Y-43063390D01*
X79097286Y-43063390D02*
X79144905Y-42872914D01*
X79144905Y-42872914D02*
X79192524Y-42777676D01*
X79192524Y-42777676D02*
X79287762Y-42682438D01*
X79287762Y-42682438D02*
X79430619Y-42634819D01*
X79430619Y-42634819D02*
X79525857Y-42634819D01*
X79525857Y-42634819D02*
X79668714Y-42682438D01*
X79668714Y-42682438D02*
X79716333Y-42730057D01*
X80573476Y-42968152D02*
X80573476Y-43634819D01*
X80335381Y-42587200D02*
X80097286Y-43301485D01*
X80097286Y-43301485D02*
X80716333Y-43301485D01*
X101560380Y-62938819D02*
X101227047Y-62462628D01*
X100988952Y-62938819D02*
X100988952Y-61938819D01*
X100988952Y-61938819D02*
X101369904Y-61938819D01*
X101369904Y-61938819D02*
X101465142Y-61986438D01*
X101465142Y-61986438D02*
X101512761Y-62034057D01*
X101512761Y-62034057D02*
X101560380Y-62129295D01*
X101560380Y-62129295D02*
X101560380Y-62272152D01*
X101560380Y-62272152D02*
X101512761Y-62367390D01*
X101512761Y-62367390D02*
X101465142Y-62415009D01*
X101465142Y-62415009D02*
X101369904Y-62462628D01*
X101369904Y-62462628D02*
X100988952Y-62462628D01*
X101941333Y-62891200D02*
X102084190Y-62938819D01*
X102084190Y-62938819D02*
X102322285Y-62938819D01*
X102322285Y-62938819D02*
X102417523Y-62891200D01*
X102417523Y-62891200D02*
X102465142Y-62843580D01*
X102465142Y-62843580D02*
X102512761Y-62748342D01*
X102512761Y-62748342D02*
X102512761Y-62653104D01*
X102512761Y-62653104D02*
X102465142Y-62557866D01*
X102465142Y-62557866D02*
X102417523Y-62510247D01*
X102417523Y-62510247D02*
X102322285Y-62462628D01*
X102322285Y-62462628D02*
X102131809Y-62415009D01*
X102131809Y-62415009D02*
X102036571Y-62367390D01*
X102036571Y-62367390D02*
X101988952Y-62319771D01*
X101988952Y-62319771D02*
X101941333Y-62224533D01*
X101941333Y-62224533D02*
X101941333Y-62129295D01*
X101941333Y-62129295D02*
X101988952Y-62034057D01*
X101988952Y-62034057D02*
X102036571Y-61986438D01*
X102036571Y-61986438D02*
X102131809Y-61938819D01*
X102131809Y-61938819D02*
X102369904Y-61938819D01*
X102369904Y-61938819D02*
X102512761Y-61986438D01*
X102798476Y-61938819D02*
X103369904Y-61938819D01*
X103084190Y-62938819D02*
X103084190Y-61938819D01*
X104544905Y-43634819D02*
X104544905Y-42634819D01*
X104544905Y-42634819D02*
X104783000Y-42634819D01*
X104783000Y-42634819D02*
X104925857Y-42682438D01*
X104925857Y-42682438D02*
X105021095Y-42777676D01*
X105021095Y-42777676D02*
X105068714Y-42872914D01*
X105068714Y-42872914D02*
X105116333Y-43063390D01*
X105116333Y-43063390D02*
X105116333Y-43206247D01*
X105116333Y-43206247D02*
X105068714Y-43396723D01*
X105068714Y-43396723D02*
X105021095Y-43491961D01*
X105021095Y-43491961D02*
X104925857Y-43587200D01*
X104925857Y-43587200D02*
X104783000Y-43634819D01*
X104783000Y-43634819D02*
X104544905Y-43634819D01*
X105497286Y-42730057D02*
X105544905Y-42682438D01*
X105544905Y-42682438D02*
X105640143Y-42634819D01*
X105640143Y-42634819D02*
X105878238Y-42634819D01*
X105878238Y-42634819D02*
X105973476Y-42682438D01*
X105973476Y-42682438D02*
X106021095Y-42730057D01*
X106021095Y-42730057D02*
X106068714Y-42825295D01*
X106068714Y-42825295D02*
X106068714Y-42920533D01*
X106068714Y-42920533D02*
X106021095Y-43063390D01*
X106021095Y-43063390D02*
X105449667Y-43634819D01*
X105449667Y-43634819D02*
X106068714Y-43634819D01*
X107275333Y-62843580D02*
X107227714Y-62891200D01*
X107227714Y-62891200D02*
X107084857Y-62938819D01*
X107084857Y-62938819D02*
X106989619Y-62938819D01*
X106989619Y-62938819D02*
X106846762Y-62891200D01*
X106846762Y-62891200D02*
X106751524Y-62795961D01*
X106751524Y-62795961D02*
X106703905Y-62700723D01*
X106703905Y-62700723D02*
X106656286Y-62510247D01*
X106656286Y-62510247D02*
X106656286Y-62367390D01*
X106656286Y-62367390D02*
X106703905Y-62176914D01*
X106703905Y-62176914D02*
X106751524Y-62081676D01*
X106751524Y-62081676D02*
X106846762Y-61986438D01*
X106846762Y-61986438D02*
X106989619Y-61938819D01*
X106989619Y-61938819D02*
X107084857Y-61938819D01*
X107084857Y-61938819D02*
X107227714Y-61986438D01*
X107227714Y-61986438D02*
X107275333Y-62034057D01*
X107751524Y-62938819D02*
X107942000Y-62938819D01*
X107942000Y-62938819D02*
X108037238Y-62891200D01*
X108037238Y-62891200D02*
X108084857Y-62843580D01*
X108084857Y-62843580D02*
X108180095Y-62700723D01*
X108180095Y-62700723D02*
X108227714Y-62510247D01*
X108227714Y-62510247D02*
X108227714Y-62129295D01*
X108227714Y-62129295D02*
X108180095Y-62034057D01*
X108180095Y-62034057D02*
X108132476Y-61986438D01*
X108132476Y-61986438D02*
X108037238Y-61938819D01*
X108037238Y-61938819D02*
X107846762Y-61938819D01*
X107846762Y-61938819D02*
X107751524Y-61986438D01*
X107751524Y-61986438D02*
X107703905Y-62034057D01*
X107703905Y-62034057D02*
X107656286Y-62129295D01*
X107656286Y-62129295D02*
X107656286Y-62367390D01*
X107656286Y-62367390D02*
X107703905Y-62462628D01*
X107703905Y-62462628D02*
X107751524Y-62510247D01*
X107751524Y-62510247D02*
X107846762Y-62557866D01*
X107846762Y-62557866D02*
X108037238Y-62557866D01*
X108037238Y-62557866D02*
X108132476Y-62510247D01*
X108132476Y-62510247D02*
X108180095Y-62462628D01*
X108180095Y-62462628D02*
X108227714Y-62367390D01*
X104608333Y-62843580D02*
X104560714Y-62891200D01*
X104560714Y-62891200D02*
X104417857Y-62938819D01*
X104417857Y-62938819D02*
X104322619Y-62938819D01*
X104322619Y-62938819D02*
X104179762Y-62891200D01*
X104179762Y-62891200D02*
X104084524Y-62795961D01*
X104084524Y-62795961D02*
X104036905Y-62700723D01*
X104036905Y-62700723D02*
X103989286Y-62510247D01*
X103989286Y-62510247D02*
X103989286Y-62367390D01*
X103989286Y-62367390D02*
X104036905Y-62176914D01*
X104036905Y-62176914D02*
X104084524Y-62081676D01*
X104084524Y-62081676D02*
X104179762Y-61986438D01*
X104179762Y-61986438D02*
X104322619Y-61938819D01*
X104322619Y-61938819D02*
X104417857Y-61938819D01*
X104417857Y-61938819D02*
X104560714Y-61986438D01*
X104560714Y-61986438D02*
X104608333Y-62034057D01*
X105179762Y-62367390D02*
X105084524Y-62319771D01*
X105084524Y-62319771D02*
X105036905Y-62272152D01*
X105036905Y-62272152D02*
X104989286Y-62176914D01*
X104989286Y-62176914D02*
X104989286Y-62129295D01*
X104989286Y-62129295D02*
X105036905Y-62034057D01*
X105036905Y-62034057D02*
X105084524Y-61986438D01*
X105084524Y-61986438D02*
X105179762Y-61938819D01*
X105179762Y-61938819D02*
X105370238Y-61938819D01*
X105370238Y-61938819D02*
X105465476Y-61986438D01*
X105465476Y-61986438D02*
X105513095Y-62034057D01*
X105513095Y-62034057D02*
X105560714Y-62129295D01*
X105560714Y-62129295D02*
X105560714Y-62176914D01*
X105560714Y-62176914D02*
X105513095Y-62272152D01*
X105513095Y-62272152D02*
X105465476Y-62319771D01*
X105465476Y-62319771D02*
X105370238Y-62367390D01*
X105370238Y-62367390D02*
X105179762Y-62367390D01*
X105179762Y-62367390D02*
X105084524Y-62415009D01*
X105084524Y-62415009D02*
X105036905Y-62462628D01*
X105036905Y-62462628D02*
X104989286Y-62557866D01*
X104989286Y-62557866D02*
X104989286Y-62748342D01*
X104989286Y-62748342D02*
X105036905Y-62843580D01*
X105036905Y-62843580D02*
X105084524Y-62891200D01*
X105084524Y-62891200D02*
X105179762Y-62938819D01*
X105179762Y-62938819D02*
X105370238Y-62938819D01*
X105370238Y-62938819D02*
X105465476Y-62891200D01*
X105465476Y-62891200D02*
X105513095Y-62843580D01*
X105513095Y-62843580D02*
X105560714Y-62748342D01*
X105560714Y-62748342D02*
X105560714Y-62557866D01*
X105560714Y-62557866D02*
X105513095Y-62462628D01*
X105513095Y-62462628D02*
X105465476Y-62415009D01*
X105465476Y-62415009D02*
X105370238Y-62367390D01*
X99464905Y-43634819D02*
X99464905Y-42634819D01*
X99464905Y-42634819D02*
X99703000Y-42634819D01*
X99703000Y-42634819D02*
X99845857Y-42682438D01*
X99845857Y-42682438D02*
X99941095Y-42777676D01*
X99941095Y-42777676D02*
X99988714Y-42872914D01*
X99988714Y-42872914D02*
X100036333Y-43063390D01*
X100036333Y-43063390D02*
X100036333Y-43206247D01*
X100036333Y-43206247D02*
X99988714Y-43396723D01*
X99988714Y-43396723D02*
X99941095Y-43491961D01*
X99941095Y-43491961D02*
X99845857Y-43587200D01*
X99845857Y-43587200D02*
X99703000Y-43634819D01*
X99703000Y-43634819D02*
X99464905Y-43634819D01*
X100893476Y-42968152D02*
X100893476Y-43634819D01*
X100655381Y-42587200D02*
X100417286Y-43301485D01*
X100417286Y-43301485D02*
X101036333Y-43301485D01*
X89179238Y-45539819D02*
X89179238Y-44539819D01*
X89179238Y-44539819D02*
X89560190Y-44539819D01*
X89560190Y-44539819D02*
X89655428Y-44587438D01*
X89655428Y-44587438D02*
X89703047Y-44635057D01*
X89703047Y-44635057D02*
X89750666Y-44730295D01*
X89750666Y-44730295D02*
X89750666Y-44873152D01*
X89750666Y-44873152D02*
X89703047Y-44968390D01*
X89703047Y-44968390D02*
X89655428Y-45016009D01*
X89655428Y-45016009D02*
X89560190Y-45063628D01*
X89560190Y-45063628D02*
X89179238Y-45063628D01*
X90369714Y-44539819D02*
X90560190Y-44539819D01*
X90560190Y-44539819D02*
X90655428Y-44587438D01*
X90655428Y-44587438D02*
X90750666Y-44682676D01*
X90750666Y-44682676D02*
X90798285Y-44873152D01*
X90798285Y-44873152D02*
X90798285Y-45206485D01*
X90798285Y-45206485D02*
X90750666Y-45396961D01*
X90750666Y-45396961D02*
X90655428Y-45492200D01*
X90655428Y-45492200D02*
X90560190Y-45539819D01*
X90560190Y-45539819D02*
X90369714Y-45539819D01*
X90369714Y-45539819D02*
X90274476Y-45492200D01*
X90274476Y-45492200D02*
X90179238Y-45396961D01*
X90179238Y-45396961D02*
X90131619Y-45206485D01*
X90131619Y-45206485D02*
X90131619Y-44873152D01*
X90131619Y-44873152D02*
X90179238Y-44682676D01*
X90179238Y-44682676D02*
X90274476Y-44587438D01*
X90274476Y-44587438D02*
X90369714Y-44539819D01*
X91131619Y-44539819D02*
X91369714Y-45539819D01*
X91369714Y-45539819D02*
X91560190Y-44825533D01*
X91560190Y-44825533D02*
X91750666Y-45539819D01*
X91750666Y-45539819D02*
X91988762Y-44539819D01*
X92369714Y-45016009D02*
X92703047Y-45016009D01*
X92845904Y-45539819D02*
X92369714Y-45539819D01*
X92369714Y-45539819D02*
X92369714Y-44539819D01*
X92369714Y-44539819D02*
X92845904Y-44539819D01*
X93845904Y-45539819D02*
X93512571Y-45063628D01*
X93274476Y-45539819D02*
X93274476Y-44539819D01*
X93274476Y-44539819D02*
X93655428Y-44539819D01*
X93655428Y-44539819D02*
X93750666Y-44587438D01*
X93750666Y-44587438D02*
X93798285Y-44635057D01*
X93798285Y-44635057D02*
X93845904Y-44730295D01*
X93845904Y-44730295D02*
X93845904Y-44873152D01*
X93845904Y-44873152D02*
X93798285Y-44968390D01*
X93798285Y-44968390D02*
X93750666Y-45016009D01*
X93750666Y-45016009D02*
X93655428Y-45063628D01*
X93655428Y-45063628D02*
X93274476Y-45063628D01*
X95845905Y-45539819D02*
X95798286Y-45539819D01*
X95798286Y-45539819D02*
X95703047Y-45492200D01*
X95703047Y-45492200D02*
X95560190Y-45349342D01*
X95560190Y-45349342D02*
X95322095Y-45063628D01*
X95322095Y-45063628D02*
X95226857Y-44920771D01*
X95226857Y-44920771D02*
X95179238Y-44777914D01*
X95179238Y-44777914D02*
X95179238Y-44682676D01*
X95179238Y-44682676D02*
X95226857Y-44587438D01*
X95226857Y-44587438D02*
X95322095Y-44539819D01*
X95322095Y-44539819D02*
X95369714Y-44539819D01*
X95369714Y-44539819D02*
X95464952Y-44587438D01*
X95464952Y-44587438D02*
X95512571Y-44682676D01*
X95512571Y-44682676D02*
X95512571Y-44730295D01*
X95512571Y-44730295D02*
X95464952Y-44825533D01*
X95464952Y-44825533D02*
X95417333Y-44873152D01*
X95417333Y-44873152D02*
X95131619Y-45063628D01*
X95131619Y-45063628D02*
X95084000Y-45111247D01*
X95084000Y-45111247D02*
X95036381Y-45206485D01*
X95036381Y-45206485D02*
X95036381Y-45349342D01*
X95036381Y-45349342D02*
X95084000Y-45444580D01*
X95084000Y-45444580D02*
X95131619Y-45492200D01*
X95131619Y-45492200D02*
X95226857Y-45539819D01*
X95226857Y-45539819D02*
X95369714Y-45539819D01*
X95369714Y-45539819D02*
X95464952Y-45492200D01*
X95464952Y-45492200D02*
X95512571Y-45444580D01*
X95512571Y-45444580D02*
X95655428Y-45254104D01*
X95655428Y-45254104D02*
X95703047Y-45111247D01*
X95703047Y-45111247D02*
X95703047Y-45016009D01*
X97036381Y-44539819D02*
X97036381Y-45349342D01*
X97036381Y-45349342D02*
X97084000Y-45444580D01*
X97084000Y-45444580D02*
X97131619Y-45492200D01*
X97131619Y-45492200D02*
X97226857Y-45539819D01*
X97226857Y-45539819D02*
X97417333Y-45539819D01*
X97417333Y-45539819D02*
X97512571Y-45492200D01*
X97512571Y-45492200D02*
X97560190Y-45444580D01*
X97560190Y-45444580D02*
X97607809Y-45349342D01*
X97607809Y-45349342D02*
X97607809Y-44539819D01*
X98036381Y-45254104D02*
X98512571Y-45254104D01*
X97941143Y-45539819D02*
X98274476Y-44539819D01*
X98274476Y-44539819D02*
X98607809Y-45539819D01*
X99512571Y-45539819D02*
X99179238Y-45063628D01*
X98941143Y-45539819D02*
X98941143Y-44539819D01*
X98941143Y-44539819D02*
X99322095Y-44539819D01*
X99322095Y-44539819D02*
X99417333Y-44587438D01*
X99417333Y-44587438D02*
X99464952Y-44635057D01*
X99464952Y-44635057D02*
X99512571Y-44730295D01*
X99512571Y-44730295D02*
X99512571Y-44873152D01*
X99512571Y-44873152D02*
X99464952Y-44968390D01*
X99464952Y-44968390D02*
X99417333Y-45016009D01*
X99417333Y-45016009D02*
X99322095Y-45063628D01*
X99322095Y-45063628D02*
X98941143Y-45063628D01*
X99798286Y-44539819D02*
X100369714Y-44539819D01*
X100084000Y-45539819D02*
X100084000Y-44539819D01*
X101417333Y-44492200D02*
X100560191Y-45777914D01*
X101750667Y-45539819D02*
X101750667Y-44539819D01*
X102798285Y-45444580D02*
X102750666Y-45492200D01*
X102750666Y-45492200D02*
X102607809Y-45539819D01*
X102607809Y-45539819D02*
X102512571Y-45539819D01*
X102512571Y-45539819D02*
X102369714Y-45492200D01*
X102369714Y-45492200D02*
X102274476Y-45396961D01*
X102274476Y-45396961D02*
X102226857Y-45301723D01*
X102226857Y-45301723D02*
X102179238Y-45111247D01*
X102179238Y-45111247D02*
X102179238Y-44968390D01*
X102179238Y-44968390D02*
X102226857Y-44777914D01*
X102226857Y-44777914D02*
X102274476Y-44682676D01*
X102274476Y-44682676D02*
X102369714Y-44587438D01*
X102369714Y-44587438D02*
X102512571Y-44539819D01*
X102512571Y-44539819D02*
X102607809Y-44539819D01*
X102607809Y-44539819D02*
X102750666Y-44587438D01*
X102750666Y-44587438D02*
X102798285Y-44635057D01*
X103179238Y-44635057D02*
X103226857Y-44587438D01*
X103226857Y-44587438D02*
X103322095Y-44539819D01*
X103322095Y-44539819D02*
X103560190Y-44539819D01*
X103560190Y-44539819D02*
X103655428Y-44587438D01*
X103655428Y-44587438D02*
X103703047Y-44635057D01*
X103703047Y-44635057D02*
X103750666Y-44730295D01*
X103750666Y-44730295D02*
X103750666Y-44825533D01*
X103750666Y-44825533D02*
X103703047Y-44968390D01*
X103703047Y-44968390D02*
X103131619Y-45539819D01*
X103131619Y-45539819D02*
X103750666Y-45539819D01*
X104893523Y-44492200D02*
X104036381Y-45777914D01*
X105179238Y-45492200D02*
X105322095Y-45539819D01*
X105322095Y-45539819D02*
X105560190Y-45539819D01*
X105560190Y-45539819D02*
X105655428Y-45492200D01*
X105655428Y-45492200D02*
X105703047Y-45444580D01*
X105703047Y-45444580D02*
X105750666Y-45349342D01*
X105750666Y-45349342D02*
X105750666Y-45254104D01*
X105750666Y-45254104D02*
X105703047Y-45158866D01*
X105703047Y-45158866D02*
X105655428Y-45111247D01*
X105655428Y-45111247D02*
X105560190Y-45063628D01*
X105560190Y-45063628D02*
X105369714Y-45016009D01*
X105369714Y-45016009D02*
X105274476Y-44968390D01*
X105274476Y-44968390D02*
X105226857Y-44920771D01*
X105226857Y-44920771D02*
X105179238Y-44825533D01*
X105179238Y-44825533D02*
X105179238Y-44730295D01*
X105179238Y-44730295D02*
X105226857Y-44635057D01*
X105226857Y-44635057D02*
X105274476Y-44587438D01*
X105274476Y-44587438D02*
X105369714Y-44539819D01*
X105369714Y-44539819D02*
X105607809Y-44539819D01*
X105607809Y-44539819D02*
X105750666Y-44587438D01*
X106179238Y-45539819D02*
X106179238Y-44539819D01*
X106179238Y-44539819D02*
X106560190Y-44539819D01*
X106560190Y-44539819D02*
X106655428Y-44587438D01*
X106655428Y-44587438D02*
X106703047Y-44635057D01*
X106703047Y-44635057D02*
X106750666Y-44730295D01*
X106750666Y-44730295D02*
X106750666Y-44873152D01*
X106750666Y-44873152D02*
X106703047Y-44968390D01*
X106703047Y-44968390D02*
X106655428Y-45016009D01*
X106655428Y-45016009D02*
X106560190Y-45063628D01*
X106560190Y-45063628D02*
X106179238Y-45063628D01*
X107179238Y-45539819D02*
X107179238Y-44539819D01*
X108988761Y-45539819D02*
X108655428Y-45063628D01*
X108417333Y-45539819D02*
X108417333Y-44539819D01*
X108417333Y-44539819D02*
X108798285Y-44539819D01*
X108798285Y-44539819D02*
X108893523Y-44587438D01*
X108893523Y-44587438D02*
X108941142Y-44635057D01*
X108941142Y-44635057D02*
X108988761Y-44730295D01*
X108988761Y-44730295D02*
X108988761Y-44873152D01*
X108988761Y-44873152D02*
X108941142Y-44968390D01*
X108941142Y-44968390D02*
X108893523Y-45016009D01*
X108893523Y-45016009D02*
X108798285Y-45063628D01*
X108798285Y-45063628D02*
X108417333Y-45063628D01*
X109798285Y-45492200D02*
X109703047Y-45539819D01*
X109703047Y-45539819D02*
X109512571Y-45539819D01*
X109512571Y-45539819D02*
X109417333Y-45492200D01*
X109417333Y-45492200D02*
X109369714Y-45396961D01*
X109369714Y-45396961D02*
X109369714Y-45016009D01*
X109369714Y-45016009D02*
X109417333Y-44920771D01*
X109417333Y-44920771D02*
X109512571Y-44873152D01*
X109512571Y-44873152D02*
X109703047Y-44873152D01*
X109703047Y-44873152D02*
X109798285Y-44920771D01*
X109798285Y-44920771D02*
X109845904Y-45016009D01*
X109845904Y-45016009D02*
X109845904Y-45111247D01*
X109845904Y-45111247D02*
X109369714Y-45206485D01*
X110179238Y-44873152D02*
X110417333Y-45539819D01*
X110417333Y-45539819D02*
X110655428Y-44873152D01*
X111036381Y-45444580D02*
X111084000Y-45492200D01*
X111084000Y-45492200D02*
X111036381Y-45539819D01*
X111036381Y-45539819D02*
X110988762Y-45492200D01*
X110988762Y-45492200D02*
X111036381Y-45444580D01*
X111036381Y-45444580D02*
X111036381Y-45539819D01*
X112036380Y-45539819D02*
X111464952Y-45539819D01*
X111750666Y-45539819D02*
X111750666Y-44539819D01*
X111750666Y-44539819D02*
X111655428Y-44682676D01*
X111655428Y-44682676D02*
X111560190Y-44777914D01*
X111560190Y-44777914D02*
X111464952Y-44825533D01*
X74636333Y-43539580D02*
X74588714Y-43587200D01*
X74588714Y-43587200D02*
X74445857Y-43634819D01*
X74445857Y-43634819D02*
X74350619Y-43634819D01*
X74350619Y-43634819D02*
X74207762Y-43587200D01*
X74207762Y-43587200D02*
X74112524Y-43491961D01*
X74112524Y-43491961D02*
X74064905Y-43396723D01*
X74064905Y-43396723D02*
X74017286Y-43206247D01*
X74017286Y-43206247D02*
X74017286Y-43063390D01*
X74017286Y-43063390D02*
X74064905Y-42872914D01*
X74064905Y-42872914D02*
X74112524Y-42777676D01*
X74112524Y-42777676D02*
X74207762Y-42682438D01*
X74207762Y-42682438D02*
X74350619Y-42634819D01*
X74350619Y-42634819D02*
X74445857Y-42634819D01*
X74445857Y-42634819D02*
X74588714Y-42682438D01*
X74588714Y-42682438D02*
X74636333Y-42730057D01*
X75493476Y-42634819D02*
X75303000Y-42634819D01*
X75303000Y-42634819D02*
X75207762Y-42682438D01*
X75207762Y-42682438D02*
X75160143Y-42730057D01*
X75160143Y-42730057D02*
X75064905Y-42872914D01*
X75064905Y-42872914D02*
X75017286Y-43063390D01*
X75017286Y-43063390D02*
X75017286Y-43444342D01*
X75017286Y-43444342D02*
X75064905Y-43539580D01*
X75064905Y-43539580D02*
X75112524Y-43587200D01*
X75112524Y-43587200D02*
X75207762Y-43634819D01*
X75207762Y-43634819D02*
X75398238Y-43634819D01*
X75398238Y-43634819D02*
X75493476Y-43587200D01*
X75493476Y-43587200D02*
X75541095Y-43539580D01*
X75541095Y-43539580D02*
X75588714Y-43444342D01*
X75588714Y-43444342D02*
X75588714Y-43206247D01*
X75588714Y-43206247D02*
X75541095Y-43111009D01*
X75541095Y-43111009D02*
X75493476Y-43063390D01*
X75493476Y-43063390D02*
X75398238Y-43015771D01*
X75398238Y-43015771D02*
X75207762Y-43015771D01*
X75207762Y-43015771D02*
X75112524Y-43063390D01*
X75112524Y-43063390D02*
X75064905Y-43111009D01*
X75064905Y-43111009D02*
X75017286Y-43206247D01*
X107084905Y-43634819D02*
X107084905Y-42634819D01*
X107084905Y-42634819D02*
X107323000Y-42634819D01*
X107323000Y-42634819D02*
X107465857Y-42682438D01*
X107465857Y-42682438D02*
X107561095Y-42777676D01*
X107561095Y-42777676D02*
X107608714Y-42872914D01*
X107608714Y-42872914D02*
X107656333Y-43063390D01*
X107656333Y-43063390D02*
X107656333Y-43206247D01*
X107656333Y-43206247D02*
X107608714Y-43396723D01*
X107608714Y-43396723D02*
X107561095Y-43491961D01*
X107561095Y-43491961D02*
X107465857Y-43587200D01*
X107465857Y-43587200D02*
X107323000Y-43634819D01*
X107323000Y-43634819D02*
X107084905Y-43634819D01*
X108608714Y-43634819D02*
X108037286Y-43634819D01*
X108323000Y-43634819D02*
X108323000Y-42634819D01*
X108323000Y-42634819D02*
X108227762Y-42777676D01*
X108227762Y-42777676D02*
X108132524Y-42872914D01*
X108132524Y-42872914D02*
X108037286Y-42920533D01*
X64188180Y-61682380D02*
X64664371Y-61349047D01*
X64188180Y-61110952D02*
X65188180Y-61110952D01*
X65188180Y-61110952D02*
X65188180Y-61491904D01*
X65188180Y-61491904D02*
X65140561Y-61587142D01*
X65140561Y-61587142D02*
X65092942Y-61634761D01*
X65092942Y-61634761D02*
X64997704Y-61682380D01*
X64997704Y-61682380D02*
X64854847Y-61682380D01*
X64854847Y-61682380D02*
X64759609Y-61634761D01*
X64759609Y-61634761D02*
X64711990Y-61587142D01*
X64711990Y-61587142D02*
X64664371Y-61491904D01*
X64664371Y-61491904D02*
X64664371Y-61110952D01*
X64235800Y-62063333D02*
X64188180Y-62206190D01*
X64188180Y-62206190D02*
X64188180Y-62444285D01*
X64188180Y-62444285D02*
X64235800Y-62539523D01*
X64235800Y-62539523D02*
X64283419Y-62587142D01*
X64283419Y-62587142D02*
X64378657Y-62634761D01*
X64378657Y-62634761D02*
X64473895Y-62634761D01*
X64473895Y-62634761D02*
X64569133Y-62587142D01*
X64569133Y-62587142D02*
X64616752Y-62539523D01*
X64616752Y-62539523D02*
X64664371Y-62444285D01*
X64664371Y-62444285D02*
X64711990Y-62253809D01*
X64711990Y-62253809D02*
X64759609Y-62158571D01*
X64759609Y-62158571D02*
X64807228Y-62110952D01*
X64807228Y-62110952D02*
X64902466Y-62063333D01*
X64902466Y-62063333D02*
X64997704Y-62063333D01*
X64997704Y-62063333D02*
X65092942Y-62110952D01*
X65092942Y-62110952D02*
X65140561Y-62158571D01*
X65140561Y-62158571D02*
X65188180Y-62253809D01*
X65188180Y-62253809D02*
X65188180Y-62491904D01*
X65188180Y-62491904D02*
X65140561Y-62634761D01*
X65188180Y-62920476D02*
X65188180Y-63491904D01*
X64188180Y-63206190D02*
X65188180Y-63206190D01*
X96924905Y-43634819D02*
X96924905Y-42634819D01*
X96924905Y-42634819D02*
X97163000Y-42634819D01*
X97163000Y-42634819D02*
X97305857Y-42682438D01*
X97305857Y-42682438D02*
X97401095Y-42777676D01*
X97401095Y-42777676D02*
X97448714Y-42872914D01*
X97448714Y-42872914D02*
X97496333Y-43063390D01*
X97496333Y-43063390D02*
X97496333Y-43206247D01*
X97496333Y-43206247D02*
X97448714Y-43396723D01*
X97448714Y-43396723D02*
X97401095Y-43491961D01*
X97401095Y-43491961D02*
X97305857Y-43587200D01*
X97305857Y-43587200D02*
X97163000Y-43634819D01*
X97163000Y-43634819D02*
X96924905Y-43634819D01*
X98401095Y-42634819D02*
X97924905Y-42634819D01*
X97924905Y-42634819D02*
X97877286Y-43111009D01*
X97877286Y-43111009D02*
X97924905Y-43063390D01*
X97924905Y-43063390D02*
X98020143Y-43015771D01*
X98020143Y-43015771D02*
X98258238Y-43015771D01*
X98258238Y-43015771D02*
X98353476Y-43063390D01*
X98353476Y-43063390D02*
X98401095Y-43111009D01*
X98401095Y-43111009D02*
X98448714Y-43206247D01*
X98448714Y-43206247D02*
X98448714Y-43444342D01*
X98448714Y-43444342D02*
X98401095Y-43539580D01*
X98401095Y-43539580D02*
X98353476Y-43587200D01*
X98353476Y-43587200D02*
X98258238Y-43634819D01*
X98258238Y-43634819D02*
X98020143Y-43634819D01*
X98020143Y-43634819D02*
X97924905Y-43587200D01*
X97924905Y-43587200D02*
X97877286Y-43539580D01*
X91844905Y-43634819D02*
X91844905Y-42634819D01*
X91844905Y-42634819D02*
X92083000Y-42634819D01*
X92083000Y-42634819D02*
X92225857Y-42682438D01*
X92225857Y-42682438D02*
X92321095Y-42777676D01*
X92321095Y-42777676D02*
X92368714Y-42872914D01*
X92368714Y-42872914D02*
X92416333Y-43063390D01*
X92416333Y-43063390D02*
X92416333Y-43206247D01*
X92416333Y-43206247D02*
X92368714Y-43396723D01*
X92368714Y-43396723D02*
X92321095Y-43491961D01*
X92321095Y-43491961D02*
X92225857Y-43587200D01*
X92225857Y-43587200D02*
X92083000Y-43634819D01*
X92083000Y-43634819D02*
X91844905Y-43634819D01*
X92749667Y-42634819D02*
X93416333Y-42634819D01*
X93416333Y-42634819D02*
X92987762Y-43634819D01*
X102004905Y-43634819D02*
X102004905Y-42634819D01*
X102004905Y-42634819D02*
X102243000Y-42634819D01*
X102243000Y-42634819D02*
X102385857Y-42682438D01*
X102385857Y-42682438D02*
X102481095Y-42777676D01*
X102481095Y-42777676D02*
X102528714Y-42872914D01*
X102528714Y-42872914D02*
X102576333Y-43063390D01*
X102576333Y-43063390D02*
X102576333Y-43206247D01*
X102576333Y-43206247D02*
X102528714Y-43396723D01*
X102528714Y-43396723D02*
X102481095Y-43491961D01*
X102481095Y-43491961D02*
X102385857Y-43587200D01*
X102385857Y-43587200D02*
X102243000Y-43634819D01*
X102243000Y-43634819D02*
X102004905Y-43634819D01*
X102909667Y-42634819D02*
X103528714Y-42634819D01*
X103528714Y-42634819D02*
X103195381Y-43015771D01*
X103195381Y-43015771D02*
X103338238Y-43015771D01*
X103338238Y-43015771D02*
X103433476Y-43063390D01*
X103433476Y-43063390D02*
X103481095Y-43111009D01*
X103481095Y-43111009D02*
X103528714Y-43206247D01*
X103528714Y-43206247D02*
X103528714Y-43444342D01*
X103528714Y-43444342D02*
X103481095Y-43539580D01*
X103481095Y-43539580D02*
X103433476Y-43587200D01*
X103433476Y-43587200D02*
X103338238Y-43634819D01*
X103338238Y-43634819D02*
X103052524Y-43634819D01*
X103052524Y-43634819D02*
X102957286Y-43587200D01*
X102957286Y-43587200D02*
X102909667Y-43539580D01*
X68542819Y-45632285D02*
X69352342Y-45632285D01*
X69352342Y-45632285D02*
X69447580Y-45584666D01*
X69447580Y-45584666D02*
X69495200Y-45537047D01*
X69495200Y-45537047D02*
X69542819Y-45441809D01*
X69542819Y-45441809D02*
X69542819Y-45251333D01*
X69542819Y-45251333D02*
X69495200Y-45156095D01*
X69495200Y-45156095D02*
X69447580Y-45108476D01*
X69447580Y-45108476D02*
X69352342Y-45060857D01*
X69352342Y-45060857D02*
X68542819Y-45060857D01*
X69495200Y-44632285D02*
X69542819Y-44489428D01*
X69542819Y-44489428D02*
X69542819Y-44251333D01*
X69542819Y-44251333D02*
X69495200Y-44156095D01*
X69495200Y-44156095D02*
X69447580Y-44108476D01*
X69447580Y-44108476D02*
X69352342Y-44060857D01*
X69352342Y-44060857D02*
X69257104Y-44060857D01*
X69257104Y-44060857D02*
X69161866Y-44108476D01*
X69161866Y-44108476D02*
X69114247Y-44156095D01*
X69114247Y-44156095D02*
X69066628Y-44251333D01*
X69066628Y-44251333D02*
X69019009Y-44441809D01*
X69019009Y-44441809D02*
X68971390Y-44537047D01*
X68971390Y-44537047D02*
X68923771Y-44584666D01*
X68923771Y-44584666D02*
X68828533Y-44632285D01*
X68828533Y-44632285D02*
X68733295Y-44632285D01*
X68733295Y-44632285D02*
X68638057Y-44584666D01*
X68638057Y-44584666D02*
X68590438Y-44537047D01*
X68590438Y-44537047D02*
X68542819Y-44441809D01*
X68542819Y-44441809D02*
X68542819Y-44203714D01*
X68542819Y-44203714D02*
X68590438Y-44060857D01*
X69019009Y-43298952D02*
X69066628Y-43156095D01*
X69066628Y-43156095D02*
X69114247Y-43108476D01*
X69114247Y-43108476D02*
X69209485Y-43060857D01*
X69209485Y-43060857D02*
X69352342Y-43060857D01*
X69352342Y-43060857D02*
X69447580Y-43108476D01*
X69447580Y-43108476D02*
X69495200Y-43156095D01*
X69495200Y-43156095D02*
X69542819Y-43251333D01*
X69542819Y-43251333D02*
X69542819Y-43632285D01*
X69542819Y-43632285D02*
X68542819Y-43632285D01*
X68542819Y-43632285D02*
X68542819Y-43298952D01*
X68542819Y-43298952D02*
X68590438Y-43203714D01*
X68590438Y-43203714D02*
X68638057Y-43156095D01*
X68638057Y-43156095D02*
X68733295Y-43108476D01*
X68733295Y-43108476D02*
X68828533Y-43108476D01*
X68828533Y-43108476D02*
X68923771Y-43156095D01*
X68923771Y-43156095D02*
X68971390Y-43203714D01*
X68971390Y-43203714D02*
X69019009Y-43298952D01*
X69019009Y-43298952D02*
X69019009Y-43632285D01*
X69542819Y-41870380D02*
X68542819Y-41870380D01*
X68542819Y-41870380D02*
X68542819Y-41489428D01*
X68542819Y-41489428D02*
X68590438Y-41394190D01*
X68590438Y-41394190D02*
X68638057Y-41346571D01*
X68638057Y-41346571D02*
X68733295Y-41298952D01*
X68733295Y-41298952D02*
X68876152Y-41298952D01*
X68876152Y-41298952D02*
X68971390Y-41346571D01*
X68971390Y-41346571D02*
X69019009Y-41394190D01*
X69019009Y-41394190D02*
X69066628Y-41489428D01*
X69066628Y-41489428D02*
X69066628Y-41870380D01*
X68542819Y-40965618D02*
X69542819Y-40727523D01*
X69542819Y-40727523D02*
X68828533Y-40537047D01*
X68828533Y-40537047D02*
X69542819Y-40346571D01*
X69542819Y-40346571D02*
X68542819Y-40108476D01*
X69542819Y-39156095D02*
X69066628Y-39489428D01*
X69542819Y-39727523D02*
X68542819Y-39727523D01*
X68542819Y-39727523D02*
X68542819Y-39346571D01*
X68542819Y-39346571D02*
X68590438Y-39251333D01*
X68590438Y-39251333D02*
X68638057Y-39203714D01*
X68638057Y-39203714D02*
X68733295Y-39156095D01*
X68733295Y-39156095D02*
X68876152Y-39156095D01*
X68876152Y-39156095D02*
X68971390Y-39203714D01*
X68971390Y-39203714D02*
X69019009Y-39251333D01*
X69019009Y-39251333D02*
X69066628Y-39346571D01*
X69066628Y-39346571D02*
X69066628Y-39727523D01*
X94384905Y-43634819D02*
X94384905Y-42634819D01*
X94384905Y-42634819D02*
X94623000Y-42634819D01*
X94623000Y-42634819D02*
X94765857Y-42682438D01*
X94765857Y-42682438D02*
X94861095Y-42777676D01*
X94861095Y-42777676D02*
X94908714Y-42872914D01*
X94908714Y-42872914D02*
X94956333Y-43063390D01*
X94956333Y-43063390D02*
X94956333Y-43206247D01*
X94956333Y-43206247D02*
X94908714Y-43396723D01*
X94908714Y-43396723D02*
X94861095Y-43491961D01*
X94861095Y-43491961D02*
X94765857Y-43587200D01*
X94765857Y-43587200D02*
X94623000Y-43634819D01*
X94623000Y-43634819D02*
X94384905Y-43634819D01*
X95813476Y-42634819D02*
X95623000Y-42634819D01*
X95623000Y-42634819D02*
X95527762Y-42682438D01*
X95527762Y-42682438D02*
X95480143Y-42730057D01*
X95480143Y-42730057D02*
X95384905Y-42872914D01*
X95384905Y-42872914D02*
X95337286Y-43063390D01*
X95337286Y-43063390D02*
X95337286Y-43444342D01*
X95337286Y-43444342D02*
X95384905Y-43539580D01*
X95384905Y-43539580D02*
X95432524Y-43587200D01*
X95432524Y-43587200D02*
X95527762Y-43634819D01*
X95527762Y-43634819D02*
X95718238Y-43634819D01*
X95718238Y-43634819D02*
X95813476Y-43587200D01*
X95813476Y-43587200D02*
X95861095Y-43539580D01*
X95861095Y-43539580D02*
X95908714Y-43444342D01*
X95908714Y-43444342D02*
X95908714Y-43206247D01*
X95908714Y-43206247D02*
X95861095Y-43111009D01*
X95861095Y-43111009D02*
X95813476Y-43063390D01*
X95813476Y-43063390D02*
X95718238Y-43015771D01*
X95718238Y-43015771D02*
X95527762Y-43015771D01*
X95527762Y-43015771D02*
X95432524Y-43063390D01*
X95432524Y-43063390D02*
X95384905Y-43111009D01*
X95384905Y-43111009D02*
X95337286Y-43206247D01*
%TO.C,D103*%
X108785819Y-55411475D02*
X107785819Y-55411475D01*
X107785819Y-55411475D02*
X107785819Y-55173380D01*
X107785819Y-55173380D02*
X107833438Y-55030523D01*
X107833438Y-55030523D02*
X107928676Y-54935285D01*
X107928676Y-54935285D02*
X108023914Y-54887666D01*
X108023914Y-54887666D02*
X108214390Y-54840047D01*
X108214390Y-54840047D02*
X108357247Y-54840047D01*
X108357247Y-54840047D02*
X108547723Y-54887666D01*
X108547723Y-54887666D02*
X108642961Y-54935285D01*
X108642961Y-54935285D02*
X108738200Y-55030523D01*
X108738200Y-55030523D02*
X108785819Y-55173380D01*
X108785819Y-55173380D02*
X108785819Y-55411475D01*
X108785819Y-53887666D02*
X108785819Y-54459094D01*
X108785819Y-54173380D02*
X107785819Y-54173380D01*
X107785819Y-54173380D02*
X107928676Y-54268618D01*
X107928676Y-54268618D02*
X108023914Y-54363856D01*
X108023914Y-54363856D02*
X108071533Y-54459094D01*
X107785819Y-53268618D02*
X107785819Y-53173380D01*
X107785819Y-53173380D02*
X107833438Y-53078142D01*
X107833438Y-53078142D02*
X107881057Y-53030523D01*
X107881057Y-53030523D02*
X107976295Y-52982904D01*
X107976295Y-52982904D02*
X108166771Y-52935285D01*
X108166771Y-52935285D02*
X108404866Y-52935285D01*
X108404866Y-52935285D02*
X108595342Y-52982904D01*
X108595342Y-52982904D02*
X108690580Y-53030523D01*
X108690580Y-53030523D02*
X108738200Y-53078142D01*
X108738200Y-53078142D02*
X108785819Y-53173380D01*
X108785819Y-53173380D02*
X108785819Y-53268618D01*
X108785819Y-53268618D02*
X108738200Y-53363856D01*
X108738200Y-53363856D02*
X108690580Y-53411475D01*
X108690580Y-53411475D02*
X108595342Y-53459094D01*
X108595342Y-53459094D02*
X108404866Y-53506713D01*
X108404866Y-53506713D02*
X108166771Y-53506713D01*
X108166771Y-53506713D02*
X107976295Y-53459094D01*
X107976295Y-53459094D02*
X107881057Y-53411475D01*
X107881057Y-53411475D02*
X107833438Y-53363856D01*
X107833438Y-53363856D02*
X107785819Y-53268618D01*
X107785819Y-52601951D02*
X107785819Y-51982904D01*
X107785819Y-51982904D02*
X108166771Y-52316237D01*
X108166771Y-52316237D02*
X108166771Y-52173380D01*
X108166771Y-52173380D02*
X108214390Y-52078142D01*
X108214390Y-52078142D02*
X108262009Y-52030523D01*
X108262009Y-52030523D02*
X108357247Y-51982904D01*
X108357247Y-51982904D02*
X108595342Y-51982904D01*
X108595342Y-51982904D02*
X108690580Y-52030523D01*
X108690580Y-52030523D02*
X108738200Y-52078142D01*
X108738200Y-52078142D02*
X108785819Y-52173380D01*
X108785819Y-52173380D02*
X108785819Y-52459094D01*
X108785819Y-52459094D02*
X108738200Y-52554332D01*
X108738200Y-52554332D02*
X108690580Y-52601951D01*
%TO.C,U101*%
X95821714Y-63970819D02*
X95821714Y-64780342D01*
X95821714Y-64780342D02*
X95869333Y-64875580D01*
X95869333Y-64875580D02*
X95916952Y-64923200D01*
X95916952Y-64923200D02*
X96012190Y-64970819D01*
X96012190Y-64970819D02*
X96202666Y-64970819D01*
X96202666Y-64970819D02*
X96297904Y-64923200D01*
X96297904Y-64923200D02*
X96345523Y-64875580D01*
X96345523Y-64875580D02*
X96393142Y-64780342D01*
X96393142Y-64780342D02*
X96393142Y-63970819D01*
X97393142Y-64970819D02*
X96821714Y-64970819D01*
X97107428Y-64970819D02*
X97107428Y-63970819D01*
X97107428Y-63970819D02*
X97012190Y-64113676D01*
X97012190Y-64113676D02*
X96916952Y-64208914D01*
X96916952Y-64208914D02*
X96821714Y-64256533D01*
X98012190Y-63970819D02*
X98107428Y-63970819D01*
X98107428Y-63970819D02*
X98202666Y-64018438D01*
X98202666Y-64018438D02*
X98250285Y-64066057D01*
X98250285Y-64066057D02*
X98297904Y-64161295D01*
X98297904Y-64161295D02*
X98345523Y-64351771D01*
X98345523Y-64351771D02*
X98345523Y-64589866D01*
X98345523Y-64589866D02*
X98297904Y-64780342D01*
X98297904Y-64780342D02*
X98250285Y-64875580D01*
X98250285Y-64875580D02*
X98202666Y-64923200D01*
X98202666Y-64923200D02*
X98107428Y-64970819D01*
X98107428Y-64970819D02*
X98012190Y-64970819D01*
X98012190Y-64970819D02*
X97916952Y-64923200D01*
X97916952Y-64923200D02*
X97869333Y-64875580D01*
X97869333Y-64875580D02*
X97821714Y-64780342D01*
X97821714Y-64780342D02*
X97774095Y-64589866D01*
X97774095Y-64589866D02*
X97774095Y-64351771D01*
X97774095Y-64351771D02*
X97821714Y-64161295D01*
X97821714Y-64161295D02*
X97869333Y-64066057D01*
X97869333Y-64066057D02*
X97916952Y-64018438D01*
X97916952Y-64018438D02*
X98012190Y-63970819D01*
X99297904Y-64970819D02*
X98726476Y-64970819D01*
X99012190Y-64970819D02*
X99012190Y-63970819D01*
X99012190Y-63970819D02*
X98916952Y-64113676D01*
X98916952Y-64113676D02*
X98821714Y-64208914D01*
X98821714Y-64208914D02*
X98726476Y-64256533D01*
%TO.C,D101*%
X64222524Y-39570819D02*
X64222524Y-38570819D01*
X64222524Y-38570819D02*
X64460619Y-38570819D01*
X64460619Y-38570819D02*
X64603476Y-38618438D01*
X64603476Y-38618438D02*
X64698714Y-38713676D01*
X64698714Y-38713676D02*
X64746333Y-38808914D01*
X64746333Y-38808914D02*
X64793952Y-38999390D01*
X64793952Y-38999390D02*
X64793952Y-39142247D01*
X64793952Y-39142247D02*
X64746333Y-39332723D01*
X64746333Y-39332723D02*
X64698714Y-39427961D01*
X64698714Y-39427961D02*
X64603476Y-39523200D01*
X64603476Y-39523200D02*
X64460619Y-39570819D01*
X64460619Y-39570819D02*
X64222524Y-39570819D01*
X65746333Y-39570819D02*
X65174905Y-39570819D01*
X65460619Y-39570819D02*
X65460619Y-38570819D01*
X65460619Y-38570819D02*
X65365381Y-38713676D01*
X65365381Y-38713676D02*
X65270143Y-38808914D01*
X65270143Y-38808914D02*
X65174905Y-38856533D01*
X66365381Y-38570819D02*
X66460619Y-38570819D01*
X66460619Y-38570819D02*
X66555857Y-38618438D01*
X66555857Y-38618438D02*
X66603476Y-38666057D01*
X66603476Y-38666057D02*
X66651095Y-38761295D01*
X66651095Y-38761295D02*
X66698714Y-38951771D01*
X66698714Y-38951771D02*
X66698714Y-39189866D01*
X66698714Y-39189866D02*
X66651095Y-39380342D01*
X66651095Y-39380342D02*
X66603476Y-39475580D01*
X66603476Y-39475580D02*
X66555857Y-39523200D01*
X66555857Y-39523200D02*
X66460619Y-39570819D01*
X66460619Y-39570819D02*
X66365381Y-39570819D01*
X66365381Y-39570819D02*
X66270143Y-39523200D01*
X66270143Y-39523200D02*
X66222524Y-39475580D01*
X66222524Y-39475580D02*
X66174905Y-39380342D01*
X66174905Y-39380342D02*
X66127286Y-39189866D01*
X66127286Y-39189866D02*
X66127286Y-38951771D01*
X66127286Y-38951771D02*
X66174905Y-38761295D01*
X66174905Y-38761295D02*
X66222524Y-38666057D01*
X66222524Y-38666057D02*
X66270143Y-38618438D01*
X66270143Y-38618438D02*
X66365381Y-38570819D01*
X67651095Y-39570819D02*
X67079667Y-39570819D01*
X67365381Y-39570819D02*
X67365381Y-38570819D01*
X67365381Y-38570819D02*
X67270143Y-38713676D01*
X67270143Y-38713676D02*
X67174905Y-38808914D01*
X67174905Y-38808914D02*
X67079667Y-38856533D01*
%TO.C,C120*%
X104036952Y-52556580D02*
X103989333Y-52604200D01*
X103989333Y-52604200D02*
X103846476Y-52651819D01*
X103846476Y-52651819D02*
X103751238Y-52651819D01*
X103751238Y-52651819D02*
X103608381Y-52604200D01*
X103608381Y-52604200D02*
X103513143Y-52508961D01*
X103513143Y-52508961D02*
X103465524Y-52413723D01*
X103465524Y-52413723D02*
X103417905Y-52223247D01*
X103417905Y-52223247D02*
X103417905Y-52080390D01*
X103417905Y-52080390D02*
X103465524Y-51889914D01*
X103465524Y-51889914D02*
X103513143Y-51794676D01*
X103513143Y-51794676D02*
X103608381Y-51699438D01*
X103608381Y-51699438D02*
X103751238Y-51651819D01*
X103751238Y-51651819D02*
X103846476Y-51651819D01*
X103846476Y-51651819D02*
X103989333Y-51699438D01*
X103989333Y-51699438D02*
X104036952Y-51747057D01*
X104989333Y-52651819D02*
X104417905Y-52651819D01*
X104703619Y-52651819D02*
X104703619Y-51651819D01*
X104703619Y-51651819D02*
X104608381Y-51794676D01*
X104608381Y-51794676D02*
X104513143Y-51889914D01*
X104513143Y-51889914D02*
X104417905Y-51937533D01*
X105370286Y-51747057D02*
X105417905Y-51699438D01*
X105417905Y-51699438D02*
X105513143Y-51651819D01*
X105513143Y-51651819D02*
X105751238Y-51651819D01*
X105751238Y-51651819D02*
X105846476Y-51699438D01*
X105846476Y-51699438D02*
X105894095Y-51747057D01*
X105894095Y-51747057D02*
X105941714Y-51842295D01*
X105941714Y-51842295D02*
X105941714Y-51937533D01*
X105941714Y-51937533D02*
X105894095Y-52080390D01*
X105894095Y-52080390D02*
X105322667Y-52651819D01*
X105322667Y-52651819D02*
X105941714Y-52651819D01*
X106560762Y-51651819D02*
X106656000Y-51651819D01*
X106656000Y-51651819D02*
X106751238Y-51699438D01*
X106751238Y-51699438D02*
X106798857Y-51747057D01*
X106798857Y-51747057D02*
X106846476Y-51842295D01*
X106846476Y-51842295D02*
X106894095Y-52032771D01*
X106894095Y-52032771D02*
X106894095Y-52270866D01*
X106894095Y-52270866D02*
X106846476Y-52461342D01*
X106846476Y-52461342D02*
X106798857Y-52556580D01*
X106798857Y-52556580D02*
X106751238Y-52604200D01*
X106751238Y-52604200D02*
X106656000Y-52651819D01*
X106656000Y-52651819D02*
X106560762Y-52651819D01*
X106560762Y-52651819D02*
X106465524Y-52604200D01*
X106465524Y-52604200D02*
X106417905Y-52556580D01*
X106417905Y-52556580D02*
X106370286Y-52461342D01*
X106370286Y-52461342D02*
X106322667Y-52270866D01*
X106322667Y-52270866D02*
X106322667Y-52032771D01*
X106322667Y-52032771D02*
X106370286Y-51842295D01*
X106370286Y-51842295D02*
X106417905Y-51747057D01*
X106417905Y-51747057D02*
X106465524Y-51699438D01*
X106465524Y-51699438D02*
X106560762Y-51651819D01*
%TO.C,C115*%
X84814580Y-50014047D02*
X84862200Y-50061666D01*
X84862200Y-50061666D02*
X84909819Y-50204523D01*
X84909819Y-50204523D02*
X84909819Y-50299761D01*
X84909819Y-50299761D02*
X84862200Y-50442618D01*
X84862200Y-50442618D02*
X84766961Y-50537856D01*
X84766961Y-50537856D02*
X84671723Y-50585475D01*
X84671723Y-50585475D02*
X84481247Y-50633094D01*
X84481247Y-50633094D02*
X84338390Y-50633094D01*
X84338390Y-50633094D02*
X84147914Y-50585475D01*
X84147914Y-50585475D02*
X84052676Y-50537856D01*
X84052676Y-50537856D02*
X83957438Y-50442618D01*
X83957438Y-50442618D02*
X83909819Y-50299761D01*
X83909819Y-50299761D02*
X83909819Y-50204523D01*
X83909819Y-50204523D02*
X83957438Y-50061666D01*
X83957438Y-50061666D02*
X84005057Y-50014047D01*
X84909819Y-49061666D02*
X84909819Y-49633094D01*
X84909819Y-49347380D02*
X83909819Y-49347380D01*
X83909819Y-49347380D02*
X84052676Y-49442618D01*
X84052676Y-49442618D02*
X84147914Y-49537856D01*
X84147914Y-49537856D02*
X84195533Y-49633094D01*
X84909819Y-48109285D02*
X84909819Y-48680713D01*
X84909819Y-48394999D02*
X83909819Y-48394999D01*
X83909819Y-48394999D02*
X84052676Y-48490237D01*
X84052676Y-48490237D02*
X84147914Y-48585475D01*
X84147914Y-48585475D02*
X84195533Y-48680713D01*
X83909819Y-47204523D02*
X83909819Y-47680713D01*
X83909819Y-47680713D02*
X84386009Y-47728332D01*
X84386009Y-47728332D02*
X84338390Y-47680713D01*
X84338390Y-47680713D02*
X84290771Y-47585475D01*
X84290771Y-47585475D02*
X84290771Y-47347380D01*
X84290771Y-47347380D02*
X84338390Y-47252142D01*
X84338390Y-47252142D02*
X84386009Y-47204523D01*
X84386009Y-47204523D02*
X84481247Y-47156904D01*
X84481247Y-47156904D02*
X84719342Y-47156904D01*
X84719342Y-47156904D02*
X84814580Y-47204523D01*
X84814580Y-47204523D02*
X84862200Y-47252142D01*
X84862200Y-47252142D02*
X84909819Y-47347380D01*
X84909819Y-47347380D02*
X84909819Y-47585475D01*
X84909819Y-47585475D02*
X84862200Y-47680713D01*
X84862200Y-47680713D02*
X84814580Y-47728332D01*
%TO.C,J101*%
X69021180Y-50109285D02*
X68306895Y-50109285D01*
X68306895Y-50109285D02*
X68164038Y-50061666D01*
X68164038Y-50061666D02*
X68068800Y-49966428D01*
X68068800Y-49966428D02*
X68021180Y-49823571D01*
X68021180Y-49823571D02*
X68021180Y-49728333D01*
X68021180Y-51109285D02*
X68021180Y-50537857D01*
X68021180Y-50823571D02*
X69021180Y-50823571D01*
X69021180Y-50823571D02*
X68878323Y-50728333D01*
X68878323Y-50728333D02*
X68783085Y-50633095D01*
X68783085Y-50633095D02*
X68735466Y-50537857D01*
X69021180Y-51728333D02*
X69021180Y-51823571D01*
X69021180Y-51823571D02*
X68973561Y-51918809D01*
X68973561Y-51918809D02*
X68925942Y-51966428D01*
X68925942Y-51966428D02*
X68830704Y-52014047D01*
X68830704Y-52014047D02*
X68640228Y-52061666D01*
X68640228Y-52061666D02*
X68402133Y-52061666D01*
X68402133Y-52061666D02*
X68211657Y-52014047D01*
X68211657Y-52014047D02*
X68116419Y-51966428D01*
X68116419Y-51966428D02*
X68068800Y-51918809D01*
X68068800Y-51918809D02*
X68021180Y-51823571D01*
X68021180Y-51823571D02*
X68021180Y-51728333D01*
X68021180Y-51728333D02*
X68068800Y-51633095D01*
X68068800Y-51633095D02*
X68116419Y-51585476D01*
X68116419Y-51585476D02*
X68211657Y-51537857D01*
X68211657Y-51537857D02*
X68402133Y-51490238D01*
X68402133Y-51490238D02*
X68640228Y-51490238D01*
X68640228Y-51490238D02*
X68830704Y-51537857D01*
X68830704Y-51537857D02*
X68925942Y-51585476D01*
X68925942Y-51585476D02*
X68973561Y-51633095D01*
X68973561Y-51633095D02*
X69021180Y-51728333D01*
X68021180Y-53014047D02*
X68021180Y-52442619D01*
X68021180Y-52728333D02*
X69021180Y-52728333D01*
X69021180Y-52728333D02*
X68878323Y-52633095D01*
X68878323Y-52633095D02*
X68783085Y-52537857D01*
X68783085Y-52537857D02*
X68735466Y-52442619D01*
X70790871Y-53951143D02*
X70790871Y-53236857D01*
X70790871Y-53236857D02*
X70076585Y-53165429D01*
X70076585Y-53165429D02*
X70148014Y-53236857D01*
X70148014Y-53236857D02*
X70219442Y-53379715D01*
X70219442Y-53379715D02*
X70219442Y-53736857D01*
X70219442Y-53736857D02*
X70148014Y-53879715D01*
X70148014Y-53879715D02*
X70076585Y-53951143D01*
X70076585Y-53951143D02*
X69933728Y-54022572D01*
X69933728Y-54022572D02*
X69576585Y-54022572D01*
X69576585Y-54022572D02*
X69433728Y-53951143D01*
X69433728Y-53951143D02*
X69362300Y-53879715D01*
X69362300Y-53879715D02*
X69290871Y-53736857D01*
X69290871Y-53736857D02*
X69290871Y-53379715D01*
X69290871Y-53379715D02*
X69362300Y-53236857D01*
X69362300Y-53236857D02*
X69433728Y-53165429D01*
X69290871Y-49831572D02*
X69290871Y-48974429D01*
X69290871Y-49403000D02*
X70790871Y-49403000D01*
X70790871Y-49403000D02*
X70576585Y-49260143D01*
X70576585Y-49260143D02*
X70433728Y-49117286D01*
X70433728Y-49117286D02*
X70362300Y-48974429D01*
%TO.C,C114*%
X88796952Y-60303580D02*
X88749333Y-60351200D01*
X88749333Y-60351200D02*
X88606476Y-60398819D01*
X88606476Y-60398819D02*
X88511238Y-60398819D01*
X88511238Y-60398819D02*
X88368381Y-60351200D01*
X88368381Y-60351200D02*
X88273143Y-60255961D01*
X88273143Y-60255961D02*
X88225524Y-60160723D01*
X88225524Y-60160723D02*
X88177905Y-59970247D01*
X88177905Y-59970247D02*
X88177905Y-59827390D01*
X88177905Y-59827390D02*
X88225524Y-59636914D01*
X88225524Y-59636914D02*
X88273143Y-59541676D01*
X88273143Y-59541676D02*
X88368381Y-59446438D01*
X88368381Y-59446438D02*
X88511238Y-59398819D01*
X88511238Y-59398819D02*
X88606476Y-59398819D01*
X88606476Y-59398819D02*
X88749333Y-59446438D01*
X88749333Y-59446438D02*
X88796952Y-59494057D01*
X89749333Y-60398819D02*
X89177905Y-60398819D01*
X89463619Y-60398819D02*
X89463619Y-59398819D01*
X89463619Y-59398819D02*
X89368381Y-59541676D01*
X89368381Y-59541676D02*
X89273143Y-59636914D01*
X89273143Y-59636914D02*
X89177905Y-59684533D01*
X90701714Y-60398819D02*
X90130286Y-60398819D01*
X90416000Y-60398819D02*
X90416000Y-59398819D01*
X90416000Y-59398819D02*
X90320762Y-59541676D01*
X90320762Y-59541676D02*
X90225524Y-59636914D01*
X90225524Y-59636914D02*
X90130286Y-59684533D01*
X91558857Y-59732152D02*
X91558857Y-60398819D01*
X91320762Y-59351200D02*
X91082667Y-60065485D01*
X91082667Y-60065485D02*
X91701714Y-60065485D01*
%TO.C,R102*%
X99845952Y-54938819D02*
X99512619Y-54462628D01*
X99274524Y-54938819D02*
X99274524Y-53938819D01*
X99274524Y-53938819D02*
X99655476Y-53938819D01*
X99655476Y-53938819D02*
X99750714Y-53986438D01*
X99750714Y-53986438D02*
X99798333Y-54034057D01*
X99798333Y-54034057D02*
X99845952Y-54129295D01*
X99845952Y-54129295D02*
X99845952Y-54272152D01*
X99845952Y-54272152D02*
X99798333Y-54367390D01*
X99798333Y-54367390D02*
X99750714Y-54415009D01*
X99750714Y-54415009D02*
X99655476Y-54462628D01*
X99655476Y-54462628D02*
X99274524Y-54462628D01*
X100798333Y-54938819D02*
X100226905Y-54938819D01*
X100512619Y-54938819D02*
X100512619Y-53938819D01*
X100512619Y-53938819D02*
X100417381Y-54081676D01*
X100417381Y-54081676D02*
X100322143Y-54176914D01*
X100322143Y-54176914D02*
X100226905Y-54224533D01*
X101417381Y-53938819D02*
X101512619Y-53938819D01*
X101512619Y-53938819D02*
X101607857Y-53986438D01*
X101607857Y-53986438D02*
X101655476Y-54034057D01*
X101655476Y-54034057D02*
X101703095Y-54129295D01*
X101703095Y-54129295D02*
X101750714Y-54319771D01*
X101750714Y-54319771D02*
X101750714Y-54557866D01*
X101750714Y-54557866D02*
X101703095Y-54748342D01*
X101703095Y-54748342D02*
X101655476Y-54843580D01*
X101655476Y-54843580D02*
X101607857Y-54891200D01*
X101607857Y-54891200D02*
X101512619Y-54938819D01*
X101512619Y-54938819D02*
X101417381Y-54938819D01*
X101417381Y-54938819D02*
X101322143Y-54891200D01*
X101322143Y-54891200D02*
X101274524Y-54843580D01*
X101274524Y-54843580D02*
X101226905Y-54748342D01*
X101226905Y-54748342D02*
X101179286Y-54557866D01*
X101179286Y-54557866D02*
X101179286Y-54319771D01*
X101179286Y-54319771D02*
X101226905Y-54129295D01*
X101226905Y-54129295D02*
X101274524Y-54034057D01*
X101274524Y-54034057D02*
X101322143Y-53986438D01*
X101322143Y-53986438D02*
X101417381Y-53938819D01*
X102131667Y-54034057D02*
X102179286Y-53986438D01*
X102179286Y-53986438D02*
X102274524Y-53938819D01*
X102274524Y-53938819D02*
X102512619Y-53938819D01*
X102512619Y-53938819D02*
X102607857Y-53986438D01*
X102607857Y-53986438D02*
X102655476Y-54034057D01*
X102655476Y-54034057D02*
X102703095Y-54129295D01*
X102703095Y-54129295D02*
X102703095Y-54224533D01*
X102703095Y-54224533D02*
X102655476Y-54367390D01*
X102655476Y-54367390D02*
X102084048Y-54938819D01*
X102084048Y-54938819D02*
X102703095Y-54938819D01*
%TO.C,C117*%
X106277580Y-56110047D02*
X106325200Y-56157666D01*
X106325200Y-56157666D02*
X106372819Y-56300523D01*
X106372819Y-56300523D02*
X106372819Y-56395761D01*
X106372819Y-56395761D02*
X106325200Y-56538618D01*
X106325200Y-56538618D02*
X106229961Y-56633856D01*
X106229961Y-56633856D02*
X106134723Y-56681475D01*
X106134723Y-56681475D02*
X105944247Y-56729094D01*
X105944247Y-56729094D02*
X105801390Y-56729094D01*
X105801390Y-56729094D02*
X105610914Y-56681475D01*
X105610914Y-56681475D02*
X105515676Y-56633856D01*
X105515676Y-56633856D02*
X105420438Y-56538618D01*
X105420438Y-56538618D02*
X105372819Y-56395761D01*
X105372819Y-56395761D02*
X105372819Y-56300523D01*
X105372819Y-56300523D02*
X105420438Y-56157666D01*
X105420438Y-56157666D02*
X105468057Y-56110047D01*
X106372819Y-55157666D02*
X106372819Y-55729094D01*
X106372819Y-55443380D02*
X105372819Y-55443380D01*
X105372819Y-55443380D02*
X105515676Y-55538618D01*
X105515676Y-55538618D02*
X105610914Y-55633856D01*
X105610914Y-55633856D02*
X105658533Y-55729094D01*
X106372819Y-54205285D02*
X106372819Y-54776713D01*
X106372819Y-54490999D02*
X105372819Y-54490999D01*
X105372819Y-54490999D02*
X105515676Y-54586237D01*
X105515676Y-54586237D02*
X105610914Y-54681475D01*
X105610914Y-54681475D02*
X105658533Y-54776713D01*
X105372819Y-53871951D02*
X105372819Y-53205285D01*
X105372819Y-53205285D02*
X106372819Y-53633856D01*
%TO.C,C102*%
X96289952Y-61794580D02*
X96242333Y-61842200D01*
X96242333Y-61842200D02*
X96099476Y-61889819D01*
X96099476Y-61889819D02*
X96004238Y-61889819D01*
X96004238Y-61889819D02*
X95861381Y-61842200D01*
X95861381Y-61842200D02*
X95766143Y-61746961D01*
X95766143Y-61746961D02*
X95718524Y-61651723D01*
X95718524Y-61651723D02*
X95670905Y-61461247D01*
X95670905Y-61461247D02*
X95670905Y-61318390D01*
X95670905Y-61318390D02*
X95718524Y-61127914D01*
X95718524Y-61127914D02*
X95766143Y-61032676D01*
X95766143Y-61032676D02*
X95861381Y-60937438D01*
X95861381Y-60937438D02*
X96004238Y-60889819D01*
X96004238Y-60889819D02*
X96099476Y-60889819D01*
X96099476Y-60889819D02*
X96242333Y-60937438D01*
X96242333Y-60937438D02*
X96289952Y-60985057D01*
X97242333Y-61889819D02*
X96670905Y-61889819D01*
X96956619Y-61889819D02*
X96956619Y-60889819D01*
X96956619Y-60889819D02*
X96861381Y-61032676D01*
X96861381Y-61032676D02*
X96766143Y-61127914D01*
X96766143Y-61127914D02*
X96670905Y-61175533D01*
X97861381Y-60889819D02*
X97956619Y-60889819D01*
X97956619Y-60889819D02*
X98051857Y-60937438D01*
X98051857Y-60937438D02*
X98099476Y-60985057D01*
X98099476Y-60985057D02*
X98147095Y-61080295D01*
X98147095Y-61080295D02*
X98194714Y-61270771D01*
X98194714Y-61270771D02*
X98194714Y-61508866D01*
X98194714Y-61508866D02*
X98147095Y-61699342D01*
X98147095Y-61699342D02*
X98099476Y-61794580D01*
X98099476Y-61794580D02*
X98051857Y-61842200D01*
X98051857Y-61842200D02*
X97956619Y-61889819D01*
X97956619Y-61889819D02*
X97861381Y-61889819D01*
X97861381Y-61889819D02*
X97766143Y-61842200D01*
X97766143Y-61842200D02*
X97718524Y-61794580D01*
X97718524Y-61794580D02*
X97670905Y-61699342D01*
X97670905Y-61699342D02*
X97623286Y-61508866D01*
X97623286Y-61508866D02*
X97623286Y-61270771D01*
X97623286Y-61270771D02*
X97670905Y-61080295D01*
X97670905Y-61080295D02*
X97718524Y-60985057D01*
X97718524Y-60985057D02*
X97766143Y-60937438D01*
X97766143Y-60937438D02*
X97861381Y-60889819D01*
X98575667Y-60985057D02*
X98623286Y-60937438D01*
X98623286Y-60937438D02*
X98718524Y-60889819D01*
X98718524Y-60889819D02*
X98956619Y-60889819D01*
X98956619Y-60889819D02*
X99051857Y-60937438D01*
X99051857Y-60937438D02*
X99099476Y-60985057D01*
X99099476Y-60985057D02*
X99147095Y-61080295D01*
X99147095Y-61080295D02*
X99147095Y-61175533D01*
X99147095Y-61175533D02*
X99099476Y-61318390D01*
X99099476Y-61318390D02*
X98528048Y-61889819D01*
X98528048Y-61889819D02*
X99147095Y-61889819D01*
%TO.C,R103*%
X92479952Y-67383819D02*
X92146619Y-66907628D01*
X91908524Y-67383819D02*
X91908524Y-66383819D01*
X91908524Y-66383819D02*
X92289476Y-66383819D01*
X92289476Y-66383819D02*
X92384714Y-66431438D01*
X92384714Y-66431438D02*
X92432333Y-66479057D01*
X92432333Y-66479057D02*
X92479952Y-66574295D01*
X92479952Y-66574295D02*
X92479952Y-66717152D01*
X92479952Y-66717152D02*
X92432333Y-66812390D01*
X92432333Y-66812390D02*
X92384714Y-66860009D01*
X92384714Y-66860009D02*
X92289476Y-66907628D01*
X92289476Y-66907628D02*
X91908524Y-66907628D01*
X93432333Y-67383819D02*
X92860905Y-67383819D01*
X93146619Y-67383819D02*
X93146619Y-66383819D01*
X93146619Y-66383819D02*
X93051381Y-66526676D01*
X93051381Y-66526676D02*
X92956143Y-66621914D01*
X92956143Y-66621914D02*
X92860905Y-66669533D01*
X94051381Y-66383819D02*
X94146619Y-66383819D01*
X94146619Y-66383819D02*
X94241857Y-66431438D01*
X94241857Y-66431438D02*
X94289476Y-66479057D01*
X94289476Y-66479057D02*
X94337095Y-66574295D01*
X94337095Y-66574295D02*
X94384714Y-66764771D01*
X94384714Y-66764771D02*
X94384714Y-67002866D01*
X94384714Y-67002866D02*
X94337095Y-67193342D01*
X94337095Y-67193342D02*
X94289476Y-67288580D01*
X94289476Y-67288580D02*
X94241857Y-67336200D01*
X94241857Y-67336200D02*
X94146619Y-67383819D01*
X94146619Y-67383819D02*
X94051381Y-67383819D01*
X94051381Y-67383819D02*
X93956143Y-67336200D01*
X93956143Y-67336200D02*
X93908524Y-67288580D01*
X93908524Y-67288580D02*
X93860905Y-67193342D01*
X93860905Y-67193342D02*
X93813286Y-67002866D01*
X93813286Y-67002866D02*
X93813286Y-66764771D01*
X93813286Y-66764771D02*
X93860905Y-66574295D01*
X93860905Y-66574295D02*
X93908524Y-66479057D01*
X93908524Y-66479057D02*
X93956143Y-66431438D01*
X93956143Y-66431438D02*
X94051381Y-66383819D01*
X94718048Y-66383819D02*
X95337095Y-66383819D01*
X95337095Y-66383819D02*
X95003762Y-66764771D01*
X95003762Y-66764771D02*
X95146619Y-66764771D01*
X95146619Y-66764771D02*
X95241857Y-66812390D01*
X95241857Y-66812390D02*
X95289476Y-66860009D01*
X95289476Y-66860009D02*
X95337095Y-66955247D01*
X95337095Y-66955247D02*
X95337095Y-67193342D01*
X95337095Y-67193342D02*
X95289476Y-67288580D01*
X95289476Y-67288580D02*
X95241857Y-67336200D01*
X95241857Y-67336200D02*
X95146619Y-67383819D01*
X95146619Y-67383819D02*
X94860905Y-67383819D01*
X94860905Y-67383819D02*
X94765667Y-67336200D01*
X94765667Y-67336200D02*
X94718048Y-67288580D01*
%TO.C,R106*%
X74572952Y-53413819D02*
X74239619Y-52937628D01*
X74001524Y-53413819D02*
X74001524Y-52413819D01*
X74001524Y-52413819D02*
X74382476Y-52413819D01*
X74382476Y-52413819D02*
X74477714Y-52461438D01*
X74477714Y-52461438D02*
X74525333Y-52509057D01*
X74525333Y-52509057D02*
X74572952Y-52604295D01*
X74572952Y-52604295D02*
X74572952Y-52747152D01*
X74572952Y-52747152D02*
X74525333Y-52842390D01*
X74525333Y-52842390D02*
X74477714Y-52890009D01*
X74477714Y-52890009D02*
X74382476Y-52937628D01*
X74382476Y-52937628D02*
X74001524Y-52937628D01*
X75525333Y-53413819D02*
X74953905Y-53413819D01*
X75239619Y-53413819D02*
X75239619Y-52413819D01*
X75239619Y-52413819D02*
X75144381Y-52556676D01*
X75144381Y-52556676D02*
X75049143Y-52651914D01*
X75049143Y-52651914D02*
X74953905Y-52699533D01*
X76144381Y-52413819D02*
X76239619Y-52413819D01*
X76239619Y-52413819D02*
X76334857Y-52461438D01*
X76334857Y-52461438D02*
X76382476Y-52509057D01*
X76382476Y-52509057D02*
X76430095Y-52604295D01*
X76430095Y-52604295D02*
X76477714Y-52794771D01*
X76477714Y-52794771D02*
X76477714Y-53032866D01*
X76477714Y-53032866D02*
X76430095Y-53223342D01*
X76430095Y-53223342D02*
X76382476Y-53318580D01*
X76382476Y-53318580D02*
X76334857Y-53366200D01*
X76334857Y-53366200D02*
X76239619Y-53413819D01*
X76239619Y-53413819D02*
X76144381Y-53413819D01*
X76144381Y-53413819D02*
X76049143Y-53366200D01*
X76049143Y-53366200D02*
X76001524Y-53318580D01*
X76001524Y-53318580D02*
X75953905Y-53223342D01*
X75953905Y-53223342D02*
X75906286Y-53032866D01*
X75906286Y-53032866D02*
X75906286Y-52794771D01*
X75906286Y-52794771D02*
X75953905Y-52604295D01*
X75953905Y-52604295D02*
X76001524Y-52509057D01*
X76001524Y-52509057D02*
X76049143Y-52461438D01*
X76049143Y-52461438D02*
X76144381Y-52413819D01*
X77334857Y-52413819D02*
X77144381Y-52413819D01*
X77144381Y-52413819D02*
X77049143Y-52461438D01*
X77049143Y-52461438D02*
X77001524Y-52509057D01*
X77001524Y-52509057D02*
X76906286Y-52651914D01*
X76906286Y-52651914D02*
X76858667Y-52842390D01*
X76858667Y-52842390D02*
X76858667Y-53223342D01*
X76858667Y-53223342D02*
X76906286Y-53318580D01*
X76906286Y-53318580D02*
X76953905Y-53366200D01*
X76953905Y-53366200D02*
X77049143Y-53413819D01*
X77049143Y-53413819D02*
X77239619Y-53413819D01*
X77239619Y-53413819D02*
X77334857Y-53366200D01*
X77334857Y-53366200D02*
X77382476Y-53318580D01*
X77382476Y-53318580D02*
X77430095Y-53223342D01*
X77430095Y-53223342D02*
X77430095Y-52985247D01*
X77430095Y-52985247D02*
X77382476Y-52890009D01*
X77382476Y-52890009D02*
X77334857Y-52842390D01*
X77334857Y-52842390D02*
X77239619Y-52794771D01*
X77239619Y-52794771D02*
X77049143Y-52794771D01*
X77049143Y-52794771D02*
X76953905Y-52842390D01*
X76953905Y-52842390D02*
X76906286Y-52890009D01*
X76906286Y-52890009D02*
X76858667Y-52985247D01*
%TO.C,U102*%
X90613318Y-50853316D02*
X90040898Y-51425736D01*
X90040898Y-51425736D02*
X90007226Y-51526751D01*
X90007226Y-51526751D02*
X90007226Y-51594095D01*
X90007226Y-51594095D02*
X90040898Y-51695110D01*
X90040898Y-51695110D02*
X90175585Y-51829797D01*
X90175585Y-51829797D02*
X90276600Y-51863469D01*
X90276600Y-51863469D02*
X90343944Y-51863469D01*
X90343944Y-51863469D02*
X90444959Y-51829797D01*
X90444959Y-51829797D02*
X91017379Y-51257377D01*
X91017379Y-52671591D02*
X90613318Y-52267530D01*
X90815348Y-52469560D02*
X91522455Y-51762454D01*
X91522455Y-51762454D02*
X91354096Y-51796125D01*
X91354096Y-51796125D02*
X91219409Y-51796125D01*
X91219409Y-51796125D02*
X91118394Y-51762454D01*
X92162218Y-52402217D02*
X92229562Y-52469560D01*
X92229562Y-52469560D02*
X92263233Y-52570576D01*
X92263233Y-52570576D02*
X92263233Y-52637919D01*
X92263233Y-52637919D02*
X92229562Y-52738934D01*
X92229562Y-52738934D02*
X92128546Y-52907293D01*
X92128546Y-52907293D02*
X91960188Y-53075652D01*
X91960188Y-53075652D02*
X91791829Y-53176667D01*
X91791829Y-53176667D02*
X91690814Y-53210339D01*
X91690814Y-53210339D02*
X91623470Y-53210339D01*
X91623470Y-53210339D02*
X91522455Y-53176667D01*
X91522455Y-53176667D02*
X91455111Y-53109324D01*
X91455111Y-53109324D02*
X91421440Y-53008308D01*
X91421440Y-53008308D02*
X91421440Y-52940965D01*
X91421440Y-52940965D02*
X91455111Y-52839950D01*
X91455111Y-52839950D02*
X91556127Y-52671591D01*
X91556127Y-52671591D02*
X91724485Y-52503232D01*
X91724485Y-52503232D02*
X91892844Y-52402217D01*
X91892844Y-52402217D02*
X91993859Y-52368545D01*
X91993859Y-52368545D02*
X92061203Y-52368545D01*
X92061203Y-52368545D02*
X92162218Y-52402217D01*
X92599951Y-52974637D02*
X92667294Y-52974637D01*
X92667294Y-52974637D02*
X92768310Y-53008308D01*
X92768310Y-53008308D02*
X92936668Y-53176667D01*
X92936668Y-53176667D02*
X92970340Y-53277682D01*
X92970340Y-53277682D02*
X92970340Y-53345026D01*
X92970340Y-53345026D02*
X92936668Y-53446041D01*
X92936668Y-53446041D02*
X92869325Y-53513385D01*
X92869325Y-53513385D02*
X92734638Y-53580728D01*
X92734638Y-53580728D02*
X91926516Y-53580728D01*
X91926516Y-53580728D02*
X92364249Y-54018461D01*
%TO.C,R104*%
X92352952Y-59891819D02*
X92019619Y-59415628D01*
X91781524Y-59891819D02*
X91781524Y-58891819D01*
X91781524Y-58891819D02*
X92162476Y-58891819D01*
X92162476Y-58891819D02*
X92257714Y-58939438D01*
X92257714Y-58939438D02*
X92305333Y-58987057D01*
X92305333Y-58987057D02*
X92352952Y-59082295D01*
X92352952Y-59082295D02*
X92352952Y-59225152D01*
X92352952Y-59225152D02*
X92305333Y-59320390D01*
X92305333Y-59320390D02*
X92257714Y-59368009D01*
X92257714Y-59368009D02*
X92162476Y-59415628D01*
X92162476Y-59415628D02*
X91781524Y-59415628D01*
X93305333Y-59891819D02*
X92733905Y-59891819D01*
X93019619Y-59891819D02*
X93019619Y-58891819D01*
X93019619Y-58891819D02*
X92924381Y-59034676D01*
X92924381Y-59034676D02*
X92829143Y-59129914D01*
X92829143Y-59129914D02*
X92733905Y-59177533D01*
X93924381Y-58891819D02*
X94019619Y-58891819D01*
X94019619Y-58891819D02*
X94114857Y-58939438D01*
X94114857Y-58939438D02*
X94162476Y-58987057D01*
X94162476Y-58987057D02*
X94210095Y-59082295D01*
X94210095Y-59082295D02*
X94257714Y-59272771D01*
X94257714Y-59272771D02*
X94257714Y-59510866D01*
X94257714Y-59510866D02*
X94210095Y-59701342D01*
X94210095Y-59701342D02*
X94162476Y-59796580D01*
X94162476Y-59796580D02*
X94114857Y-59844200D01*
X94114857Y-59844200D02*
X94019619Y-59891819D01*
X94019619Y-59891819D02*
X93924381Y-59891819D01*
X93924381Y-59891819D02*
X93829143Y-59844200D01*
X93829143Y-59844200D02*
X93781524Y-59796580D01*
X93781524Y-59796580D02*
X93733905Y-59701342D01*
X93733905Y-59701342D02*
X93686286Y-59510866D01*
X93686286Y-59510866D02*
X93686286Y-59272771D01*
X93686286Y-59272771D02*
X93733905Y-59082295D01*
X93733905Y-59082295D02*
X93781524Y-58987057D01*
X93781524Y-58987057D02*
X93829143Y-58939438D01*
X93829143Y-58939438D02*
X93924381Y-58891819D01*
X95114857Y-59225152D02*
X95114857Y-59891819D01*
X94876762Y-58844200D02*
X94638667Y-59558485D01*
X94638667Y-59558485D02*
X95257714Y-59558485D01*
%TO.C,Y101*%
X83153428Y-66526628D02*
X83153428Y-67002819D01*
X82820095Y-66002819D02*
X83153428Y-66526628D01*
X83153428Y-66526628D02*
X83486761Y-66002819D01*
X84343904Y-67002819D02*
X83772476Y-67002819D01*
X84058190Y-67002819D02*
X84058190Y-66002819D01*
X84058190Y-66002819D02*
X83962952Y-66145676D01*
X83962952Y-66145676D02*
X83867714Y-66240914D01*
X83867714Y-66240914D02*
X83772476Y-66288533D01*
X84962952Y-66002819D02*
X85058190Y-66002819D01*
X85058190Y-66002819D02*
X85153428Y-66050438D01*
X85153428Y-66050438D02*
X85201047Y-66098057D01*
X85201047Y-66098057D02*
X85248666Y-66193295D01*
X85248666Y-66193295D02*
X85296285Y-66383771D01*
X85296285Y-66383771D02*
X85296285Y-66621866D01*
X85296285Y-66621866D02*
X85248666Y-66812342D01*
X85248666Y-66812342D02*
X85201047Y-66907580D01*
X85201047Y-66907580D02*
X85153428Y-66955200D01*
X85153428Y-66955200D02*
X85058190Y-67002819D01*
X85058190Y-67002819D02*
X84962952Y-67002819D01*
X84962952Y-67002819D02*
X84867714Y-66955200D01*
X84867714Y-66955200D02*
X84820095Y-66907580D01*
X84820095Y-66907580D02*
X84772476Y-66812342D01*
X84772476Y-66812342D02*
X84724857Y-66621866D01*
X84724857Y-66621866D02*
X84724857Y-66383771D01*
X84724857Y-66383771D02*
X84772476Y-66193295D01*
X84772476Y-66193295D02*
X84820095Y-66098057D01*
X84820095Y-66098057D02*
X84867714Y-66050438D01*
X84867714Y-66050438D02*
X84962952Y-66002819D01*
X86248666Y-67002819D02*
X85677238Y-67002819D01*
X85962952Y-67002819D02*
X85962952Y-66002819D01*
X85962952Y-66002819D02*
X85867714Y-66145676D01*
X85867714Y-66145676D02*
X85772476Y-66240914D01*
X85772476Y-66240914D02*
X85677238Y-66288533D01*
%TO.C,R108*%
X103528952Y-59636819D02*
X103195619Y-59160628D01*
X102957524Y-59636819D02*
X102957524Y-58636819D01*
X102957524Y-58636819D02*
X103338476Y-58636819D01*
X103338476Y-58636819D02*
X103433714Y-58684438D01*
X103433714Y-58684438D02*
X103481333Y-58732057D01*
X103481333Y-58732057D02*
X103528952Y-58827295D01*
X103528952Y-58827295D02*
X103528952Y-58970152D01*
X103528952Y-58970152D02*
X103481333Y-59065390D01*
X103481333Y-59065390D02*
X103433714Y-59113009D01*
X103433714Y-59113009D02*
X103338476Y-59160628D01*
X103338476Y-59160628D02*
X102957524Y-59160628D01*
X104481333Y-59636819D02*
X103909905Y-59636819D01*
X104195619Y-59636819D02*
X104195619Y-58636819D01*
X104195619Y-58636819D02*
X104100381Y-58779676D01*
X104100381Y-58779676D02*
X104005143Y-58874914D01*
X104005143Y-58874914D02*
X103909905Y-58922533D01*
X105100381Y-58636819D02*
X105195619Y-58636819D01*
X105195619Y-58636819D02*
X105290857Y-58684438D01*
X105290857Y-58684438D02*
X105338476Y-58732057D01*
X105338476Y-58732057D02*
X105386095Y-58827295D01*
X105386095Y-58827295D02*
X105433714Y-59017771D01*
X105433714Y-59017771D02*
X105433714Y-59255866D01*
X105433714Y-59255866D02*
X105386095Y-59446342D01*
X105386095Y-59446342D02*
X105338476Y-59541580D01*
X105338476Y-59541580D02*
X105290857Y-59589200D01*
X105290857Y-59589200D02*
X105195619Y-59636819D01*
X105195619Y-59636819D02*
X105100381Y-59636819D01*
X105100381Y-59636819D02*
X105005143Y-59589200D01*
X105005143Y-59589200D02*
X104957524Y-59541580D01*
X104957524Y-59541580D02*
X104909905Y-59446342D01*
X104909905Y-59446342D02*
X104862286Y-59255866D01*
X104862286Y-59255866D02*
X104862286Y-59017771D01*
X104862286Y-59017771D02*
X104909905Y-58827295D01*
X104909905Y-58827295D02*
X104957524Y-58732057D01*
X104957524Y-58732057D02*
X105005143Y-58684438D01*
X105005143Y-58684438D02*
X105100381Y-58636819D01*
X106005143Y-59065390D02*
X105909905Y-59017771D01*
X105909905Y-59017771D02*
X105862286Y-58970152D01*
X105862286Y-58970152D02*
X105814667Y-58874914D01*
X105814667Y-58874914D02*
X105814667Y-58827295D01*
X105814667Y-58827295D02*
X105862286Y-58732057D01*
X105862286Y-58732057D02*
X105909905Y-58684438D01*
X105909905Y-58684438D02*
X106005143Y-58636819D01*
X106005143Y-58636819D02*
X106195619Y-58636819D01*
X106195619Y-58636819D02*
X106290857Y-58684438D01*
X106290857Y-58684438D02*
X106338476Y-58732057D01*
X106338476Y-58732057D02*
X106386095Y-58827295D01*
X106386095Y-58827295D02*
X106386095Y-58874914D01*
X106386095Y-58874914D02*
X106338476Y-58970152D01*
X106338476Y-58970152D02*
X106290857Y-59017771D01*
X106290857Y-59017771D02*
X106195619Y-59065390D01*
X106195619Y-59065390D02*
X106005143Y-59065390D01*
X106005143Y-59065390D02*
X105909905Y-59113009D01*
X105909905Y-59113009D02*
X105862286Y-59160628D01*
X105862286Y-59160628D02*
X105814667Y-59255866D01*
X105814667Y-59255866D02*
X105814667Y-59446342D01*
X105814667Y-59446342D02*
X105862286Y-59541580D01*
X105862286Y-59541580D02*
X105909905Y-59589200D01*
X105909905Y-59589200D02*
X106005143Y-59636819D01*
X106005143Y-59636819D02*
X106195619Y-59636819D01*
X106195619Y-59636819D02*
X106290857Y-59589200D01*
X106290857Y-59589200D02*
X106338476Y-59541580D01*
X106338476Y-59541580D02*
X106386095Y-59446342D01*
X106386095Y-59446342D02*
X106386095Y-59255866D01*
X106386095Y-59255866D02*
X106338476Y-59160628D01*
X106338476Y-59160628D02*
X106290857Y-59113009D01*
X106290857Y-59113009D02*
X106195619Y-59065390D01*
%TO.C,C111*%
X98530580Y-49506047D02*
X98578200Y-49553666D01*
X98578200Y-49553666D02*
X98625819Y-49696523D01*
X98625819Y-49696523D02*
X98625819Y-49791761D01*
X98625819Y-49791761D02*
X98578200Y-49934618D01*
X98578200Y-49934618D02*
X98482961Y-50029856D01*
X98482961Y-50029856D02*
X98387723Y-50077475D01*
X98387723Y-50077475D02*
X98197247Y-50125094D01*
X98197247Y-50125094D02*
X98054390Y-50125094D01*
X98054390Y-50125094D02*
X97863914Y-50077475D01*
X97863914Y-50077475D02*
X97768676Y-50029856D01*
X97768676Y-50029856D02*
X97673438Y-49934618D01*
X97673438Y-49934618D02*
X97625819Y-49791761D01*
X97625819Y-49791761D02*
X97625819Y-49696523D01*
X97625819Y-49696523D02*
X97673438Y-49553666D01*
X97673438Y-49553666D02*
X97721057Y-49506047D01*
X98625819Y-48553666D02*
X98625819Y-49125094D01*
X98625819Y-48839380D02*
X97625819Y-48839380D01*
X97625819Y-48839380D02*
X97768676Y-48934618D01*
X97768676Y-48934618D02*
X97863914Y-49029856D01*
X97863914Y-49029856D02*
X97911533Y-49125094D01*
X98625819Y-47601285D02*
X98625819Y-48172713D01*
X98625819Y-47886999D02*
X97625819Y-47886999D01*
X97625819Y-47886999D02*
X97768676Y-47982237D01*
X97768676Y-47982237D02*
X97863914Y-48077475D01*
X97863914Y-48077475D02*
X97911533Y-48172713D01*
X98625819Y-46648904D02*
X98625819Y-47220332D01*
X98625819Y-46934618D02*
X97625819Y-46934618D01*
X97625819Y-46934618D02*
X97768676Y-47029856D01*
X97768676Y-47029856D02*
X97863914Y-47125094D01*
X97863914Y-47125094D02*
X97911533Y-47220332D01*
%TO.C,C103*%
X81176952Y-57001580D02*
X81129333Y-57049200D01*
X81129333Y-57049200D02*
X80986476Y-57096819D01*
X80986476Y-57096819D02*
X80891238Y-57096819D01*
X80891238Y-57096819D02*
X80748381Y-57049200D01*
X80748381Y-57049200D02*
X80653143Y-56953961D01*
X80653143Y-56953961D02*
X80605524Y-56858723D01*
X80605524Y-56858723D02*
X80557905Y-56668247D01*
X80557905Y-56668247D02*
X80557905Y-56525390D01*
X80557905Y-56525390D02*
X80605524Y-56334914D01*
X80605524Y-56334914D02*
X80653143Y-56239676D01*
X80653143Y-56239676D02*
X80748381Y-56144438D01*
X80748381Y-56144438D02*
X80891238Y-56096819D01*
X80891238Y-56096819D02*
X80986476Y-56096819D01*
X80986476Y-56096819D02*
X81129333Y-56144438D01*
X81129333Y-56144438D02*
X81176952Y-56192057D01*
X82129333Y-57096819D02*
X81557905Y-57096819D01*
X81843619Y-57096819D02*
X81843619Y-56096819D01*
X81843619Y-56096819D02*
X81748381Y-56239676D01*
X81748381Y-56239676D02*
X81653143Y-56334914D01*
X81653143Y-56334914D02*
X81557905Y-56382533D01*
X82748381Y-56096819D02*
X82843619Y-56096819D01*
X82843619Y-56096819D02*
X82938857Y-56144438D01*
X82938857Y-56144438D02*
X82986476Y-56192057D01*
X82986476Y-56192057D02*
X83034095Y-56287295D01*
X83034095Y-56287295D02*
X83081714Y-56477771D01*
X83081714Y-56477771D02*
X83081714Y-56715866D01*
X83081714Y-56715866D02*
X83034095Y-56906342D01*
X83034095Y-56906342D02*
X82986476Y-57001580D01*
X82986476Y-57001580D02*
X82938857Y-57049200D01*
X82938857Y-57049200D02*
X82843619Y-57096819D01*
X82843619Y-57096819D02*
X82748381Y-57096819D01*
X82748381Y-57096819D02*
X82653143Y-57049200D01*
X82653143Y-57049200D02*
X82605524Y-57001580D01*
X82605524Y-57001580D02*
X82557905Y-56906342D01*
X82557905Y-56906342D02*
X82510286Y-56715866D01*
X82510286Y-56715866D02*
X82510286Y-56477771D01*
X82510286Y-56477771D02*
X82557905Y-56287295D01*
X82557905Y-56287295D02*
X82605524Y-56192057D01*
X82605524Y-56192057D02*
X82653143Y-56144438D01*
X82653143Y-56144438D02*
X82748381Y-56096819D01*
X83415048Y-56096819D02*
X84034095Y-56096819D01*
X84034095Y-56096819D02*
X83700762Y-56477771D01*
X83700762Y-56477771D02*
X83843619Y-56477771D01*
X83843619Y-56477771D02*
X83938857Y-56525390D01*
X83938857Y-56525390D02*
X83986476Y-56573009D01*
X83986476Y-56573009D02*
X84034095Y-56668247D01*
X84034095Y-56668247D02*
X84034095Y-56906342D01*
X84034095Y-56906342D02*
X83986476Y-57001580D01*
X83986476Y-57001580D02*
X83938857Y-57049200D01*
X83938857Y-57049200D02*
X83843619Y-57096819D01*
X83843619Y-57096819D02*
X83557905Y-57096819D01*
X83557905Y-57096819D02*
X83462667Y-57049200D01*
X83462667Y-57049200D02*
X83415048Y-57001580D01*
%TO.C,J108*%
X99501819Y-66436714D02*
X100216104Y-66436714D01*
X100216104Y-66436714D02*
X100358961Y-66484333D01*
X100358961Y-66484333D02*
X100454200Y-66579571D01*
X100454200Y-66579571D02*
X100501819Y-66722428D01*
X100501819Y-66722428D02*
X100501819Y-66817666D01*
X100501819Y-65436714D02*
X100501819Y-66008142D01*
X100501819Y-65722428D02*
X99501819Y-65722428D01*
X99501819Y-65722428D02*
X99644676Y-65817666D01*
X99644676Y-65817666D02*
X99739914Y-65912904D01*
X99739914Y-65912904D02*
X99787533Y-66008142D01*
X99501819Y-64817666D02*
X99501819Y-64722428D01*
X99501819Y-64722428D02*
X99549438Y-64627190D01*
X99549438Y-64627190D02*
X99597057Y-64579571D01*
X99597057Y-64579571D02*
X99692295Y-64531952D01*
X99692295Y-64531952D02*
X99882771Y-64484333D01*
X99882771Y-64484333D02*
X100120866Y-64484333D01*
X100120866Y-64484333D02*
X100311342Y-64531952D01*
X100311342Y-64531952D02*
X100406580Y-64579571D01*
X100406580Y-64579571D02*
X100454200Y-64627190D01*
X100454200Y-64627190D02*
X100501819Y-64722428D01*
X100501819Y-64722428D02*
X100501819Y-64817666D01*
X100501819Y-64817666D02*
X100454200Y-64912904D01*
X100454200Y-64912904D02*
X100406580Y-64960523D01*
X100406580Y-64960523D02*
X100311342Y-65008142D01*
X100311342Y-65008142D02*
X100120866Y-65055761D01*
X100120866Y-65055761D02*
X99882771Y-65055761D01*
X99882771Y-65055761D02*
X99692295Y-65008142D01*
X99692295Y-65008142D02*
X99597057Y-64960523D01*
X99597057Y-64960523D02*
X99549438Y-64912904D01*
X99549438Y-64912904D02*
X99501819Y-64817666D01*
X99930390Y-63912904D02*
X99882771Y-64008142D01*
X99882771Y-64008142D02*
X99835152Y-64055761D01*
X99835152Y-64055761D02*
X99739914Y-64103380D01*
X99739914Y-64103380D02*
X99692295Y-64103380D01*
X99692295Y-64103380D02*
X99597057Y-64055761D01*
X99597057Y-64055761D02*
X99549438Y-64008142D01*
X99549438Y-64008142D02*
X99501819Y-63912904D01*
X99501819Y-63912904D02*
X99501819Y-63722428D01*
X99501819Y-63722428D02*
X99549438Y-63627190D01*
X99549438Y-63627190D02*
X99597057Y-63579571D01*
X99597057Y-63579571D02*
X99692295Y-63531952D01*
X99692295Y-63531952D02*
X99739914Y-63531952D01*
X99739914Y-63531952D02*
X99835152Y-63579571D01*
X99835152Y-63579571D02*
X99882771Y-63627190D01*
X99882771Y-63627190D02*
X99930390Y-63722428D01*
X99930390Y-63722428D02*
X99930390Y-63912904D01*
X99930390Y-63912904D02*
X99978009Y-64008142D01*
X99978009Y-64008142D02*
X100025628Y-64055761D01*
X100025628Y-64055761D02*
X100120866Y-64103380D01*
X100120866Y-64103380D02*
X100311342Y-64103380D01*
X100311342Y-64103380D02*
X100406580Y-64055761D01*
X100406580Y-64055761D02*
X100454200Y-64008142D01*
X100454200Y-64008142D02*
X100501819Y-63912904D01*
X100501819Y-63912904D02*
X100501819Y-63722428D01*
X100501819Y-63722428D02*
X100454200Y-63627190D01*
X100454200Y-63627190D02*
X100406580Y-63579571D01*
X100406580Y-63579571D02*
X100311342Y-63531952D01*
X100311342Y-63531952D02*
X100120866Y-63531952D01*
X100120866Y-63531952D02*
X100025628Y-63579571D01*
X100025628Y-63579571D02*
X99978009Y-63627190D01*
X99978009Y-63627190D02*
X99930390Y-63722428D01*
%TO.C,C101*%
X84679452Y-56866976D02*
X84612108Y-56866976D01*
X84612108Y-56866976D02*
X84477421Y-56799632D01*
X84477421Y-56799632D02*
X84410078Y-56732289D01*
X84410078Y-56732289D02*
X84342734Y-56597602D01*
X84342734Y-56597602D02*
X84342734Y-56462915D01*
X84342734Y-56462915D02*
X84376406Y-56361900D01*
X84376406Y-56361900D02*
X84477421Y-56193541D01*
X84477421Y-56193541D02*
X84578436Y-56092525D01*
X84578436Y-56092525D02*
X84746795Y-55991510D01*
X84746795Y-55991510D02*
X84847810Y-55957838D01*
X84847810Y-55957838D02*
X84982497Y-55957838D01*
X84982497Y-55957838D02*
X85117184Y-56025182D01*
X85117184Y-56025182D02*
X85184528Y-56092525D01*
X85184528Y-56092525D02*
X85251871Y-56227212D01*
X85251871Y-56227212D02*
X85251871Y-56294556D01*
X85285543Y-57607754D02*
X84881482Y-57203693D01*
X85083513Y-57405724D02*
X85790619Y-56698617D01*
X85790619Y-56698617D02*
X85622261Y-56732289D01*
X85622261Y-56732289D02*
X85487574Y-56732289D01*
X85487574Y-56732289D02*
X85386558Y-56698617D01*
X86430383Y-57338380D02*
X86497726Y-57405724D01*
X86497726Y-57405724D02*
X86531398Y-57506739D01*
X86531398Y-57506739D02*
X86531398Y-57574083D01*
X86531398Y-57574083D02*
X86497726Y-57675098D01*
X86497726Y-57675098D02*
X86396711Y-57843457D01*
X86396711Y-57843457D02*
X86228352Y-58011815D01*
X86228352Y-58011815D02*
X86059993Y-58112831D01*
X86059993Y-58112831D02*
X85958978Y-58146502D01*
X85958978Y-58146502D02*
X85891635Y-58146502D01*
X85891635Y-58146502D02*
X85790619Y-58112831D01*
X85790619Y-58112831D02*
X85723276Y-58045487D01*
X85723276Y-58045487D02*
X85689604Y-57944472D01*
X85689604Y-57944472D02*
X85689604Y-57877128D01*
X85689604Y-57877128D02*
X85723276Y-57776113D01*
X85723276Y-57776113D02*
X85824291Y-57607754D01*
X85824291Y-57607754D02*
X85992650Y-57439396D01*
X85992650Y-57439396D02*
X86161009Y-57338380D01*
X86161009Y-57338380D02*
X86262024Y-57304709D01*
X86262024Y-57304709D02*
X86329367Y-57304709D01*
X86329367Y-57304709D02*
X86430383Y-57338380D01*
X86632413Y-58954624D02*
X86228352Y-58550563D01*
X86430383Y-58752594D02*
X87137489Y-58045487D01*
X87137489Y-58045487D02*
X86969131Y-58079159D01*
X86969131Y-58079159D02*
X86834444Y-58079159D01*
X86834444Y-58079159D02*
X86733428Y-58045487D01*
%TO.C,R107*%
X64920952Y-44522819D02*
X64587619Y-44046628D01*
X64349524Y-44522819D02*
X64349524Y-43522819D01*
X64349524Y-43522819D02*
X64730476Y-43522819D01*
X64730476Y-43522819D02*
X64825714Y-43570438D01*
X64825714Y-43570438D02*
X64873333Y-43618057D01*
X64873333Y-43618057D02*
X64920952Y-43713295D01*
X64920952Y-43713295D02*
X64920952Y-43856152D01*
X64920952Y-43856152D02*
X64873333Y-43951390D01*
X64873333Y-43951390D02*
X64825714Y-43999009D01*
X64825714Y-43999009D02*
X64730476Y-44046628D01*
X64730476Y-44046628D02*
X64349524Y-44046628D01*
X65873333Y-44522819D02*
X65301905Y-44522819D01*
X65587619Y-44522819D02*
X65587619Y-43522819D01*
X65587619Y-43522819D02*
X65492381Y-43665676D01*
X65492381Y-43665676D02*
X65397143Y-43760914D01*
X65397143Y-43760914D02*
X65301905Y-43808533D01*
X66492381Y-43522819D02*
X66587619Y-43522819D01*
X66587619Y-43522819D02*
X66682857Y-43570438D01*
X66682857Y-43570438D02*
X66730476Y-43618057D01*
X66730476Y-43618057D02*
X66778095Y-43713295D01*
X66778095Y-43713295D02*
X66825714Y-43903771D01*
X66825714Y-43903771D02*
X66825714Y-44141866D01*
X66825714Y-44141866D02*
X66778095Y-44332342D01*
X66778095Y-44332342D02*
X66730476Y-44427580D01*
X66730476Y-44427580D02*
X66682857Y-44475200D01*
X66682857Y-44475200D02*
X66587619Y-44522819D01*
X66587619Y-44522819D02*
X66492381Y-44522819D01*
X66492381Y-44522819D02*
X66397143Y-44475200D01*
X66397143Y-44475200D02*
X66349524Y-44427580D01*
X66349524Y-44427580D02*
X66301905Y-44332342D01*
X66301905Y-44332342D02*
X66254286Y-44141866D01*
X66254286Y-44141866D02*
X66254286Y-43903771D01*
X66254286Y-43903771D02*
X66301905Y-43713295D01*
X66301905Y-43713295D02*
X66349524Y-43618057D01*
X66349524Y-43618057D02*
X66397143Y-43570438D01*
X66397143Y-43570438D02*
X66492381Y-43522819D01*
X67159048Y-43522819D02*
X67825714Y-43522819D01*
X67825714Y-43522819D02*
X67397143Y-44522819D01*
%TO.C,R105*%
X74445952Y-48808819D02*
X74112619Y-48332628D01*
X73874524Y-48808819D02*
X73874524Y-47808819D01*
X73874524Y-47808819D02*
X74255476Y-47808819D01*
X74255476Y-47808819D02*
X74350714Y-47856438D01*
X74350714Y-47856438D02*
X74398333Y-47904057D01*
X74398333Y-47904057D02*
X74445952Y-47999295D01*
X74445952Y-47999295D02*
X74445952Y-48142152D01*
X74445952Y-48142152D02*
X74398333Y-48237390D01*
X74398333Y-48237390D02*
X74350714Y-48285009D01*
X74350714Y-48285009D02*
X74255476Y-48332628D01*
X74255476Y-48332628D02*
X73874524Y-48332628D01*
X75398333Y-48808819D02*
X74826905Y-48808819D01*
X75112619Y-48808819D02*
X75112619Y-47808819D01*
X75112619Y-47808819D02*
X75017381Y-47951676D01*
X75017381Y-47951676D02*
X74922143Y-48046914D01*
X74922143Y-48046914D02*
X74826905Y-48094533D01*
X76017381Y-47808819D02*
X76112619Y-47808819D01*
X76112619Y-47808819D02*
X76207857Y-47856438D01*
X76207857Y-47856438D02*
X76255476Y-47904057D01*
X76255476Y-47904057D02*
X76303095Y-47999295D01*
X76303095Y-47999295D02*
X76350714Y-48189771D01*
X76350714Y-48189771D02*
X76350714Y-48427866D01*
X76350714Y-48427866D02*
X76303095Y-48618342D01*
X76303095Y-48618342D02*
X76255476Y-48713580D01*
X76255476Y-48713580D02*
X76207857Y-48761200D01*
X76207857Y-48761200D02*
X76112619Y-48808819D01*
X76112619Y-48808819D02*
X76017381Y-48808819D01*
X76017381Y-48808819D02*
X75922143Y-48761200D01*
X75922143Y-48761200D02*
X75874524Y-48713580D01*
X75874524Y-48713580D02*
X75826905Y-48618342D01*
X75826905Y-48618342D02*
X75779286Y-48427866D01*
X75779286Y-48427866D02*
X75779286Y-48189771D01*
X75779286Y-48189771D02*
X75826905Y-47999295D01*
X75826905Y-47999295D02*
X75874524Y-47904057D01*
X75874524Y-47904057D02*
X75922143Y-47856438D01*
X75922143Y-47856438D02*
X76017381Y-47808819D01*
X77255476Y-47808819D02*
X76779286Y-47808819D01*
X76779286Y-47808819D02*
X76731667Y-48285009D01*
X76731667Y-48285009D02*
X76779286Y-48237390D01*
X76779286Y-48237390D02*
X76874524Y-48189771D01*
X76874524Y-48189771D02*
X77112619Y-48189771D01*
X77112619Y-48189771D02*
X77207857Y-48237390D01*
X77207857Y-48237390D02*
X77255476Y-48285009D01*
X77255476Y-48285009D02*
X77303095Y-48380247D01*
X77303095Y-48380247D02*
X77303095Y-48618342D01*
X77303095Y-48618342D02*
X77255476Y-48713580D01*
X77255476Y-48713580D02*
X77207857Y-48761200D01*
X77207857Y-48761200D02*
X77112619Y-48808819D01*
X77112619Y-48808819D02*
X76874524Y-48808819D01*
X76874524Y-48808819D02*
X76779286Y-48761200D01*
X76779286Y-48761200D02*
X76731667Y-48713580D01*
%TO.C,C118*%
X76604952Y-47095580D02*
X76557333Y-47143200D01*
X76557333Y-47143200D02*
X76414476Y-47190819D01*
X76414476Y-47190819D02*
X76319238Y-47190819D01*
X76319238Y-47190819D02*
X76176381Y-47143200D01*
X76176381Y-47143200D02*
X76081143Y-47047961D01*
X76081143Y-47047961D02*
X76033524Y-46952723D01*
X76033524Y-46952723D02*
X75985905Y-46762247D01*
X75985905Y-46762247D02*
X75985905Y-46619390D01*
X75985905Y-46619390D02*
X76033524Y-46428914D01*
X76033524Y-46428914D02*
X76081143Y-46333676D01*
X76081143Y-46333676D02*
X76176381Y-46238438D01*
X76176381Y-46238438D02*
X76319238Y-46190819D01*
X76319238Y-46190819D02*
X76414476Y-46190819D01*
X76414476Y-46190819D02*
X76557333Y-46238438D01*
X76557333Y-46238438D02*
X76604952Y-46286057D01*
X77557333Y-47190819D02*
X76985905Y-47190819D01*
X77271619Y-47190819D02*
X77271619Y-46190819D01*
X77271619Y-46190819D02*
X77176381Y-46333676D01*
X77176381Y-46333676D02*
X77081143Y-46428914D01*
X77081143Y-46428914D02*
X76985905Y-46476533D01*
X78509714Y-47190819D02*
X77938286Y-47190819D01*
X78224000Y-47190819D02*
X78224000Y-46190819D01*
X78224000Y-46190819D02*
X78128762Y-46333676D01*
X78128762Y-46333676D02*
X78033524Y-46428914D01*
X78033524Y-46428914D02*
X77938286Y-46476533D01*
X79081143Y-46619390D02*
X78985905Y-46571771D01*
X78985905Y-46571771D02*
X78938286Y-46524152D01*
X78938286Y-46524152D02*
X78890667Y-46428914D01*
X78890667Y-46428914D02*
X78890667Y-46381295D01*
X78890667Y-46381295D02*
X78938286Y-46286057D01*
X78938286Y-46286057D02*
X78985905Y-46238438D01*
X78985905Y-46238438D02*
X79081143Y-46190819D01*
X79081143Y-46190819D02*
X79271619Y-46190819D01*
X79271619Y-46190819D02*
X79366857Y-46238438D01*
X79366857Y-46238438D02*
X79414476Y-46286057D01*
X79414476Y-46286057D02*
X79462095Y-46381295D01*
X79462095Y-46381295D02*
X79462095Y-46428914D01*
X79462095Y-46428914D02*
X79414476Y-46524152D01*
X79414476Y-46524152D02*
X79366857Y-46571771D01*
X79366857Y-46571771D02*
X79271619Y-46619390D01*
X79271619Y-46619390D02*
X79081143Y-46619390D01*
X79081143Y-46619390D02*
X78985905Y-46667009D01*
X78985905Y-46667009D02*
X78938286Y-46714628D01*
X78938286Y-46714628D02*
X78890667Y-46809866D01*
X78890667Y-46809866D02*
X78890667Y-47000342D01*
X78890667Y-47000342D02*
X78938286Y-47095580D01*
X78938286Y-47095580D02*
X78985905Y-47143200D01*
X78985905Y-47143200D02*
X79081143Y-47190819D01*
X79081143Y-47190819D02*
X79271619Y-47190819D01*
X79271619Y-47190819D02*
X79366857Y-47143200D01*
X79366857Y-47143200D02*
X79414476Y-47095580D01*
X79414476Y-47095580D02*
X79462095Y-47000342D01*
X79462095Y-47000342D02*
X79462095Y-46809866D01*
X79462095Y-46809866D02*
X79414476Y-46714628D01*
X79414476Y-46714628D02*
X79366857Y-46667009D01*
X79366857Y-46667009D02*
X79271619Y-46619390D01*
%TO.C,C106*%
X81303952Y-60270580D02*
X81256333Y-60318200D01*
X81256333Y-60318200D02*
X81113476Y-60365819D01*
X81113476Y-60365819D02*
X81018238Y-60365819D01*
X81018238Y-60365819D02*
X80875381Y-60318200D01*
X80875381Y-60318200D02*
X80780143Y-60222961D01*
X80780143Y-60222961D02*
X80732524Y-60127723D01*
X80732524Y-60127723D02*
X80684905Y-59937247D01*
X80684905Y-59937247D02*
X80684905Y-59794390D01*
X80684905Y-59794390D02*
X80732524Y-59603914D01*
X80732524Y-59603914D02*
X80780143Y-59508676D01*
X80780143Y-59508676D02*
X80875381Y-59413438D01*
X80875381Y-59413438D02*
X81018238Y-59365819D01*
X81018238Y-59365819D02*
X81113476Y-59365819D01*
X81113476Y-59365819D02*
X81256333Y-59413438D01*
X81256333Y-59413438D02*
X81303952Y-59461057D01*
X82256333Y-60365819D02*
X81684905Y-60365819D01*
X81970619Y-60365819D02*
X81970619Y-59365819D01*
X81970619Y-59365819D02*
X81875381Y-59508676D01*
X81875381Y-59508676D02*
X81780143Y-59603914D01*
X81780143Y-59603914D02*
X81684905Y-59651533D01*
X82875381Y-59365819D02*
X82970619Y-59365819D01*
X82970619Y-59365819D02*
X83065857Y-59413438D01*
X83065857Y-59413438D02*
X83113476Y-59461057D01*
X83113476Y-59461057D02*
X83161095Y-59556295D01*
X83161095Y-59556295D02*
X83208714Y-59746771D01*
X83208714Y-59746771D02*
X83208714Y-59984866D01*
X83208714Y-59984866D02*
X83161095Y-60175342D01*
X83161095Y-60175342D02*
X83113476Y-60270580D01*
X83113476Y-60270580D02*
X83065857Y-60318200D01*
X83065857Y-60318200D02*
X82970619Y-60365819D01*
X82970619Y-60365819D02*
X82875381Y-60365819D01*
X82875381Y-60365819D02*
X82780143Y-60318200D01*
X82780143Y-60318200D02*
X82732524Y-60270580D01*
X82732524Y-60270580D02*
X82684905Y-60175342D01*
X82684905Y-60175342D02*
X82637286Y-59984866D01*
X82637286Y-59984866D02*
X82637286Y-59746771D01*
X82637286Y-59746771D02*
X82684905Y-59556295D01*
X82684905Y-59556295D02*
X82732524Y-59461057D01*
X82732524Y-59461057D02*
X82780143Y-59413438D01*
X82780143Y-59413438D02*
X82875381Y-59365819D01*
X84065857Y-59365819D02*
X83875381Y-59365819D01*
X83875381Y-59365819D02*
X83780143Y-59413438D01*
X83780143Y-59413438D02*
X83732524Y-59461057D01*
X83732524Y-59461057D02*
X83637286Y-59603914D01*
X83637286Y-59603914D02*
X83589667Y-59794390D01*
X83589667Y-59794390D02*
X83589667Y-60175342D01*
X83589667Y-60175342D02*
X83637286Y-60270580D01*
X83637286Y-60270580D02*
X83684905Y-60318200D01*
X83684905Y-60318200D02*
X83780143Y-60365819D01*
X83780143Y-60365819D02*
X83970619Y-60365819D01*
X83970619Y-60365819D02*
X84065857Y-60318200D01*
X84065857Y-60318200D02*
X84113476Y-60270580D01*
X84113476Y-60270580D02*
X84161095Y-60175342D01*
X84161095Y-60175342D02*
X84161095Y-59937247D01*
X84161095Y-59937247D02*
X84113476Y-59842009D01*
X84113476Y-59842009D02*
X84065857Y-59794390D01*
X84065857Y-59794390D02*
X83970619Y-59746771D01*
X83970619Y-59746771D02*
X83780143Y-59746771D01*
X83780143Y-59746771D02*
X83684905Y-59794390D01*
X83684905Y-59794390D02*
X83637286Y-59842009D01*
X83637286Y-59842009D02*
X83589667Y-59937247D01*
%TO.C,R114*%
X110132952Y-58620819D02*
X109799619Y-58144628D01*
X109561524Y-58620819D02*
X109561524Y-57620819D01*
X109561524Y-57620819D02*
X109942476Y-57620819D01*
X109942476Y-57620819D02*
X110037714Y-57668438D01*
X110037714Y-57668438D02*
X110085333Y-57716057D01*
X110085333Y-57716057D02*
X110132952Y-57811295D01*
X110132952Y-57811295D02*
X110132952Y-57954152D01*
X110132952Y-57954152D02*
X110085333Y-58049390D01*
X110085333Y-58049390D02*
X110037714Y-58097009D01*
X110037714Y-58097009D02*
X109942476Y-58144628D01*
X109942476Y-58144628D02*
X109561524Y-58144628D01*
X111085333Y-58620819D02*
X110513905Y-58620819D01*
X110799619Y-58620819D02*
X110799619Y-57620819D01*
X110799619Y-57620819D02*
X110704381Y-57763676D01*
X110704381Y-57763676D02*
X110609143Y-57858914D01*
X110609143Y-57858914D02*
X110513905Y-57906533D01*
X112037714Y-58620819D02*
X111466286Y-58620819D01*
X111752000Y-58620819D02*
X111752000Y-57620819D01*
X111752000Y-57620819D02*
X111656762Y-57763676D01*
X111656762Y-57763676D02*
X111561524Y-57858914D01*
X111561524Y-57858914D02*
X111466286Y-57906533D01*
X112894857Y-57954152D02*
X112894857Y-58620819D01*
X112656762Y-57573200D02*
X112418667Y-58287485D01*
X112418667Y-58287485D02*
X113037714Y-58287485D01*
%TO.C,FB103*%
X99560285Y-48699009D02*
X99226952Y-48699009D01*
X99226952Y-49222819D02*
X99226952Y-48222819D01*
X99226952Y-48222819D02*
X99703142Y-48222819D01*
X100417428Y-48699009D02*
X100560285Y-48746628D01*
X100560285Y-48746628D02*
X100607904Y-48794247D01*
X100607904Y-48794247D02*
X100655523Y-48889485D01*
X100655523Y-48889485D02*
X100655523Y-49032342D01*
X100655523Y-49032342D02*
X100607904Y-49127580D01*
X100607904Y-49127580D02*
X100560285Y-49175200D01*
X100560285Y-49175200D02*
X100465047Y-49222819D01*
X100465047Y-49222819D02*
X100084095Y-49222819D01*
X100084095Y-49222819D02*
X100084095Y-48222819D01*
X100084095Y-48222819D02*
X100417428Y-48222819D01*
X100417428Y-48222819D02*
X100512666Y-48270438D01*
X100512666Y-48270438D02*
X100560285Y-48318057D01*
X100560285Y-48318057D02*
X100607904Y-48413295D01*
X100607904Y-48413295D02*
X100607904Y-48508533D01*
X100607904Y-48508533D02*
X100560285Y-48603771D01*
X100560285Y-48603771D02*
X100512666Y-48651390D01*
X100512666Y-48651390D02*
X100417428Y-48699009D01*
X100417428Y-48699009D02*
X100084095Y-48699009D01*
X101607904Y-49222819D02*
X101036476Y-49222819D01*
X101322190Y-49222819D02*
X101322190Y-48222819D01*
X101322190Y-48222819D02*
X101226952Y-48365676D01*
X101226952Y-48365676D02*
X101131714Y-48460914D01*
X101131714Y-48460914D02*
X101036476Y-48508533D01*
X102226952Y-48222819D02*
X102322190Y-48222819D01*
X102322190Y-48222819D02*
X102417428Y-48270438D01*
X102417428Y-48270438D02*
X102465047Y-48318057D01*
X102465047Y-48318057D02*
X102512666Y-48413295D01*
X102512666Y-48413295D02*
X102560285Y-48603771D01*
X102560285Y-48603771D02*
X102560285Y-48841866D01*
X102560285Y-48841866D02*
X102512666Y-49032342D01*
X102512666Y-49032342D02*
X102465047Y-49127580D01*
X102465047Y-49127580D02*
X102417428Y-49175200D01*
X102417428Y-49175200D02*
X102322190Y-49222819D01*
X102322190Y-49222819D02*
X102226952Y-49222819D01*
X102226952Y-49222819D02*
X102131714Y-49175200D01*
X102131714Y-49175200D02*
X102084095Y-49127580D01*
X102084095Y-49127580D02*
X102036476Y-49032342D01*
X102036476Y-49032342D02*
X101988857Y-48841866D01*
X101988857Y-48841866D02*
X101988857Y-48603771D01*
X101988857Y-48603771D02*
X102036476Y-48413295D01*
X102036476Y-48413295D02*
X102084095Y-48318057D01*
X102084095Y-48318057D02*
X102131714Y-48270438D01*
X102131714Y-48270438D02*
X102226952Y-48222819D01*
X102893619Y-48222819D02*
X103512666Y-48222819D01*
X103512666Y-48222819D02*
X103179333Y-48603771D01*
X103179333Y-48603771D02*
X103322190Y-48603771D01*
X103322190Y-48603771D02*
X103417428Y-48651390D01*
X103417428Y-48651390D02*
X103465047Y-48699009D01*
X103465047Y-48699009D02*
X103512666Y-48794247D01*
X103512666Y-48794247D02*
X103512666Y-49032342D01*
X103512666Y-49032342D02*
X103465047Y-49127580D01*
X103465047Y-49127580D02*
X103417428Y-49175200D01*
X103417428Y-49175200D02*
X103322190Y-49222819D01*
X103322190Y-49222819D02*
X103036476Y-49222819D01*
X103036476Y-49222819D02*
X102941238Y-49175200D01*
X102941238Y-49175200D02*
X102893619Y-49127580D01*
%TO.C,C108*%
X85113952Y-60270580D02*
X85066333Y-60318200D01*
X85066333Y-60318200D02*
X84923476Y-60365819D01*
X84923476Y-60365819D02*
X84828238Y-60365819D01*
X84828238Y-60365819D02*
X84685381Y-60318200D01*
X84685381Y-60318200D02*
X84590143Y-60222961D01*
X84590143Y-60222961D02*
X84542524Y-60127723D01*
X84542524Y-60127723D02*
X84494905Y-59937247D01*
X84494905Y-59937247D02*
X84494905Y-59794390D01*
X84494905Y-59794390D02*
X84542524Y-59603914D01*
X84542524Y-59603914D02*
X84590143Y-59508676D01*
X84590143Y-59508676D02*
X84685381Y-59413438D01*
X84685381Y-59413438D02*
X84828238Y-59365819D01*
X84828238Y-59365819D02*
X84923476Y-59365819D01*
X84923476Y-59365819D02*
X85066333Y-59413438D01*
X85066333Y-59413438D02*
X85113952Y-59461057D01*
X86066333Y-60365819D02*
X85494905Y-60365819D01*
X85780619Y-60365819D02*
X85780619Y-59365819D01*
X85780619Y-59365819D02*
X85685381Y-59508676D01*
X85685381Y-59508676D02*
X85590143Y-59603914D01*
X85590143Y-59603914D02*
X85494905Y-59651533D01*
X86685381Y-59365819D02*
X86780619Y-59365819D01*
X86780619Y-59365819D02*
X86875857Y-59413438D01*
X86875857Y-59413438D02*
X86923476Y-59461057D01*
X86923476Y-59461057D02*
X86971095Y-59556295D01*
X86971095Y-59556295D02*
X87018714Y-59746771D01*
X87018714Y-59746771D02*
X87018714Y-59984866D01*
X87018714Y-59984866D02*
X86971095Y-60175342D01*
X86971095Y-60175342D02*
X86923476Y-60270580D01*
X86923476Y-60270580D02*
X86875857Y-60318200D01*
X86875857Y-60318200D02*
X86780619Y-60365819D01*
X86780619Y-60365819D02*
X86685381Y-60365819D01*
X86685381Y-60365819D02*
X86590143Y-60318200D01*
X86590143Y-60318200D02*
X86542524Y-60270580D01*
X86542524Y-60270580D02*
X86494905Y-60175342D01*
X86494905Y-60175342D02*
X86447286Y-59984866D01*
X86447286Y-59984866D02*
X86447286Y-59746771D01*
X86447286Y-59746771D02*
X86494905Y-59556295D01*
X86494905Y-59556295D02*
X86542524Y-59461057D01*
X86542524Y-59461057D02*
X86590143Y-59413438D01*
X86590143Y-59413438D02*
X86685381Y-59365819D01*
X87590143Y-59794390D02*
X87494905Y-59746771D01*
X87494905Y-59746771D02*
X87447286Y-59699152D01*
X87447286Y-59699152D02*
X87399667Y-59603914D01*
X87399667Y-59603914D02*
X87399667Y-59556295D01*
X87399667Y-59556295D02*
X87447286Y-59461057D01*
X87447286Y-59461057D02*
X87494905Y-59413438D01*
X87494905Y-59413438D02*
X87590143Y-59365819D01*
X87590143Y-59365819D02*
X87780619Y-59365819D01*
X87780619Y-59365819D02*
X87875857Y-59413438D01*
X87875857Y-59413438D02*
X87923476Y-59461057D01*
X87923476Y-59461057D02*
X87971095Y-59556295D01*
X87971095Y-59556295D02*
X87971095Y-59603914D01*
X87971095Y-59603914D02*
X87923476Y-59699152D01*
X87923476Y-59699152D02*
X87875857Y-59746771D01*
X87875857Y-59746771D02*
X87780619Y-59794390D01*
X87780619Y-59794390D02*
X87590143Y-59794390D01*
X87590143Y-59794390D02*
X87494905Y-59842009D01*
X87494905Y-59842009D02*
X87447286Y-59889628D01*
X87447286Y-59889628D02*
X87399667Y-59984866D01*
X87399667Y-59984866D02*
X87399667Y-60175342D01*
X87399667Y-60175342D02*
X87447286Y-60270580D01*
X87447286Y-60270580D02*
X87494905Y-60318200D01*
X87494905Y-60318200D02*
X87590143Y-60365819D01*
X87590143Y-60365819D02*
X87780619Y-60365819D01*
X87780619Y-60365819D02*
X87875857Y-60318200D01*
X87875857Y-60318200D02*
X87923476Y-60270580D01*
X87923476Y-60270580D02*
X87971095Y-60175342D01*
X87971095Y-60175342D02*
X87971095Y-59984866D01*
X87971095Y-59984866D02*
X87923476Y-59889628D01*
X87923476Y-59889628D02*
X87875857Y-59842009D01*
X87875857Y-59842009D02*
X87780619Y-59794390D01*
D11*
%TO.C,D103*%
X109592000Y-52605000D02*
X109592000Y-54075000D01*
X112052000Y-52605000D02*
X109592000Y-52605000D01*
X109592000Y-54075000D02*
X112052000Y-54075000D01*
%TO.C,U101*%
X97409000Y-57495000D02*
X96609000Y-57495000D01*
X97409000Y-60615000D02*
X96609000Y-60615000D01*
X97409000Y-60615000D02*
X99209000Y-60615000D01*
X97409000Y-57495000D02*
X98209000Y-57495000D01*
%TO.C,D101*%
X65113000Y-41248000D02*
X67573000Y-41248000D01*
X67573000Y-39778000D02*
X65113000Y-39778000D01*
X67573000Y-41248000D02*
X67573000Y-39778000D01*
%TO.C,C120*%
X101084748Y-51970000D02*
X101607252Y-51970000D01*
X101084748Y-53440000D02*
X101607252Y-53440000D01*
%TO.C,C115*%
X83314000Y-51073267D02*
X83314000Y-50780733D01*
X82294000Y-51073267D02*
X82294000Y-50780733D01*
D10*
%TO.C,J101*%
X72976000Y-46335000D02*
X63676000Y-46335000D01*
X63676000Y-46335000D02*
X63676000Y-56535000D01*
X63676000Y-56535000D02*
X72976000Y-56535000D01*
X72976000Y-56535000D02*
X72976000Y-46335000D01*
D11*
%TO.C,C114*%
X89808267Y-60831000D02*
X89515733Y-60831000D01*
X89808267Y-61851000D02*
X89515733Y-61851000D01*
%TO.C,R102*%
X100737936Y-56869000D02*
X101192064Y-56869000D01*
X100737936Y-55399000D02*
X101192064Y-55399000D01*
%TO.C,C117*%
X104650000Y-54590733D02*
X104650000Y-54883267D01*
X103630000Y-54590733D02*
X103630000Y-54883267D01*
%TO.C,D102*%
X112179000Y-61876000D02*
X109719000Y-61876000D01*
X109719000Y-61876000D02*
X109719000Y-63346000D01*
X109719000Y-63346000D02*
X112179000Y-63346000D01*
%TO.C,C102*%
X97262733Y-62355000D02*
X97555267Y-62355000D01*
X97262733Y-63375000D02*
X97555267Y-63375000D01*
%TO.C,R103*%
X97181936Y-67283000D02*
X97636064Y-67283000D01*
X97181936Y-65813000D02*
X97636064Y-65813000D01*
%TO.C,R106*%
X75310276Y-51957500D02*
X75819724Y-51957500D01*
X75310276Y-50912500D02*
X75819724Y-50912500D01*
%TO.C,U102*%
X96418311Y-52197000D02*
X96100113Y-52515198D01*
X86525887Y-52515198D02*
X86207689Y-52197000D01*
X91631198Y-56984113D02*
X92543366Y-57896281D01*
X90994802Y-56984113D02*
X91313000Y-57302311D01*
X91631198Y-47409887D02*
X91313000Y-47091689D01*
X91313000Y-57302311D02*
X91631198Y-56984113D01*
X96100113Y-51878802D02*
X96418311Y-52197000D01*
X86207689Y-52197000D02*
X86525887Y-51878802D01*
X91313000Y-47091689D02*
X90994802Y-47409887D01*
%TO.C,R104*%
X93117936Y-60352000D02*
X93572064Y-60352000D01*
X93117936Y-61822000D02*
X93572064Y-61822000D01*
%TO.C,Y101*%
X77628000Y-67447000D02*
X90228000Y-67447000D01*
X90228000Y-62347000D02*
X77628000Y-62347000D01*
X77628000Y-62347000D02*
X77628000Y-67447000D01*
%TO.C,R108*%
X100992000Y-58827936D02*
X100992000Y-59282064D01*
X102462000Y-58827936D02*
X102462000Y-59282064D01*
%TO.C,C111*%
X98808000Y-52216267D02*
X98808000Y-51923733D01*
X97788000Y-52216267D02*
X97788000Y-51923733D01*
D10*
%TO.C,SW101*%
X65657000Y-65409000D02*
X71707000Y-65409000D01*
X71707000Y-65409000D02*
X71707000Y-59509000D01*
X71707000Y-59509000D02*
X65657000Y-59509000D01*
X65657000Y-59509000D02*
X65657000Y-65409000D01*
D11*
%TO.C,C103*%
X82403733Y-57529000D02*
X82696267Y-57529000D01*
X82403733Y-58549000D02*
X82696267Y-58549000D01*
%TO.C,J108*%
X108787000Y-66481000D02*
X108787000Y-63821000D01*
X103647000Y-66481000D02*
X108787000Y-66481000D01*
X103647000Y-66481000D02*
X103647000Y-63821000D01*
X102377000Y-66481000D02*
X101047000Y-66481000D01*
X101047000Y-66481000D02*
X101047000Y-65151000D01*
X103647000Y-63821000D02*
X108787000Y-63821000D01*
%TO.C,C101*%
X86363198Y-55288949D02*
X86570051Y-55495802D01*
X85641949Y-56010198D02*
X85848802Y-56217051D01*
%TO.C,R107*%
X66267064Y-43153000D02*
X65812936Y-43153000D01*
X66267064Y-41683000D02*
X65812936Y-41683000D01*
%TO.C,R105*%
X75310276Y-49261500D02*
X75819724Y-49261500D01*
X75310276Y-50306500D02*
X75819724Y-50306500D01*
%TO.C,C118*%
X77878000Y-49664252D02*
X77878000Y-49141748D01*
X79348000Y-49664252D02*
X79348000Y-49141748D01*
%TO.C,D104*%
X109719000Y-66902000D02*
X112179000Y-66902000D01*
X112179000Y-65432000D02*
X109719000Y-65432000D01*
X109719000Y-65432000D02*
X109719000Y-66902000D01*
%TO.C,C106*%
X82403733Y-60831000D02*
X82696267Y-60831000D01*
X82403733Y-61851000D02*
X82696267Y-61851000D01*
%TO.C,R114*%
X111024936Y-57250000D02*
X111479064Y-57250000D01*
X111024936Y-55780000D02*
X111479064Y-55780000D01*
%TO.C,FB103*%
X101607252Y-49709000D02*
X101084748Y-49709000D01*
X101607252Y-51129000D02*
X101084748Y-51129000D01*
%TO.C,C108*%
X86086733Y-61851000D02*
X86379267Y-61851000D01*
X86086733Y-60831000D02*
X86379267Y-60831000D01*
%TD*%
%LPC*%
D12*
%TO.C,D103*%
X110377000Y-53340000D03*
X112127000Y-53340000D03*
%TD*%
D13*
%TO.C,U101*%
X98546500Y-60005000D03*
X98546500Y-59055000D03*
X98546500Y-58105000D03*
X96271500Y-58105000D03*
X96271500Y-59055000D03*
X96271500Y-60005000D03*
%TD*%
D14*
%TO.C,D101*%
X66788000Y-40513000D03*
X65038000Y-40513000D03*
%TD*%
D15*
%TO.C,C120*%
X100308500Y-52705000D03*
X102383500Y-52705000D03*
%TD*%
D16*
%TO.C,C115*%
X82804000Y-51789500D03*
X82804000Y-50064500D03*
%TD*%
D17*
%TO.C,J101*%
X71976000Y-49795000D03*
X70776000Y-50595000D03*
X71976000Y-51395000D03*
X70776000Y-52195000D03*
X71976000Y-52995000D03*
D18*
X71076000Y-47595000D03*
X71076000Y-55195000D03*
X66276000Y-55195000D03*
X66276000Y-47595000D03*
%TD*%
D19*
%TO.C,C114*%
X90524500Y-61341000D03*
X88799500Y-61341000D03*
%TD*%
D20*
%TO.C,R102*%
X99965000Y-56134000D03*
X101965000Y-56134000D03*
%TD*%
D21*
%TO.C,C117*%
X104140000Y-53874500D03*
X104140000Y-55599500D03*
%TD*%
D12*
%TO.C,D102*%
X110504000Y-62611000D03*
X112254000Y-62611000D03*
%TD*%
D22*
%TO.C,C102*%
X96546500Y-62865000D03*
X98271500Y-62865000D03*
%TD*%
D20*
%TO.C,R103*%
X96409000Y-66548000D03*
X98409000Y-66548000D03*
%TD*%
D23*
%TO.C,R106*%
X74652500Y-51435000D03*
X76477500Y-51435000D03*
%TD*%
D24*
%TO.C,U102*%
X92311788Y-57084876D03*
X92665342Y-56731322D03*
X93018895Y-56377769D03*
X93372449Y-56024215D03*
X93726002Y-55670662D03*
X94079555Y-55317109D03*
X94433109Y-54963555D03*
X94786662Y-54610002D03*
X95140215Y-54256449D03*
X95493769Y-53902895D03*
X95847322Y-53549342D03*
X96200876Y-53195788D03*
D25*
X96200876Y-51198212D03*
X95847322Y-50844658D03*
X95493769Y-50491105D03*
X95140215Y-50137551D03*
X94786662Y-49783998D03*
X94433109Y-49430445D03*
X94079555Y-49076891D03*
X93726002Y-48723338D03*
X93372449Y-48369785D03*
X93018895Y-48016231D03*
X92665342Y-47662678D03*
X92311788Y-47309124D03*
D24*
X90314212Y-47309124D03*
X89960658Y-47662678D03*
X89607105Y-48016231D03*
X89253551Y-48369785D03*
X88899998Y-48723338D03*
X88546445Y-49076891D03*
X88192891Y-49430445D03*
X87839338Y-49783998D03*
X87485785Y-50137551D03*
X87132231Y-50491105D03*
X86778678Y-50844658D03*
X86425124Y-51198212D03*
D25*
X86425124Y-53195788D03*
X86778678Y-53549342D03*
X87132231Y-53902895D03*
X87485785Y-54256449D03*
X87839338Y-54610002D03*
X88192891Y-54963555D03*
X88546445Y-55317109D03*
X88899998Y-55670662D03*
X89253551Y-56024215D03*
X89607105Y-56377769D03*
X89960658Y-56731322D03*
X90314212Y-57084876D03*
%TD*%
D20*
%TO.C,R104*%
X92345000Y-61087000D03*
X94345000Y-61087000D03*
%TD*%
D26*
%TO.C,Y101*%
X80078000Y-64897000D03*
X88578000Y-64897000D03*
%TD*%
D27*
%TO.C,R108*%
X101727000Y-58055000D03*
X101727000Y-60055000D03*
%TD*%
D16*
%TO.C,C111*%
X98298000Y-52932500D03*
X98298000Y-51207500D03*
%TD*%
D28*
%TO.C,SW101*%
X70957000Y-66559000D03*
X70957000Y-58359000D03*
X66457000Y-66559000D03*
X66457000Y-58359000D03*
%TD*%
D22*
%TO.C,C103*%
X81687500Y-58039000D03*
X83412500Y-58039000D03*
%TD*%
D29*
%TO.C,J108*%
X102377000Y-65151000D03*
D30*
X104917000Y-65151000D03*
X107457000Y-65151000D03*
%TD*%
D31*
%TO.C,C101*%
X85496120Y-55143120D03*
X86715880Y-56362880D03*
%TD*%
D32*
%TO.C,R107*%
X67040000Y-42418000D03*
X65040000Y-42418000D03*
%TD*%
D23*
%TO.C,R105*%
X74652500Y-49784000D03*
X76477500Y-49784000D03*
%TD*%
D33*
%TO.C,C118*%
X78613000Y-50440500D03*
X78613000Y-48365500D03*
%TD*%
D12*
%TO.C,D104*%
X110504000Y-66167000D03*
X112254000Y-66167000D03*
%TD*%
D22*
%TO.C,C106*%
X81687500Y-61341000D03*
X83412500Y-61341000D03*
%TD*%
D20*
%TO.C,R114*%
X110252000Y-56515000D03*
X112252000Y-56515000D03*
%TD*%
D34*
%TO.C,FB103*%
X102371000Y-50419000D03*
X100321000Y-50419000D03*
%TD*%
D22*
%TO.C,C108*%
X85370500Y-61341000D03*
X87095500Y-61341000D03*
%TD*%
D29*
%TO.C,J105*%
X110363000Y-40513000D03*
D30*
X107823000Y-40513000D03*
X105283000Y-40513000D03*
X102743000Y-40513000D03*
X100203000Y-40513000D03*
X97663000Y-40513000D03*
X95123000Y-40513000D03*
X92583000Y-40513000D03*
X90043000Y-40513000D03*
X87503000Y-40513000D03*
X84963000Y-40513000D03*
X82423000Y-40513000D03*
X79883000Y-40513000D03*
X77343000Y-40513000D03*
X74803000Y-40513000D03*
X72263000Y-40513000D03*
%TD*%
D29*
%TO.C,J102*%
X78613000Y-59944000D03*
D30*
X78613000Y-57404000D03*
X76073000Y-59944000D03*
X76073000Y-57404000D03*
%TD*%
D29*
%TO.C,J107*%
X111633000Y-50546000D03*
D30*
X111633000Y-48006000D03*
X109093000Y-50546000D03*
X109093000Y-48006000D03*
%TD*%
%LPD*%
M02*
