%TF.GenerationSoftware,KiCad,Pcbnew,7.0.5*%
%TF.CreationDate,2023-07-22T19:28:39+09:00*%
%TF.ProjectId,power,706f7765-722e-46b6-9963-61645f706362,rev?*%
%TF.SameCoordinates,Original*%
%TF.FileFunction,Soldermask,Top*%
%TF.FilePolarity,Negative*%
%FSLAX46Y46*%
G04 Gerber Fmt 4.6, Leading zero omitted, Abs format (unit mm)*
G04 Created by KiCad (PCBNEW 7.0.5) date 2023-07-22 19:28:39*
%MOMM*%
%LPD*%
G01*
G04 APERTURE LIST*
G04 Aperture macros list*
%AMRoundRect*
0 Rectangle with rounded corners*
0 $1 Rounding radius*
0 $2 $3 $4 $5 $6 $7 $8 $9 X,Y pos of 4 corners*
0 Add a 4 corners polygon primitive as box body*
4,1,4,$2,$3,$4,$5,$6,$7,$8,$9,$2,$3,0*
0 Add four circle primitives for the rounded corners*
1,1,$1+$1,$2,$3*
1,1,$1+$1,$4,$5*
1,1,$1+$1,$6,$7*
1,1,$1+$1,$8,$9*
0 Add four rect primitives between the rounded corners*
20,1,$1+$1,$2,$3,$4,$5,0*
20,1,$1+$1,$4,$5,$6,$7,0*
20,1,$1+$1,$6,$7,$8,$9,0*
20,1,$1+$1,$8,$9,$2,$3,0*%
G04 Aperture macros list end*
%ADD10RoundRect,0.237500X-0.287500X-0.237500X0.287500X-0.237500X0.287500X0.237500X-0.287500X0.237500X0*%
%ADD11RoundRect,0.150000X0.512500X0.150000X-0.512500X0.150000X-0.512500X-0.150000X0.512500X-0.150000X0*%
%ADD12RoundRect,0.237500X0.287500X0.237500X-0.287500X0.237500X-0.287500X-0.237500X0.287500X-0.237500X0*%
%ADD13RoundRect,0.250000X-0.337500X-0.475000X0.337500X-0.475000X0.337500X0.475000X-0.337500X0.475000X0*%
%ADD14RoundRect,0.237500X0.237500X-0.300000X0.237500X0.300000X-0.237500X0.300000X-0.237500X-0.300000X0*%
%ADD15C,1.200000*%
%ADD16O,2.600000X1.500000*%
%ADD17RoundRect,0.237500X0.300000X0.237500X-0.300000X0.237500X-0.300000X-0.237500X0.300000X-0.237500X0*%
%ADD18RoundRect,0.250000X-0.350000X-0.450000X0.350000X-0.450000X0.350000X0.450000X-0.350000X0.450000X0*%
%ADD19RoundRect,0.237500X-0.237500X0.300000X-0.237500X-0.300000X0.237500X-0.300000X0.237500X0.300000X0*%
%ADD20RoundRect,0.237500X-0.300000X-0.237500X0.300000X-0.237500X0.300000X0.237500X-0.300000X0.237500X0*%
%ADD21RoundRect,0.237500X-0.250000X-0.237500X0.250000X-0.237500X0.250000X0.237500X-0.250000X0.237500X0*%
%ADD22RoundRect,0.075000X0.521491X-0.415425X-0.415425X0.521491X-0.521491X0.415425X0.415425X-0.521491X0*%
%ADD23RoundRect,0.075000X0.521491X0.415425X0.415425X0.521491X-0.521491X-0.415425X-0.415425X-0.521491X0*%
%ADD24R,4.500000X2.000000*%
%ADD25RoundRect,0.250000X-0.450000X0.350000X-0.450000X-0.350000X0.450000X-0.350000X0.450000X0.350000X0*%
%ADD26RoundRect,0.250000X0.250000X-0.650000X0.250000X0.650000X-0.250000X0.650000X-0.250000X-0.650000X0*%
%ADD27R,1.700000X1.700000*%
%ADD28O,1.700000X1.700000*%
%ADD29RoundRect,0.237500X-0.380070X0.044194X0.044194X-0.380070X0.380070X-0.044194X-0.044194X0.380070X0*%
%ADD30RoundRect,0.250000X0.350000X0.450000X-0.350000X0.450000X-0.350000X-0.450000X0.350000X-0.450000X0*%
%ADD31RoundRect,0.250000X0.475000X-0.337500X0.475000X0.337500X-0.475000X0.337500X-0.475000X-0.337500X0*%
%ADD32RoundRect,0.250000X0.325000X0.450000X-0.325000X0.450000X-0.325000X-0.450000X0.325000X-0.450000X0*%
G04 APERTURE END LIST*
D10*
%TO.C,D103*%
X110377000Y-53340000D03*
X112127000Y-53340000D03*
%TD*%
D11*
%TO.C,U101*%
X98546500Y-60005000D03*
X98546500Y-59055000D03*
X98546500Y-58105000D03*
X96271500Y-58105000D03*
X96271500Y-59055000D03*
X96271500Y-60005000D03*
%TD*%
D12*
%TO.C,D101*%
X66788000Y-40513000D03*
X65038000Y-40513000D03*
%TD*%
D13*
%TO.C,C120*%
X100308500Y-52705000D03*
X102383500Y-52705000D03*
%TD*%
D14*
%TO.C,C115*%
X82804000Y-51789500D03*
X82804000Y-50064500D03*
%TD*%
D15*
%TO.C,J101*%
X71976000Y-49795000D03*
X70776000Y-50595000D03*
X71976000Y-51395000D03*
X70776000Y-52195000D03*
X71976000Y-52995000D03*
D16*
X71076000Y-47595000D03*
X71076000Y-55195000D03*
X66276000Y-55195000D03*
X66276000Y-47595000D03*
%TD*%
D17*
%TO.C,C114*%
X90524500Y-61341000D03*
X88799500Y-61341000D03*
%TD*%
D18*
%TO.C,R102*%
X99965000Y-56134000D03*
X101965000Y-56134000D03*
%TD*%
D19*
%TO.C,C117*%
X104140000Y-53874500D03*
X104140000Y-55599500D03*
%TD*%
D10*
%TO.C,D102*%
X110504000Y-62611000D03*
X112254000Y-62611000D03*
%TD*%
D20*
%TO.C,C102*%
X96546500Y-62865000D03*
X98271500Y-62865000D03*
%TD*%
D18*
%TO.C,R103*%
X96409000Y-66548000D03*
X98409000Y-66548000D03*
%TD*%
D21*
%TO.C,R106*%
X74652500Y-51435000D03*
X76477500Y-51435000D03*
%TD*%
D22*
%TO.C,U102*%
X92311788Y-57084876D03*
X92665342Y-56731322D03*
X93018895Y-56377769D03*
X93372449Y-56024215D03*
X93726002Y-55670662D03*
X94079555Y-55317109D03*
X94433109Y-54963555D03*
X94786662Y-54610002D03*
X95140215Y-54256449D03*
X95493769Y-53902895D03*
X95847322Y-53549342D03*
X96200876Y-53195788D03*
D23*
X96200876Y-51198212D03*
X95847322Y-50844658D03*
X95493769Y-50491105D03*
X95140215Y-50137551D03*
X94786662Y-49783998D03*
X94433109Y-49430445D03*
X94079555Y-49076891D03*
X93726002Y-48723338D03*
X93372449Y-48369785D03*
X93018895Y-48016231D03*
X92665342Y-47662678D03*
X92311788Y-47309124D03*
D22*
X90314212Y-47309124D03*
X89960658Y-47662678D03*
X89607105Y-48016231D03*
X89253551Y-48369785D03*
X88899998Y-48723338D03*
X88546445Y-49076891D03*
X88192891Y-49430445D03*
X87839338Y-49783998D03*
X87485785Y-50137551D03*
X87132231Y-50491105D03*
X86778678Y-50844658D03*
X86425124Y-51198212D03*
D23*
X86425124Y-53195788D03*
X86778678Y-53549342D03*
X87132231Y-53902895D03*
X87485785Y-54256449D03*
X87839338Y-54610002D03*
X88192891Y-54963555D03*
X88546445Y-55317109D03*
X88899998Y-55670662D03*
X89253551Y-56024215D03*
X89607105Y-56377769D03*
X89960658Y-56731322D03*
X90314212Y-57084876D03*
%TD*%
D18*
%TO.C,R104*%
X92345000Y-61087000D03*
X94345000Y-61087000D03*
%TD*%
D24*
%TO.C,Y101*%
X80078000Y-64897000D03*
X88578000Y-64897000D03*
%TD*%
D25*
%TO.C,R108*%
X101727000Y-58055000D03*
X101727000Y-60055000D03*
%TD*%
D14*
%TO.C,C111*%
X98298000Y-52932500D03*
X98298000Y-51207500D03*
%TD*%
D26*
%TO.C,SW101*%
X70957000Y-66559000D03*
X70957000Y-58359000D03*
X66457000Y-66559000D03*
X66457000Y-58359000D03*
%TD*%
D20*
%TO.C,C103*%
X81687500Y-58039000D03*
X83412500Y-58039000D03*
%TD*%
D27*
%TO.C,J108*%
X102377000Y-65151000D03*
D28*
X104917000Y-65151000D03*
X107457000Y-65151000D03*
%TD*%
D29*
%TO.C,C101*%
X85496120Y-55143120D03*
X86715880Y-56362880D03*
%TD*%
D30*
%TO.C,R107*%
X67040000Y-42418000D03*
X65040000Y-42418000D03*
%TD*%
D21*
%TO.C,R105*%
X74652500Y-49784000D03*
X76477500Y-49784000D03*
%TD*%
D31*
%TO.C,C118*%
X78613000Y-50440500D03*
X78613000Y-48365500D03*
%TD*%
D10*
%TO.C,D104*%
X110504000Y-66167000D03*
X112254000Y-66167000D03*
%TD*%
D20*
%TO.C,C106*%
X81687500Y-61341000D03*
X83412500Y-61341000D03*
%TD*%
D18*
%TO.C,R114*%
X110252000Y-56515000D03*
X112252000Y-56515000D03*
%TD*%
D32*
%TO.C,FB103*%
X102371000Y-50419000D03*
X100321000Y-50419000D03*
%TD*%
D20*
%TO.C,C108*%
X85370500Y-61341000D03*
X87095500Y-61341000D03*
%TD*%
D27*
%TO.C,J105*%
X110363000Y-40513000D03*
D28*
X107823000Y-40513000D03*
X105283000Y-40513000D03*
X102743000Y-40513000D03*
X100203000Y-40513000D03*
X97663000Y-40513000D03*
X95123000Y-40513000D03*
X92583000Y-40513000D03*
X90043000Y-40513000D03*
X87503000Y-40513000D03*
X84963000Y-40513000D03*
X82423000Y-40513000D03*
X79883000Y-40513000D03*
X77343000Y-40513000D03*
X74803000Y-40513000D03*
X72263000Y-40513000D03*
%TD*%
D27*
%TO.C,J102*%
X78613000Y-59944000D03*
D28*
X78613000Y-57404000D03*
X76073000Y-59944000D03*
X76073000Y-57404000D03*
%TD*%
D27*
%TO.C,J107*%
X111633000Y-50546000D03*
D28*
X111633000Y-48006000D03*
X109093000Y-50546000D03*
X109093000Y-48006000D03*
%TD*%
M02*
