%TF.GenerationSoftware,KiCad,Pcbnew,7.0.5*%
%TF.CreationDate,2023-07-22T19:28:39+09:00*%
%TF.ProjectId,power,706f7765-722e-46b6-9963-61645f706362,rev?*%
%TF.SameCoordinates,Original*%
%TF.FileFunction,Copper,L2,Bot*%
%TF.FilePolarity,Positive*%
%FSLAX46Y46*%
G04 Gerber Fmt 4.6, Leading zero omitted, Abs format (unit mm)*
G04 Created by KiCad (PCBNEW 7.0.5) date 2023-07-22 19:28:39*
%MOMM*%
%LPD*%
G01*
G04 APERTURE LIST*
G04 Aperture macros list*
%AMRoundRect*
0 Rectangle with rounded corners*
0 $1 Rounding radius*
0 $2 $3 $4 $5 $6 $7 $8 $9 X,Y pos of 4 corners*
0 Add a 4 corners polygon primitive as box body*
4,1,4,$2,$3,$4,$5,$6,$7,$8,$9,$2,$3,0*
0 Add four circle primitives for the rounded corners*
1,1,$1+$1,$2,$3*
1,1,$1+$1,$4,$5*
1,1,$1+$1,$6,$7*
1,1,$1+$1,$8,$9*
0 Add four rect primitives between the rounded corners*
20,1,$1+$1,$2,$3,$4,$5,0*
20,1,$1+$1,$4,$5,$6,$7,0*
20,1,$1+$1,$6,$7,$8,$9,0*
20,1,$1+$1,$8,$9,$2,$3,0*%
G04 Aperture macros list end*
%TA.AperFunction,ComponentPad*%
%ADD10C,1.200000*%
%TD*%
%TA.AperFunction,ComponentPad*%
%ADD11O,2.600000X1.500000*%
%TD*%
%TA.AperFunction,ComponentPad*%
%ADD12R,1.700000X1.700000*%
%TD*%
%TA.AperFunction,ComponentPad*%
%ADD13O,1.700000X1.700000*%
%TD*%
%TA.AperFunction,SMDPad,CuDef*%
%ADD14RoundRect,0.237500X0.237500X-0.300000X0.237500X0.300000X-0.237500X0.300000X-0.237500X-0.300000X0*%
%TD*%
%TA.AperFunction,SMDPad,CuDef*%
%ADD15RoundRect,0.150000X-0.512500X-0.150000X0.512500X-0.150000X0.512500X0.150000X-0.512500X0.150000X0*%
%TD*%
%TA.AperFunction,SMDPad,CuDef*%
%ADD16RoundRect,0.250000X0.450000X-0.350000X0.450000X0.350000X-0.450000X0.350000X-0.450000X-0.350000X0*%
%TD*%
%TA.AperFunction,SMDPad,CuDef*%
%ADD17RoundRect,0.250000X0.337500X0.475000X-0.337500X0.475000X-0.337500X-0.475000X0.337500X-0.475000X0*%
%TD*%
%TA.AperFunction,SMDPad,CuDef*%
%ADD18RoundRect,0.237500X-0.300000X-0.237500X0.300000X-0.237500X0.300000X0.237500X-0.300000X0.237500X0*%
%TD*%
%TA.AperFunction,SMDPad,CuDef*%
%ADD19RoundRect,0.250000X0.350000X0.450000X-0.350000X0.450000X-0.350000X-0.450000X0.350000X-0.450000X0*%
%TD*%
%TA.AperFunction,SMDPad,CuDef*%
%ADD20RoundRect,0.250000X-0.350000X-0.450000X0.350000X-0.450000X0.350000X0.450000X-0.350000X0.450000X0*%
%TD*%
%TA.AperFunction,SMDPad,CuDef*%
%ADD21RoundRect,0.237500X-0.287500X-0.237500X0.287500X-0.237500X0.287500X0.237500X-0.287500X0.237500X0*%
%TD*%
%TA.AperFunction,SMDPad,CuDef*%
%ADD22RoundRect,0.237500X0.300000X0.237500X-0.300000X0.237500X-0.300000X-0.237500X0.300000X-0.237500X0*%
%TD*%
%TA.AperFunction,SMDPad,CuDef*%
%ADD23RoundRect,0.250000X-0.325000X-0.450000X0.325000X-0.450000X0.325000X0.450000X-0.325000X0.450000X0*%
%TD*%
%TA.AperFunction,SMDPad,CuDef*%
%ADD24RoundRect,0.250000X-0.475000X0.337500X-0.475000X-0.337500X0.475000X-0.337500X0.475000X0.337500X0*%
%TD*%
%TA.AperFunction,SMDPad,CuDef*%
%ADD25RoundRect,0.250000X-0.097227X0.574524X-0.574524X0.097227X0.097227X-0.574524X0.574524X-0.097227X0*%
%TD*%
%TA.AperFunction,ViaPad*%
%ADD26C,0.800000*%
%TD*%
%TA.AperFunction,Conductor*%
%ADD27C,1.250000*%
%TD*%
%TA.AperFunction,Conductor*%
%ADD28C,1.000000*%
%TD*%
%TA.AperFunction,Conductor*%
%ADD29C,0.300000*%
%TD*%
%TA.AperFunction,Conductor*%
%ADD30C,0.400000*%
%TD*%
G04 APERTURE END LIST*
D10*
%TO.P,J101,1,VBUS*%
%TO.N,Net-(FB101-Pad1)*%
X71976000Y-49795000D03*
%TO.P,J101,2,D-*%
%TO.N,Net-(J101-Pad2)*%
X70776000Y-50595000D03*
%TO.P,J101,3,D+*%
%TO.N,Net-(J101-Pad3)*%
X71976000Y-51395000D03*
%TO.P,J101,4,ID*%
%TO.N,unconnected-(J101-Pad4)*%
X70776000Y-52195000D03*
%TO.P,J101,5,GND*%
%TO.N,GND*%
X71976000Y-52995000D03*
D11*
%TO.P,J101,6,Shield*%
%TO.N,Net-(C104-Pad1)*%
X71076000Y-47595000D03*
X71076000Y-55195000D03*
X66276000Y-55195000D03*
X66276000Y-47595000D03*
%TD*%
D12*
%TO.P,J108,1,Pin_1*%
%TO.N,/~{RESET}*%
X102377000Y-65151000D03*
D13*
%TO.P,J108,2,Pin_2*%
%TO.N,/ACBUS8*%
X104917000Y-65151000D03*
%TO.P,J108,3,Pin_3*%
%TO.N,/ACBUS9*%
X107457000Y-65151000D03*
%TD*%
D14*
%TO.P,C104,1*%
%TO.N,Net-(C104-Pad1)*%
X69088000Y-44804500D03*
%TO.P,C104,2*%
%TO.N,GND*%
X69088000Y-43079500D03*
%TD*%
D15*
%TO.P,U103,1,IN*%
%TO.N,Net-(C105-Pad1)*%
X78618500Y-49845000D03*
%TO.P,U103,2,GND*%
%TO.N,GND*%
X78618500Y-48895000D03*
%TO.P,U103,3,EN*%
%TO.N,Net-(C105-Pad1)*%
X78618500Y-47945000D03*
%TO.P,U103,4,ADJ*%
%TO.N,Net-(R110-Pad2)*%
X80893500Y-47945000D03*
%TO.P,U103,5,OUT*%
%TO.N,+3.3V*%
X80893500Y-49845000D03*
%TD*%
D16*
%TO.P,R111,1*%
%TO.N,Net-(R110-Pad2)*%
X83185000Y-48879000D03*
%TO.P,R111,2*%
%TO.N,GND*%
X83185000Y-46879000D03*
%TD*%
D17*
%TO.P,C107,1*%
%TO.N,Net-(C105-Pad1)*%
X75840500Y-52959000D03*
%TO.P,C107,2*%
%TO.N,GND*%
X73765500Y-52959000D03*
%TD*%
D12*
%TO.P,J105,1,Pin_1*%
%TO.N,/ADBUS0*%
X110363000Y-40513000D03*
D13*
%TO.P,J105,2,Pin_2*%
%TO.N,/ADBUS1*%
X107823000Y-40513000D03*
%TO.P,J105,3,Pin_3*%
%TO.N,/ADBUS2*%
X105283000Y-40513000D03*
%TO.P,J105,4,Pin_4*%
%TO.N,/ADBUS3*%
X102743000Y-40513000D03*
%TO.P,J105,5,Pin_5*%
%TO.N,/ADBUS4*%
X100203000Y-40513000D03*
%TO.P,J105,6,Pin_6*%
%TO.N,/ADBUS5*%
X97663000Y-40513000D03*
%TO.P,J105,7,Pin_7*%
%TO.N,/ADBUS6*%
X95123000Y-40513000D03*
%TO.P,J105,8,Pin_8*%
%TO.N,/ADBUS7*%
X92583000Y-40513000D03*
%TO.P,J105,9,Pin_9*%
%TO.N,/ACBUS0*%
X90043000Y-40513000D03*
%TO.P,J105,10,Pin_10*%
%TO.N,/ACBUS1*%
X87503000Y-40513000D03*
%TO.P,J105,11,Pin_11*%
%TO.N,/ACBUS2*%
X84963000Y-40513000D03*
%TO.P,J105,12,Pin_12*%
%TO.N,/ACBUS3*%
X82423000Y-40513000D03*
%TO.P,J105,13,Pin_13*%
%TO.N,/ACBUS4*%
X79883000Y-40513000D03*
%TO.P,J105,14,Pin_14*%
%TO.N,/ACBUS5*%
X77343000Y-40513000D03*
%TO.P,J105,15,Pin_15*%
%TO.N,/ACBUS6*%
X74803000Y-40513000D03*
%TO.P,J105,16,Pin_16*%
%TO.N,/ACBUS7*%
X72263000Y-40513000D03*
%TD*%
D18*
%TO.P,C105,1*%
%TO.N,Net-(C105-Pad1)*%
X78639500Y-52959000D03*
%TO.P,C105,2*%
%TO.N,GND*%
X80364500Y-52959000D03*
%TD*%
D19*
%TO.P,R112,1*%
%TO.N,+3.3V*%
X72120000Y-62230000D03*
%TO.P,R112,2*%
%TO.N,/~{RESET}*%
X70120000Y-62230000D03*
%TD*%
D20*
%TO.P,R115,1*%
%TO.N,+3.3V*%
X109744000Y-62103000D03*
%TO.P,R115,2*%
%TO.N,Net-(D104-Pad2)*%
X111744000Y-62103000D03*
%TD*%
D12*
%TO.P,J102,1,Pin_1*%
%TO.N,Net-(C105-Pad1)*%
X78613000Y-59944000D03*
D13*
%TO.P,J102,2,Pin_2*%
%TO.N,GND*%
X78613000Y-57404000D03*
%TO.P,J102,3,Pin_3*%
%TO.N,Net-(C105-Pad1)*%
X76073000Y-59944000D03*
%TO.P,J102,4,Pin_4*%
%TO.N,GND*%
X76073000Y-57404000D03*
%TD*%
D20*
%TO.P,R113,1*%
%TO.N,+3.3V*%
X109744000Y-58293000D03*
%TO.P,R113,2*%
%TO.N,Net-(D102-Pad2)*%
X111744000Y-58293000D03*
%TD*%
D14*
%TO.P,C109,1*%
%TO.N,+3.3V*%
X89281000Y-48868500D03*
%TO.P,C109,2*%
%TO.N,GND*%
X89281000Y-47143500D03*
%TD*%
D12*
%TO.P,J107,1,Pin_1*%
%TO.N,+3.3V*%
X111633000Y-50546000D03*
D13*
%TO.P,J107,2,Pin_2*%
%TO.N,GND*%
X111633000Y-48006000D03*
%TO.P,J107,3,Pin_3*%
%TO.N,+3.3V*%
X109093000Y-50546000D03*
%TO.P,J107,4,Pin_4*%
%TO.N,GND*%
X109093000Y-48006000D03*
%TD*%
D21*
%TO.P,FB101,1*%
%TO.N,Net-(FB101-Pad1)*%
X73928000Y-49784000D03*
%TO.P,FB101,2*%
%TO.N,Net-(C105-Pad1)*%
X75678000Y-49784000D03*
%TD*%
D14*
%TO.P,C110,1*%
%TO.N,+3.3V*%
X87376000Y-50519500D03*
%TO.P,C110,2*%
%TO.N,GND*%
X87376000Y-48794500D03*
%TD*%
D22*
%TO.P,C116,1*%
%TO.N,/VPHY*%
X87095500Y-54356000D03*
%TO.P,C116,2*%
%TO.N,GND*%
X85370500Y-54356000D03*
%TD*%
D23*
%TO.P,FB102,1*%
%TO.N,+3.3V*%
X85716000Y-52451000D03*
%TO.P,FB102,2*%
%TO.N,/VPHY*%
X87766000Y-52451000D03*
%TD*%
D19*
%TO.P,R109,1*%
%TO.N,+3.3V*%
X98409000Y-58420000D03*
%TO.P,R109,2*%
%TO.N,Net-(R109-Pad2)*%
X96409000Y-58420000D03*
%TD*%
D22*
%TO.P,C113,1*%
%TO.N,/~{RESET}*%
X67410500Y-62357000D03*
%TO.P,C113,2*%
%TO.N,GND*%
X65685500Y-62357000D03*
%TD*%
D24*
%TO.P,C112,1*%
%TO.N,+3.3V*%
X97917000Y-50651500D03*
%TO.P,C112,2*%
%TO.N,GND*%
X97917000Y-52726500D03*
%TD*%
D25*
%TO.P,C119,1*%
%TO.N,/VPHY*%
X84299623Y-56289377D03*
%TO.P,C119,2*%
%TO.N,GND*%
X82832377Y-57756623D03*
%TD*%
D16*
%TO.P,R101,1*%
%TO.N,Net-(C104-Pad1)*%
X66929000Y-44942000D03*
%TO.P,R101,2*%
%TO.N,GND*%
X66929000Y-42942000D03*
%TD*%
%TO.P,R110,1*%
%TO.N,+3.3V*%
X85471000Y-50530000D03*
%TO.P,R110,2*%
%TO.N,Net-(R110-Pad2)*%
X85471000Y-48530000D03*
%TD*%
D26*
%TO.N,GND*%
X96901000Y-46101000D03*
X91440000Y-42672000D03*
X64770000Y-60452000D03*
X86233000Y-43942000D03*
X107061000Y-53467000D03*
X92329000Y-62992000D03*
X73279000Y-43942000D03*
X73660000Y-60452000D03*
X107061000Y-57404000D03*
X89408000Y-43942000D03*
X96266000Y-43180000D03*
X112395000Y-43942000D03*
X73660000Y-54864000D03*
X64516000Y-49149000D03*
X73279000Y-64770000D03*
X103632000Y-58039000D03*
X86868000Y-59817000D03*
X106426000Y-43942000D03*
X110998000Y-52070000D03*
X68453000Y-51435000D03*
X79248000Y-54483000D03*
X91948000Y-59563000D03*
X78740000Y-43942000D03*
X84201000Y-64897000D03*
X91186000Y-57551500D03*
X70739000Y-43942000D03*
X66675000Y-64262000D03*
X76200000Y-64770000D03*
X95123000Y-63881000D03*
X91186000Y-46736000D03*
X100584000Y-62103000D03*
X92710000Y-64897000D03*
X112395000Y-39878000D03*
X84582000Y-45847000D03*
X83820000Y-43942000D03*
X81407000Y-43942000D03*
X93853000Y-51689000D03*
X65024000Y-44196000D03*
X98552000Y-64516000D03*
X94152000Y-44450000D03*
X68580000Y-66548000D03*
X76073000Y-48133000D03*
X80518000Y-51562000D03*
X69088000Y-39751000D03*
X110744000Y-60198000D03*
X91804503Y-52197000D03*
X83822081Y-54722584D03*
X76327000Y-46069500D03*
X104013000Y-43942000D03*
X100076000Y-59055000D03*
X107061000Y-60960000D03*
X101600000Y-43180000D03*
X64643000Y-53340000D03*
X108966000Y-43942000D03*
X76073000Y-43942000D03*
%TO.N,+3.3V*%
X89662000Y-62992000D03*
X96546500Y-64743500D03*
X89782750Y-60077250D03*
X88845070Y-57551500D03*
X91313000Y-48307912D03*
X100330000Y-49022000D03*
X103886000Y-49276000D03*
X80893500Y-49845000D03*
%TO.N,Net-(C106-Pad1)*%
X81661000Y-59309000D03*
X90403500Y-54706235D03*
%TO.N,Net-(D102-Pad2)*%
X112268000Y-60579000D03*
%TO.N,Net-(C103-Pad1)*%
X81624000Y-55790000D03*
X83820000Y-53721000D03*
%TO.N,Net-(C105-Pad1)*%
X74041000Y-48133000D03*
%TO.N,Net-(C108-Pad1)*%
X91365849Y-55079689D03*
X85344000Y-59690000D03*
%TO.N,/~{RESET}*%
X77343000Y-55626000D03*
X94996000Y-66675000D03*
X69596000Y-64135000D03*
X84201000Y-52070000D03*
%TO.N,/VPHY*%
X90170000Y-52209500D03*
%TO.N,/ACBUS8*%
X90678000Y-49451500D03*
X102362000Y-61468000D03*
X103759000Y-51650500D03*
X105410000Y-49403000D03*
%TO.N,/ACBUS9*%
X99716977Y-54631977D03*
X92803925Y-52209500D03*
X104401500Y-62095500D03*
%TO.N,Net-(D104-Pad2)*%
X112268000Y-64770000D03*
%TO.N,Net-(R102-Pad1)*%
X96901000Y-56388000D03*
X93223594Y-54103679D03*
%TO.N,Net-(R104-Pad2)*%
X94919132Y-59064856D03*
X87884000Y-57277000D03*
%TO.N,Net-(R108-Pad1)*%
X89154000Y-52959000D03*
X98298000Y-56642000D03*
%TO.N,Net-(R109-Pad2)*%
X89985636Y-53708500D03*
X94575340Y-58126340D03*
%TD*%
D27*
%TO.N,GND*%
X73765500Y-54758500D02*
X73660000Y-54864000D01*
D28*
X65685500Y-62218675D02*
X70881175Y-57023000D01*
D29*
X100076000Y-61595000D02*
X100584000Y-62103000D01*
D27*
X81387000Y-57424000D02*
X82499754Y-57424000D01*
X94152000Y-44450000D02*
X91739000Y-46863000D01*
X105396858Y-48011000D02*
X101835858Y-44450000D01*
X73729500Y-52995000D02*
X73765500Y-52959000D01*
X101835858Y-44450000D02*
X94152000Y-44450000D01*
D29*
X92109000Y-51401000D02*
X93565000Y-51401000D01*
D30*
X110998000Y-52070000D02*
X112395000Y-52070000D01*
D27*
X78608000Y-57424000D02*
X81387000Y-57424000D01*
D29*
X84455000Y-54229000D02*
X85243500Y-54229000D01*
X96879500Y-51689000D02*
X97917000Y-52726500D01*
D30*
X113030000Y-51435000D02*
X113030000Y-49413000D01*
D27*
X76068000Y-57424000D02*
X78608000Y-57424000D01*
X91739000Y-46863000D02*
X89789000Y-46863000D01*
D28*
X76327000Y-46069500D02*
X76327000Y-47879000D01*
D30*
X113030000Y-49413000D02*
X111628000Y-48011000D01*
X112395000Y-52070000D02*
X113030000Y-51435000D01*
X83822081Y-54722584D02*
X81387000Y-57157665D01*
D27*
X82499754Y-57424000D02*
X82832377Y-57756623D01*
D29*
X83961416Y-54722584D02*
X84455000Y-54229000D01*
X83822081Y-54722584D02*
X83961416Y-54722584D01*
D30*
X78618500Y-48895000D02*
X76835000Y-48895000D01*
D27*
X111628000Y-48011000D02*
X105396858Y-48011000D01*
D29*
X91804503Y-52197000D02*
X91804503Y-51705497D01*
D27*
X73765500Y-52959000D02*
X73765500Y-54758500D01*
D28*
X76327000Y-47879000D02*
X76073000Y-48133000D01*
X76327000Y-46069500D02*
X78454500Y-46069500D01*
D29*
X100076000Y-59055000D02*
X100076000Y-61595000D01*
D28*
X82407000Y-46101000D02*
X83185000Y-46879000D01*
D29*
X93853000Y-51689000D02*
X96879500Y-51689000D01*
D28*
X70881175Y-57023000D02*
X72167167Y-57023000D01*
D29*
X91804503Y-51705497D02*
X92109000Y-51401000D01*
X93565000Y-51401000D02*
X93853000Y-51689000D01*
D28*
X72167167Y-57023000D02*
X73660000Y-55530167D01*
X83449500Y-47143500D02*
X83185000Y-46879000D01*
X78486000Y-46101000D02*
X82407000Y-46101000D01*
D30*
X81387000Y-57157665D02*
X81387000Y-57424000D01*
D28*
X73660000Y-55530167D02*
X73660000Y-54864000D01*
X78454500Y-46069500D02*
X78486000Y-46101000D01*
X89281000Y-47143500D02*
X83449500Y-47143500D01*
D29*
X85243500Y-54229000D02*
X85370500Y-54356000D01*
D30*
X76835000Y-48895000D02*
X76073000Y-48133000D01*
D28*
X65685500Y-62357000D02*
X65685500Y-62218675D01*
D27*
X71976000Y-52995000D02*
X73729500Y-52995000D01*
D29*
%TO.N,+3.3V*%
X109744000Y-62103000D02*
X109744000Y-58293000D01*
D27*
X87376000Y-50519500D02*
X87365500Y-50530000D01*
D28*
X99673500Y-50651500D02*
X97917000Y-50651500D01*
D27*
X81264000Y-50530000D02*
X80893500Y-50159500D01*
D30*
X85716000Y-50775000D02*
X85471000Y-50530000D01*
D29*
X91313000Y-48307912D02*
X91265088Y-48260000D01*
X99546500Y-49022000D02*
X97917000Y-50651500D01*
D28*
X100965000Y-51943000D02*
X99673500Y-50651500D01*
D27*
X80893500Y-50159500D02*
X80893500Y-49845000D01*
D28*
X98409000Y-58420000D02*
X100965000Y-55864000D01*
X87376000Y-50519500D02*
X87407500Y-50551000D01*
X87407500Y-50551000D02*
X97816500Y-50551000D01*
D27*
X87365500Y-50530000D02*
X81264000Y-50530000D01*
D29*
X87630000Y-50519500D02*
X89281000Y-48868500D01*
X109744000Y-58293000D02*
X109093000Y-57642000D01*
X89782750Y-60077250D02*
X88845070Y-59139570D01*
D28*
X100965000Y-55864000D02*
X100965000Y-51943000D01*
D29*
X88845070Y-59139570D02*
X88845070Y-57551500D01*
D30*
X105161000Y-50551000D02*
X103886000Y-49276000D01*
D28*
X98017500Y-50551000D02*
X109088000Y-50551000D01*
D29*
X72882000Y-62992000D02*
X72120000Y-62230000D01*
X87376000Y-50519500D02*
X87630000Y-50519500D01*
D27*
X97917000Y-50651500D02*
X97895500Y-50651500D01*
D29*
X109093000Y-57642000D02*
X109093000Y-50546000D01*
X100330000Y-49022000D02*
X99546500Y-49022000D01*
D28*
X98409000Y-58420000D02*
X98409000Y-62881000D01*
X97917000Y-50651500D02*
X98017500Y-50551000D01*
D29*
X91265088Y-48260000D02*
X89889500Y-48260000D01*
D30*
X85716000Y-52451000D02*
X85716000Y-50775000D01*
D28*
X98409000Y-62881000D02*
X96546500Y-64743500D01*
D29*
X89662000Y-62992000D02*
X72882000Y-62992000D01*
D28*
X97816500Y-50551000D02*
X97917000Y-50651500D01*
D29*
X89889500Y-48260000D02*
X89281000Y-48868500D01*
%TO.N,Net-(C106-Pad1)*%
X88658293Y-54706235D02*
X84055528Y-59309000D01*
X84055528Y-59309000D02*
X81661000Y-59309000D01*
X90403500Y-54706235D02*
X88658293Y-54706235D01*
%TO.N,Net-(D102-Pad2)*%
X112268000Y-60579000D02*
X112268000Y-59198000D01*
X112268000Y-59198000D02*
X111363000Y-58293000D01*
D27*
%TO.N,Net-(FB101-Pad1)*%
X73917000Y-49795000D02*
X73928000Y-49784000D01*
X71976000Y-49795000D02*
X73917000Y-49795000D01*
D30*
%TO.N,Net-(C103-Pad1)*%
X83693000Y-53721000D02*
X83820000Y-53721000D01*
X81624000Y-55790000D02*
X83693000Y-53721000D01*
D27*
%TO.N,Net-(C104-Pad1)*%
X66929000Y-44942000D02*
X68950500Y-44942000D01*
X66276000Y-55195000D02*
X71076000Y-55195000D01*
X66276000Y-47595000D02*
X66276000Y-45595000D01*
X68950500Y-44942000D02*
X69088000Y-44804500D01*
X71076000Y-47595000D02*
X66276000Y-47595000D01*
X66276000Y-45595000D02*
X66929000Y-44942000D01*
X66276000Y-47595000D02*
X66276000Y-55195000D01*
%TO.N,Net-(C105-Pad1)*%
X78639500Y-50318500D02*
X78613000Y-50292000D01*
D29*
X74041000Y-48133000D02*
X74041000Y-48147000D01*
D27*
X75840500Y-49946500D02*
X75678000Y-49784000D01*
X75840500Y-55223500D02*
X74295000Y-56769000D01*
X78639500Y-52959000D02*
X78639500Y-50318500D01*
D29*
X79038107Y-49845000D02*
X79756000Y-49127107D01*
D27*
X75840500Y-52959000D02*
X75840500Y-49946500D01*
D29*
X79756000Y-48662893D02*
X79038107Y-47945000D01*
D27*
X74295000Y-58191000D02*
X76068000Y-59964000D01*
X76068000Y-59964000D02*
X78608000Y-59964000D01*
D29*
X74041000Y-48147000D02*
X75678000Y-49784000D01*
X79038107Y-47945000D02*
X78618500Y-47945000D01*
D27*
X74295000Y-56769000D02*
X74295000Y-58191000D01*
X75840500Y-52959000D02*
X78639500Y-52959000D01*
D29*
X79756000Y-49127107D02*
X79756000Y-48662893D01*
D27*
X75840500Y-52959000D02*
X75840500Y-55223500D01*
D29*
X78618500Y-49845000D02*
X79038107Y-49845000D01*
%TO.N,Net-(C108-Pad1)*%
X90714161Y-55456235D02*
X91090707Y-55079689D01*
X88615399Y-55456235D02*
X90714161Y-55456235D01*
X91090707Y-55079689D02*
X91365849Y-55079689D01*
X85344000Y-59690000D02*
X85344000Y-58727634D01*
X85344000Y-58727634D02*
X88615399Y-55456235D01*
%TO.N,/~{RESET}*%
X100853000Y-66675000D02*
X102377000Y-65151000D01*
X69596000Y-64135000D02*
X69596000Y-62754000D01*
X94996000Y-66675000D02*
X100853000Y-66675000D01*
X69596000Y-62754000D02*
X70120000Y-62230000D01*
X67537500Y-62230000D02*
X67410500Y-62357000D01*
X80645000Y-55626000D02*
X77343000Y-55626000D01*
X84201000Y-52070000D02*
X80645000Y-55626000D01*
X70120000Y-62230000D02*
X67537500Y-62230000D01*
%TO.N,/VPHY*%
X88007500Y-52209500D02*
X87766000Y-52451000D01*
X87766000Y-52451000D02*
X87766000Y-53685500D01*
X87095500Y-55017500D02*
X87095500Y-54356000D01*
X87766000Y-53685500D02*
X87095500Y-54356000D01*
X84299623Y-56289377D02*
X84836000Y-55753000D01*
X84836000Y-55753000D02*
X86360000Y-55753000D01*
X90170000Y-52209500D02*
X88007500Y-52209500D01*
X86360000Y-55753000D02*
X87095500Y-55017500D01*
%TO.N,/ACBUS8*%
X97360500Y-49451500D02*
X98679000Y-48133000D01*
X98679000Y-48133000D02*
X104140000Y-48133000D01*
X104140000Y-48133000D02*
X105410000Y-49403000D01*
X102362000Y-53047500D02*
X102362000Y-61468000D01*
X103759000Y-51650500D02*
X102362000Y-53047500D01*
X90678000Y-49451500D02*
X97360500Y-49451500D01*
%TO.N,/ACBUS9*%
X96995083Y-54631977D02*
X99716977Y-54631977D01*
X92803925Y-52209500D02*
X93053425Y-52459000D01*
X94822107Y-52459000D02*
X96995083Y-54631977D01*
X104401500Y-62095500D02*
X107457000Y-65151000D01*
X93053425Y-52459000D02*
X94822107Y-52459000D01*
%TO.N,Net-(D104-Pad2)*%
X112268000Y-62627000D02*
X111744000Y-62103000D01*
X112268000Y-64770000D02*
X112268000Y-62627000D01*
%TO.N,Net-(R102-Pad1)*%
X94616679Y-54103679D02*
X96901000Y-56388000D01*
X93223594Y-54103679D02*
X94616679Y-54103679D01*
%TO.N,Net-(R104-Pad2)*%
X87884000Y-60198000D02*
X89154000Y-61468000D01*
X92515988Y-61468000D02*
X94919132Y-59064856D01*
X87884000Y-57277000D02*
X87884000Y-60198000D01*
X89154000Y-61468000D02*
X92515988Y-61468000D01*
%TO.N,Net-(R108-Pad1)*%
X89154000Y-52959000D02*
X94615000Y-52959000D01*
X94615000Y-52959000D02*
X98298000Y-56642000D01*
%TO.N,Net-(R109-Pad2)*%
X94575340Y-58126340D02*
X96115340Y-58126340D01*
X94575340Y-56602340D02*
X94575340Y-58126340D01*
X89985636Y-53708500D02*
X91681500Y-53708500D01*
X96115340Y-58126340D02*
X96409000Y-58420000D01*
X91681500Y-53708500D02*
X94575340Y-56602340D01*
D30*
%TO.N,Net-(R110-Pad2)*%
X83534000Y-48530000D02*
X83185000Y-48879000D01*
X82947000Y-48641000D02*
X83185000Y-48879000D01*
X80893500Y-47945000D02*
X81589500Y-48641000D01*
X81589500Y-48641000D02*
X82947000Y-48641000D01*
X85471000Y-48530000D02*
X83534000Y-48530000D01*
%TD*%
%TA.AperFunction,Conductor*%
%TO.N,GND*%
G36*
X112971454Y-38628560D02*
G01*
X113017963Y-38682201D01*
X113029366Y-38734645D01*
X113027281Y-42686329D01*
X113024901Y-47197422D01*
X113024883Y-47230603D01*
X113004845Y-47298714D01*
X112951165Y-47345178D01*
X112880886Y-47355245D01*
X112816320Y-47325718D01*
X112793091Y-47298977D01*
X112715427Y-47178926D01*
X112709136Y-47170757D01*
X112565806Y-47013240D01*
X112558273Y-47006215D01*
X112391139Y-46874222D01*
X112382552Y-46868517D01*
X112196117Y-46765599D01*
X112186705Y-46761369D01*
X111985959Y-46690280D01*
X111975988Y-46687646D01*
X111904837Y-46674972D01*
X111891540Y-46676432D01*
X111887000Y-46690989D01*
X111887000Y-48134000D01*
X111866998Y-48202121D01*
X111813342Y-48248614D01*
X111761000Y-48260000D01*
X107776225Y-48260000D01*
X107762694Y-48263973D01*
X107761257Y-48273966D01*
X107791565Y-48408446D01*
X107794645Y-48418275D01*
X107874770Y-48615603D01*
X107879413Y-48624794D01*
X107990694Y-48806388D01*
X107996777Y-48814699D01*
X108136213Y-48975667D01*
X108143580Y-48982883D01*
X108307434Y-49118916D01*
X108315881Y-49124831D01*
X108384969Y-49165203D01*
X108433693Y-49216842D01*
X108446764Y-49286625D01*
X108420033Y-49352396D01*
X108379584Y-49385752D01*
X108366607Y-49392507D01*
X108362474Y-49395610D01*
X108362471Y-49395612D01*
X108200451Y-49517260D01*
X108133966Y-49542166D01*
X108124798Y-49542500D01*
X106448779Y-49542500D01*
X106380658Y-49522498D01*
X106334165Y-49468842D01*
X106325600Y-49416171D01*
X106322814Y-49416171D01*
X106322814Y-49409565D01*
X106323504Y-49403000D01*
X106322814Y-49396435D01*
X106304232Y-49219635D01*
X106304232Y-49219633D01*
X106303542Y-49213072D01*
X106244527Y-49031444D01*
X106240873Y-49025114D01*
X106165751Y-48895000D01*
X106149040Y-48866056D01*
X106135015Y-48850479D01*
X106025675Y-48729045D01*
X106025674Y-48729044D01*
X106021253Y-48724134D01*
X105914259Y-48646398D01*
X105872094Y-48615763D01*
X105872093Y-48615762D01*
X105866752Y-48611882D01*
X105860724Y-48609198D01*
X105860722Y-48609197D01*
X105698319Y-48536891D01*
X105698318Y-48536891D01*
X105692288Y-48534206D01*
X105598887Y-48514353D01*
X105511944Y-48495872D01*
X105511939Y-48495872D01*
X105505487Y-48494500D01*
X105484949Y-48494500D01*
X105416828Y-48474498D01*
X105395854Y-48457595D01*
X104678442Y-47740183D01*
X107757389Y-47740183D01*
X107758912Y-47748607D01*
X107771292Y-47752000D01*
X108820885Y-47752000D01*
X108836124Y-47747525D01*
X108837329Y-47746135D01*
X108839000Y-47738452D01*
X108839000Y-47733885D01*
X109347000Y-47733885D01*
X109351475Y-47749124D01*
X109352865Y-47750329D01*
X109360548Y-47752000D01*
X111360885Y-47752000D01*
X111376124Y-47747525D01*
X111377329Y-47746135D01*
X111379000Y-47738452D01*
X111379000Y-46689102D01*
X111375082Y-46675758D01*
X111360806Y-46673771D01*
X111322324Y-46679660D01*
X111312288Y-46682051D01*
X111109868Y-46748212D01*
X111100359Y-46752209D01*
X110911463Y-46850542D01*
X110902738Y-46856036D01*
X110732433Y-46983905D01*
X110724726Y-46990748D01*
X110577590Y-47144717D01*
X110571104Y-47152727D01*
X110466193Y-47306521D01*
X110411282Y-47351524D01*
X110340757Y-47359695D01*
X110277010Y-47328441D01*
X110256313Y-47303957D01*
X110175427Y-47178926D01*
X110169136Y-47170757D01*
X110025806Y-47013240D01*
X110018273Y-47006215D01*
X109851139Y-46874222D01*
X109842552Y-46868517D01*
X109656117Y-46765599D01*
X109646705Y-46761369D01*
X109445959Y-46690280D01*
X109435988Y-46687646D01*
X109364837Y-46674972D01*
X109351540Y-46676432D01*
X109347000Y-46690989D01*
X109347000Y-47733885D01*
X108839000Y-47733885D01*
X108839000Y-46689102D01*
X108835082Y-46675758D01*
X108820806Y-46673771D01*
X108782324Y-46679660D01*
X108772288Y-46682051D01*
X108569868Y-46748212D01*
X108560359Y-46752209D01*
X108371463Y-46850542D01*
X108362738Y-46856036D01*
X108192433Y-46983905D01*
X108184726Y-46990748D01*
X108037590Y-47144717D01*
X108031104Y-47152727D01*
X107911098Y-47328649D01*
X107906000Y-47337623D01*
X107816338Y-47530783D01*
X107812775Y-47540470D01*
X107757389Y-47740183D01*
X104678442Y-47740183D01*
X104663655Y-47725396D01*
X104655663Y-47716613D01*
X104655663Y-47716612D01*
X104651416Y-47709920D01*
X104599741Y-47661394D01*
X104596900Y-47658640D01*
X104576333Y-47638073D01*
X104572826Y-47635353D01*
X104563804Y-47627647D01*
X104552592Y-47617118D01*
X104530133Y-47596028D01*
X104523181Y-47592206D01*
X104511342Y-47585697D01*
X104494818Y-47574843D01*
X104484132Y-47566555D01*
X104477868Y-47561696D01*
X104470596Y-47558549D01*
X104470594Y-47558548D01*
X104435465Y-47543346D01*
X104424805Y-47538124D01*
X104391284Y-47519695D01*
X104391282Y-47519694D01*
X104384337Y-47515876D01*
X104363559Y-47510541D01*
X104344869Y-47504142D01*
X104325176Y-47495620D01*
X104281404Y-47488687D01*
X104279552Y-47488394D01*
X104267929Y-47485987D01*
X104233657Y-47477188D01*
X104223188Y-47474500D01*
X104201741Y-47474500D01*
X104182031Y-47472949D01*
X104160848Y-47469594D01*
X104114859Y-47473941D01*
X104103004Y-47474500D01*
X98761060Y-47474500D01*
X98749203Y-47473941D01*
X98741463Y-47472211D01*
X98733538Y-47472460D01*
X98733537Y-47472460D01*
X98670599Y-47474438D01*
X98666641Y-47474500D01*
X98637568Y-47474500D01*
X98633634Y-47474997D01*
X98633632Y-47474997D01*
X98633189Y-47475053D01*
X98621354Y-47475985D01*
X98588564Y-47477016D01*
X98583089Y-47477188D01*
X98583088Y-47477188D01*
X98575169Y-47477437D01*
X98555444Y-47483168D01*
X98554571Y-47483421D01*
X98535218Y-47487429D01*
X98531743Y-47487868D01*
X98513936Y-47490118D01*
X98506568Y-47493035D01*
X98506565Y-47493036D01*
X98470982Y-47507125D01*
X98459747Y-47510971D01*
X98423016Y-47521642D01*
X98423013Y-47521643D01*
X98415400Y-47523855D01*
X98396935Y-47534775D01*
X98379195Y-47543466D01*
X98359244Y-47551365D01*
X98321874Y-47578516D01*
X98311952Y-47585033D01*
X98279023Y-47604507D01*
X98279019Y-47604510D01*
X98272193Y-47608547D01*
X98257029Y-47623711D01*
X98241996Y-47636551D01*
X98224643Y-47649159D01*
X98200482Y-47678365D01*
X98195198Y-47684752D01*
X98187208Y-47693532D01*
X97124645Y-48756095D01*
X97062333Y-48790121D01*
X97035550Y-48793000D01*
X92284062Y-48793000D01*
X92215941Y-48772998D01*
X92169448Y-48719342D01*
X92159344Y-48649068D01*
X92164227Y-48628070D01*
X92206542Y-48497840D01*
X92208996Y-48474498D01*
X92225814Y-48314477D01*
X92226504Y-48307912D01*
X92216044Y-48208390D01*
X92207232Y-48124547D01*
X92207232Y-48124545D01*
X92206542Y-48117984D01*
X92147527Y-47936356D01*
X92052040Y-47770968D01*
X92043937Y-47761968D01*
X91928675Y-47633957D01*
X91928674Y-47633956D01*
X91924253Y-47629046D01*
X91799110Y-47538124D01*
X91775094Y-47520675D01*
X91775093Y-47520674D01*
X91769752Y-47516794D01*
X91763724Y-47514110D01*
X91763722Y-47514109D01*
X91601319Y-47441803D01*
X91601318Y-47441803D01*
X91595288Y-47439118D01*
X91501887Y-47419265D01*
X91414944Y-47400784D01*
X91414939Y-47400784D01*
X91408487Y-47399412D01*
X91217513Y-47399412D01*
X91211061Y-47400784D01*
X91211056Y-47400784D01*
X91124112Y-47419265D01*
X91030712Y-47439118D01*
X91024682Y-47441803D01*
X91024681Y-47441803D01*
X90862278Y-47514109D01*
X90862276Y-47514110D01*
X90856248Y-47516794D01*
X90850907Y-47520674D01*
X90850906Y-47520675D01*
X90772782Y-47577436D01*
X90705915Y-47601294D01*
X90698721Y-47601500D01*
X90390000Y-47601500D01*
X90321879Y-47581498D01*
X90275386Y-47527842D01*
X90264000Y-47475500D01*
X90264000Y-47415615D01*
X90259525Y-47400376D01*
X90258135Y-47399171D01*
X90250452Y-47397500D01*
X88316115Y-47397500D01*
X88300876Y-47401975D01*
X88299671Y-47403365D01*
X88298000Y-47411048D01*
X88298000Y-47489766D01*
X88298337Y-47496282D01*
X88308075Y-47590132D01*
X88310968Y-47603528D01*
X88361488Y-47754953D01*
X88367653Y-47768115D01*
X88451426Y-47903492D01*
X88460464Y-47914894D01*
X88462139Y-47916567D01*
X88462919Y-47917993D01*
X88465007Y-47920627D01*
X88464556Y-47920984D01*
X88496219Y-47978849D01*
X88491216Y-48049669D01*
X88462299Y-48094754D01*
X88459241Y-48097817D01*
X88459237Y-48097822D01*
X88454071Y-48102997D01*
X88450337Y-48109055D01*
X88392486Y-48150070D01*
X88321562Y-48153300D01*
X88260152Y-48117674D01*
X88244378Y-48097216D01*
X88205573Y-48034508D01*
X88196540Y-48023110D01*
X88083871Y-47910637D01*
X88072460Y-47901625D01*
X87936937Y-47818088D01*
X87923759Y-47811944D01*
X87772234Y-47761685D01*
X87758868Y-47758819D01*
X87666230Y-47749328D01*
X87659815Y-47749000D01*
X87648115Y-47749000D01*
X87632876Y-47753475D01*
X87631671Y-47754865D01*
X87630000Y-47762548D01*
X87630000Y-48922500D01*
X87609998Y-48990621D01*
X87556342Y-49037114D01*
X87504000Y-49048500D01*
X87248000Y-49048500D01*
X87179879Y-49028498D01*
X87133386Y-48974842D01*
X87122000Y-48922500D01*
X87122000Y-47767115D01*
X87117525Y-47751876D01*
X87116135Y-47750671D01*
X87108452Y-47749000D01*
X87092234Y-47749000D01*
X87085718Y-47749337D01*
X86991868Y-47759075D01*
X86978472Y-47761968D01*
X86827047Y-47812488D01*
X86813885Y-47818653D01*
X86758707Y-47852798D01*
X86690255Y-47871635D01*
X86622486Y-47850473D01*
X86585261Y-47811956D01*
X86566231Y-47781203D01*
X86519478Y-47705652D01*
X86394303Y-47580695D01*
X86386005Y-47575580D01*
X86249968Y-47491725D01*
X86249966Y-47491724D01*
X86243738Y-47487885D01*
X86131637Y-47450703D01*
X86082389Y-47434368D01*
X86082387Y-47434368D01*
X86075861Y-47432203D01*
X86069025Y-47431503D01*
X86069022Y-47431502D01*
X86025969Y-47427091D01*
X85971400Y-47421500D01*
X84970600Y-47421500D01*
X84967354Y-47421837D01*
X84967350Y-47421837D01*
X84871692Y-47431762D01*
X84871688Y-47431763D01*
X84864834Y-47432474D01*
X84858298Y-47434655D01*
X84858296Y-47434655D01*
X84734413Y-47475986D01*
X84697054Y-47488450D01*
X84690826Y-47492304D01*
X84690824Y-47492305D01*
X84655919Y-47513905D01*
X84552500Y-47577903D01*
X84484050Y-47596741D01*
X84416280Y-47575580D01*
X84370709Y-47521139D01*
X84361804Y-47450703D01*
X84366605Y-47431092D01*
X84380137Y-47390294D01*
X84383005Y-47376914D01*
X84392672Y-47282562D01*
X84393000Y-47276146D01*
X84393000Y-47151115D01*
X84388525Y-47135876D01*
X84387135Y-47134671D01*
X84379452Y-47133000D01*
X81995116Y-47133000D01*
X81979877Y-47137475D01*
X81978672Y-47138865D01*
X81977001Y-47146548D01*
X81977001Y-47146750D01*
X81976832Y-47147327D01*
X81974122Y-47159783D01*
X81973231Y-47159589D01*
X81956999Y-47214871D01*
X81903343Y-47261364D01*
X81833069Y-47271468D01*
X81786862Y-47255203D01*
X81676427Y-47189892D01*
X81676428Y-47189892D01*
X81669601Y-47185855D01*
X81661990Y-47183644D01*
X81661988Y-47183643D01*
X81609769Y-47168472D01*
X81509831Y-47139438D01*
X81503426Y-47138934D01*
X81503421Y-47138933D01*
X81474958Y-47136693D01*
X81474950Y-47136693D01*
X81472502Y-47136500D01*
X80314498Y-47136500D01*
X80312050Y-47136693D01*
X80312042Y-47136693D01*
X80283579Y-47138933D01*
X80283574Y-47138934D01*
X80277169Y-47139438D01*
X80177231Y-47168472D01*
X80125012Y-47183643D01*
X80125010Y-47183644D01*
X80117399Y-47185855D01*
X80110572Y-47189892D01*
X80110573Y-47189892D01*
X79981020Y-47266509D01*
X79981017Y-47266511D01*
X79974193Y-47270547D01*
X79856547Y-47388193D01*
X79854294Y-47392002D01*
X79798004Y-47432655D01*
X79727112Y-47436506D01*
X79665391Y-47401418D01*
X79658724Y-47393724D01*
X79655453Y-47388193D01*
X79537807Y-47270547D01*
X79530983Y-47266511D01*
X79530980Y-47266509D01*
X79401427Y-47189892D01*
X79401428Y-47189892D01*
X79394601Y-47185855D01*
X79386990Y-47183644D01*
X79386988Y-47183643D01*
X79334769Y-47168472D01*
X79234831Y-47139438D01*
X79228426Y-47138934D01*
X79228421Y-47138933D01*
X79199958Y-47136693D01*
X79199950Y-47136693D01*
X79197502Y-47136500D01*
X78039498Y-47136500D01*
X78037050Y-47136693D01*
X78037042Y-47136693D01*
X78008579Y-47138933D01*
X78008574Y-47138934D01*
X78002169Y-47139438D01*
X77902231Y-47168472D01*
X77850012Y-47183643D01*
X77850010Y-47183644D01*
X77842399Y-47185855D01*
X77835572Y-47189892D01*
X77835573Y-47189892D01*
X77706020Y-47266509D01*
X77706017Y-47266511D01*
X77699193Y-47270547D01*
X77581547Y-47388193D01*
X77577511Y-47395017D01*
X77577509Y-47395020D01*
X77525229Y-47483421D01*
X77496855Y-47531399D01*
X77494644Y-47539010D01*
X77494643Y-47539012D01*
X77488279Y-47560917D01*
X77450438Y-47691169D01*
X77449934Y-47697574D01*
X77449933Y-47697579D01*
X77448962Y-47709920D01*
X77447500Y-47728498D01*
X77447500Y-48161502D01*
X77450438Y-48198831D01*
X77496855Y-48358601D01*
X77500889Y-48365423D01*
X77503128Y-48370596D01*
X77511824Y-48441058D01*
X77503128Y-48470674D01*
X77495107Y-48489210D01*
X77456061Y-48623605D01*
X77456101Y-48637706D01*
X77463370Y-48641000D01*
X77701158Y-48641000D01*
X77765297Y-48658547D01*
X77842399Y-48704145D01*
X77850010Y-48706356D01*
X77850012Y-48706357D01*
X77894708Y-48719342D01*
X78002169Y-48750562D01*
X78008574Y-48751066D01*
X78008579Y-48751067D01*
X78037042Y-48753307D01*
X78037050Y-48753307D01*
X78039498Y-48753500D01*
X78746500Y-48753500D01*
X78814621Y-48773502D01*
X78861114Y-48827158D01*
X78872500Y-48879500D01*
X78872500Y-48910500D01*
X78852498Y-48978621D01*
X78798842Y-49025114D01*
X78746500Y-49036500D01*
X78039498Y-49036500D01*
X78037050Y-49036693D01*
X78037042Y-49036693D01*
X78008579Y-49038933D01*
X78008574Y-49038934D01*
X78002169Y-49039438D01*
X77902231Y-49068472D01*
X77850012Y-49083643D01*
X77850010Y-49083644D01*
X77842399Y-49085855D01*
X77835572Y-49089892D01*
X77835573Y-49089892D01*
X77765297Y-49131453D01*
X77701158Y-49149000D01*
X77469122Y-49149000D01*
X77455591Y-49152973D01*
X77454456Y-49160871D01*
X77495107Y-49300790D01*
X77503128Y-49319326D01*
X77511824Y-49389788D01*
X77503128Y-49419404D01*
X77500889Y-49424577D01*
X77496855Y-49431399D01*
X77494644Y-49439010D01*
X77494643Y-49439012D01*
X77485977Y-49468842D01*
X77450438Y-49591169D01*
X77449934Y-49597574D01*
X77449933Y-49597579D01*
X77447801Y-49624671D01*
X77447500Y-49628498D01*
X77447500Y-50061502D01*
X77450438Y-50098831D01*
X77452232Y-50105007D01*
X77452233Y-50105011D01*
X77472527Y-50174864D01*
X77476081Y-50208636D01*
X77477402Y-50208607D01*
X77482121Y-50424848D01*
X77483383Y-50430708D01*
X77483383Y-50430711D01*
X77503178Y-50522654D01*
X77506000Y-50549173D01*
X77506000Y-51699500D01*
X77485998Y-51767621D01*
X77432342Y-51814114D01*
X77380000Y-51825500D01*
X77100000Y-51825500D01*
X77031879Y-51805498D01*
X76985386Y-51751842D01*
X76974000Y-51699500D01*
X76974000Y-50052868D01*
X76974933Y-50041807D01*
X76974653Y-50041786D01*
X76975092Y-50035813D01*
X76976098Y-50029894D01*
X76974030Y-49935111D01*
X76974000Y-49932363D01*
X76974000Y-49892459D01*
X76973270Y-49884811D01*
X76972731Y-49875599D01*
X76971511Y-49819652D01*
X76971511Y-49819650D01*
X76971380Y-49813653D01*
X76964133Y-49779991D01*
X76961882Y-49765446D01*
X76959183Y-49737162D01*
X76958613Y-49731185D01*
X76941171Y-49671732D01*
X76938900Y-49662787D01*
X76927120Y-49608071D01*
X76927117Y-49608060D01*
X76925856Y-49602205D01*
X76912380Y-49570534D01*
X76907416Y-49556671D01*
X76897726Y-49523640D01*
X76869353Y-49468550D01*
X76865432Y-49460197D01*
X76843520Y-49408702D01*
X76841171Y-49403181D01*
X76821946Y-49374625D01*
X76814450Y-49361950D01*
X76801438Y-49336686D01*
X76798691Y-49331352D01*
X76790559Y-49320999D01*
X76776785Y-49303465D01*
X76760419Y-49282630D01*
X76754985Y-49275165D01*
X76720378Y-49223760D01*
X76716555Y-49219544D01*
X76695362Y-49198351D01*
X76685371Y-49187089D01*
X76668788Y-49165978D01*
X76665083Y-49161261D01*
X76616935Y-49119480D01*
X76610422Y-49113411D01*
X76441293Y-48944282D01*
X76438995Y-48942385D01*
X76438987Y-48942377D01*
X76346566Y-48866056D01*
X76316375Y-48841124D01*
X76126565Y-48737421D01*
X75947797Y-48680197D01*
X75926273Y-48673307D01*
X75926271Y-48673307D01*
X75920568Y-48671481D01*
X75822122Y-48659655D01*
X75711767Y-48646398D01*
X75711763Y-48646398D01*
X75705820Y-48645684D01*
X75699844Y-48646107D01*
X75699841Y-48646107D01*
X75543818Y-48657154D01*
X75474454Y-48642013D01*
X75445824Y-48620564D01*
X74985614Y-48160354D01*
X74951588Y-48098042D01*
X74949399Y-48084429D01*
X74948139Y-48072435D01*
X74934542Y-47943072D01*
X74875527Y-47761444D01*
X74871780Y-47754953D01*
X74820895Y-47666819D01*
X74780040Y-47596056D01*
X74766412Y-47580920D01*
X74656675Y-47459045D01*
X74656674Y-47459044D01*
X74652253Y-47454134D01*
X74545969Y-47376914D01*
X74503094Y-47345763D01*
X74503093Y-47345762D01*
X74497752Y-47341882D01*
X74491724Y-47339198D01*
X74491722Y-47339197D01*
X74329319Y-47266891D01*
X74329318Y-47266891D01*
X74323288Y-47264206D01*
X74229888Y-47244353D01*
X74142944Y-47225872D01*
X74142939Y-47225872D01*
X74136487Y-47224500D01*
X73945513Y-47224500D01*
X73939061Y-47225872D01*
X73939056Y-47225872D01*
X73852112Y-47244353D01*
X73758712Y-47264206D01*
X73752682Y-47266891D01*
X73752681Y-47266891D01*
X73590278Y-47339197D01*
X73590276Y-47339198D01*
X73584248Y-47341882D01*
X73578907Y-47345762D01*
X73578906Y-47345763D01*
X73536031Y-47376914D01*
X73429747Y-47454134D01*
X73425326Y-47459044D01*
X73425325Y-47459045D01*
X73315589Y-47580920D01*
X73301960Y-47596056D01*
X73261105Y-47666819D01*
X73210221Y-47754953D01*
X73206473Y-47761444D01*
X73147458Y-47943072D01*
X73146768Y-47949633D01*
X73146768Y-47949635D01*
X73133338Y-48077419D01*
X73127496Y-48133000D01*
X73128186Y-48139565D01*
X73142580Y-48276512D01*
X73147458Y-48322928D01*
X73149498Y-48329206D01*
X73203876Y-48496564D01*
X73205904Y-48567531D01*
X73169241Y-48628329D01*
X73105529Y-48659655D01*
X73084043Y-48661500D01*
X72642644Y-48661500D01*
X72574523Y-48641498D01*
X72528030Y-48587842D01*
X72517926Y-48517568D01*
X72552160Y-48447815D01*
X72604089Y-48394229D01*
X72604091Y-48394226D01*
X72607992Y-48390201D01*
X72733290Y-48203738D01*
X72823588Y-47998033D01*
X72827946Y-47979884D01*
X72874722Y-47785046D01*
X72874722Y-47785045D01*
X72876032Y-47779589D01*
X72885019Y-47623711D01*
X72888640Y-47560917D01*
X72888640Y-47560914D01*
X72888963Y-47555310D01*
X72861975Y-47332285D01*
X72795918Y-47117565D01*
X72730798Y-46991396D01*
X72695454Y-46922919D01*
X72695454Y-46922918D01*
X72692882Y-46917936D01*
X72657162Y-46871385D01*
X88298000Y-46871385D01*
X88302475Y-46886624D01*
X88303865Y-46887829D01*
X88311548Y-46889500D01*
X89008885Y-46889500D01*
X89024124Y-46885025D01*
X89025329Y-46883635D01*
X89027000Y-46875952D01*
X89027000Y-46871385D01*
X89535000Y-46871385D01*
X89539475Y-46886624D01*
X89540865Y-46887829D01*
X89548548Y-46889500D01*
X90245885Y-46889500D01*
X90261124Y-46885025D01*
X90262329Y-46883635D01*
X90264000Y-46875952D01*
X90264000Y-46797234D01*
X90263663Y-46790718D01*
X90253925Y-46696868D01*
X90251032Y-46683472D01*
X90200512Y-46532047D01*
X90194347Y-46518885D01*
X90110574Y-46383508D01*
X90101540Y-46372110D01*
X89988871Y-46259637D01*
X89977460Y-46250625D01*
X89841937Y-46167088D01*
X89828759Y-46160944D01*
X89677234Y-46110685D01*
X89663868Y-46107819D01*
X89571230Y-46098328D01*
X89564815Y-46098000D01*
X89553115Y-46098000D01*
X89537876Y-46102475D01*
X89536671Y-46103865D01*
X89535000Y-46111548D01*
X89535000Y-46871385D01*
X89027000Y-46871385D01*
X89027000Y-46116115D01*
X89022525Y-46100876D01*
X89021135Y-46099671D01*
X89013452Y-46098000D01*
X88997234Y-46098000D01*
X88990718Y-46098337D01*
X88896868Y-46108075D01*
X88883472Y-46110968D01*
X88732047Y-46161488D01*
X88718885Y-46167653D01*
X88583508Y-46251426D01*
X88572110Y-46260460D01*
X88459637Y-46373129D01*
X88450625Y-46384540D01*
X88367088Y-46520063D01*
X88360944Y-46533241D01*
X88310685Y-46684766D01*
X88307819Y-46698132D01*
X88298328Y-46790770D01*
X88298000Y-46797185D01*
X88298000Y-46871385D01*
X72657162Y-46871385D01*
X72556123Y-46739708D01*
X72410152Y-46606885D01*
X81977000Y-46606885D01*
X81981475Y-46622124D01*
X81982865Y-46623329D01*
X81990548Y-46625000D01*
X82912885Y-46625000D01*
X82928124Y-46620525D01*
X82929329Y-46619135D01*
X82931000Y-46611452D01*
X82931000Y-46606885D01*
X83439000Y-46606885D01*
X83443475Y-46622124D01*
X83444865Y-46623329D01*
X83452548Y-46625000D01*
X84374884Y-46625000D01*
X84390123Y-46620525D01*
X84391328Y-46619135D01*
X84392999Y-46611452D01*
X84392999Y-46481905D01*
X84392662Y-46475386D01*
X84382743Y-46379794D01*
X84379851Y-46366400D01*
X84328412Y-46212216D01*
X84322239Y-46199038D01*
X84236937Y-46061193D01*
X84227901Y-46049792D01*
X84113171Y-45935261D01*
X84101760Y-45926249D01*
X83963757Y-45841184D01*
X83950576Y-45835037D01*
X83796290Y-45783862D01*
X83782914Y-45780995D01*
X83688562Y-45771328D01*
X83682145Y-45771000D01*
X83457115Y-45771000D01*
X83441876Y-45775475D01*
X83440671Y-45776865D01*
X83439000Y-45784548D01*
X83439000Y-46606885D01*
X82931000Y-46606885D01*
X82931000Y-45789116D01*
X82926525Y-45773877D01*
X82925135Y-45772672D01*
X82917452Y-45771001D01*
X82687905Y-45771001D01*
X82681386Y-45771338D01*
X82585794Y-45781257D01*
X82572400Y-45784149D01*
X82418216Y-45835588D01*
X82405038Y-45841761D01*
X82267193Y-45927063D01*
X82255792Y-45936099D01*
X82141261Y-46050829D01*
X82132249Y-46062240D01*
X82047184Y-46200243D01*
X82041037Y-46213424D01*
X81989862Y-46367710D01*
X81986995Y-46381086D01*
X81977328Y-46475438D01*
X81977000Y-46481855D01*
X81977000Y-46606885D01*
X72410152Y-46606885D01*
X72389964Y-46588515D01*
X72385217Y-46585537D01*
X72385214Y-46585535D01*
X72204405Y-46472115D01*
X72199656Y-46469136D01*
X71991217Y-46385344D01*
X71771233Y-46339787D01*
X71766622Y-46339521D01*
X71766621Y-46339521D01*
X71716048Y-46336605D01*
X71716044Y-46336605D01*
X71714225Y-46336500D01*
X70469001Y-46336500D01*
X70466214Y-46336749D01*
X70466208Y-46336749D01*
X70396071Y-46343009D01*
X70302238Y-46351383D01*
X70296824Y-46352864D01*
X70296819Y-46352865D01*
X70178099Y-46385344D01*
X70085549Y-46410663D01*
X70080491Y-46413075D01*
X70080487Y-46413077D01*
X70004700Y-46449226D01*
X69950456Y-46461500D01*
X67535500Y-46461500D01*
X67467379Y-46441498D01*
X67420886Y-46387842D01*
X67409500Y-46335500D01*
X67409500Y-46201500D01*
X67429502Y-46133379D01*
X67483158Y-46086886D01*
X67535500Y-46075500D01*
X68844133Y-46075500D01*
X68855194Y-46076433D01*
X68855215Y-46076153D01*
X68861188Y-46076592D01*
X68867107Y-46077598D01*
X68961871Y-46075530D01*
X68964619Y-46075500D01*
X69004541Y-46075500D01*
X69012205Y-46074769D01*
X69021401Y-46074231D01*
X69057065Y-46073453D01*
X69077352Y-46073010D01*
X69077353Y-46073010D01*
X69083348Y-46072879D01*
X69116995Y-46065635D01*
X69131544Y-46063383D01*
X69152010Y-46061430D01*
X69165815Y-46060113D01*
X69197461Y-46050829D01*
X69225268Y-46042671D01*
X69234219Y-46040397D01*
X69294795Y-46027356D01*
X69326466Y-46013880D01*
X69340327Y-46008917D01*
X69373360Y-45999226D01*
X69428441Y-45970858D01*
X69436786Y-45966939D01*
X69493820Y-45942671D01*
X69522379Y-45923444D01*
X69535054Y-45915948D01*
X69540312Y-45913240D01*
X69565648Y-45900191D01*
X69614374Y-45861917D01*
X69621824Y-45856494D01*
X69669481Y-45824409D01*
X69669483Y-45824407D01*
X69673240Y-45821878D01*
X69677456Y-45818055D01*
X69698649Y-45796862D01*
X69709911Y-45786871D01*
X69717058Y-45781257D01*
X69735739Y-45766583D01*
X69777520Y-45718435D01*
X69783589Y-45711922D01*
X69927718Y-45567793D01*
X69929615Y-45565495D01*
X69929623Y-45565487D01*
X69987433Y-45495482D01*
X70030876Y-45442875D01*
X70105994Y-45305385D01*
X70131705Y-45258326D01*
X70131706Y-45258323D01*
X70134579Y-45253065D01*
X70147041Y-45214135D01*
X70182644Y-45102906D01*
X70200518Y-45047068D01*
X70211383Y-44956625D01*
X70225602Y-44838267D01*
X70225602Y-44838264D01*
X70226316Y-44832321D01*
X70224277Y-44803517D01*
X70211464Y-44622551D01*
X70211463Y-44622547D01*
X70211040Y-44616568D01*
X70155242Y-44407597D01*
X70060934Y-44212947D01*
X69986684Y-44113512D01*
X69935113Y-44044450D01*
X69931522Y-44039641D01*
X69918176Y-44027476D01*
X69881308Y-43966803D01*
X69883095Y-43895828D01*
X69906712Y-43857107D01*
X69904825Y-43855617D01*
X69918375Y-43838460D01*
X70001912Y-43702937D01*
X70008056Y-43689759D01*
X70058315Y-43538234D01*
X70061181Y-43524868D01*
X70070672Y-43432230D01*
X70071000Y-43425815D01*
X70071000Y-43351615D01*
X70066525Y-43336376D01*
X70065135Y-43335171D01*
X70057452Y-43333500D01*
X68191000Y-43333500D01*
X68122879Y-43313498D01*
X68076386Y-43259842D01*
X68070213Y-43231466D01*
X68070104Y-43231498D01*
X68060525Y-43198876D01*
X68059135Y-43197671D01*
X68051452Y-43196000D01*
X65739116Y-43196000D01*
X65723877Y-43200475D01*
X65722672Y-43201865D01*
X65721001Y-43209548D01*
X65721001Y-43339095D01*
X65721338Y-43345614D01*
X65731257Y-43441206D01*
X65734149Y-43454600D01*
X65785588Y-43608784D01*
X65791761Y-43621962D01*
X65877063Y-43759807D01*
X65886099Y-43771208D01*
X65967462Y-43852430D01*
X66001541Y-43914713D01*
X65996538Y-43985533D01*
X65967617Y-44030620D01*
X65884870Y-44113512D01*
X65884866Y-44113517D01*
X65879695Y-44118697D01*
X65875855Y-44124927D01*
X65875854Y-44124928D01*
X65818270Y-44218347D01*
X65786885Y-44269262D01*
X65784581Y-44276209D01*
X65741002Y-44407597D01*
X65731203Y-44437139D01*
X65730502Y-44443977D01*
X65730502Y-44443979D01*
X65724394Y-44503592D01*
X65697552Y-44569319D01*
X65688145Y-44579844D01*
X65549709Y-44718280D01*
X65541224Y-44725444D01*
X65541408Y-44725657D01*
X65536872Y-44729572D01*
X65531979Y-44733043D01*
X65527833Y-44737374D01*
X65466395Y-44801553D01*
X65464472Y-44803517D01*
X65436282Y-44831707D01*
X65434373Y-44834019D01*
X65434370Y-44834022D01*
X65431396Y-44837624D01*
X65425261Y-44844521D01*
X65386563Y-44884946D01*
X65386560Y-44884950D01*
X65382410Y-44889285D01*
X65379157Y-44894324D01*
X65379154Y-44894327D01*
X65363740Y-44918200D01*
X65355042Y-44930083D01*
X65333124Y-44956625D01*
X65303406Y-45011019D01*
X65298693Y-45018939D01*
X65268341Y-45065946D01*
X65268339Y-45065950D01*
X65265084Y-45070991D01*
X65252216Y-45102920D01*
X65245928Y-45116222D01*
X65229421Y-45146435D01*
X65227595Y-45152140D01*
X65227594Y-45152142D01*
X65210531Y-45205449D01*
X65207395Y-45214135D01*
X65184234Y-45271604D01*
X65183084Y-45277490D01*
X65183084Y-45277492D01*
X65177637Y-45305385D01*
X65173975Y-45319648D01*
X65163481Y-45352432D01*
X65162766Y-45358381D01*
X65162765Y-45358387D01*
X65156089Y-45413955D01*
X65154653Y-45423075D01*
X65151815Y-45437610D01*
X65142778Y-45483887D01*
X65142500Y-45489571D01*
X65142500Y-45519545D01*
X65141601Y-45534573D01*
X65137684Y-45567180D01*
X65138107Y-45573156D01*
X65138107Y-45573159D01*
X65142185Y-45630751D01*
X65142500Y-45639650D01*
X65142500Y-46400771D01*
X65122498Y-46468892D01*
X65082689Y-46507249D01*
X65082782Y-46507378D01*
X64900346Y-46638471D01*
X64849452Y-46690989D01*
X64752758Y-46790770D01*
X64744008Y-46799799D01*
X64618710Y-46986262D01*
X64528412Y-47191967D01*
X64527103Y-47197418D01*
X64527102Y-47197422D01*
X64477278Y-47404954D01*
X64475968Y-47410411D01*
X64472273Y-47474500D01*
X64464834Y-47603528D01*
X64463037Y-47634690D01*
X64490025Y-47857715D01*
X64556082Y-48072435D01*
X64558652Y-48077415D01*
X64558654Y-48077419D01*
X64648287Y-48251080D01*
X64659118Y-48272064D01*
X64795877Y-48450292D01*
X64962036Y-48601485D01*
X64966783Y-48604463D01*
X64966786Y-48604465D01*
X65083456Y-48677651D01*
X65130534Y-48730795D01*
X65142500Y-48784389D01*
X65142500Y-54000771D01*
X65122498Y-54068892D01*
X65082689Y-54107249D01*
X65082782Y-54107378D01*
X64900346Y-54238471D01*
X64877001Y-54262561D01*
X64805899Y-54335933D01*
X64744008Y-54399799D01*
X64618710Y-54586262D01*
X64528412Y-54791967D01*
X64527103Y-54797418D01*
X64527102Y-54797422D01*
X64479535Y-54995553D01*
X64475968Y-55010411D01*
X64463037Y-55234690D01*
X64490025Y-55457715D01*
X64556082Y-55672435D01*
X64558652Y-55677415D01*
X64558654Y-55677419D01*
X64623852Y-55803738D01*
X64659118Y-55872064D01*
X64795877Y-56050292D01*
X64962036Y-56201485D01*
X64966783Y-56204463D01*
X64966786Y-56204465D01*
X65147595Y-56317885D01*
X65152344Y-56320864D01*
X65360783Y-56404656D01*
X65580767Y-56450213D01*
X65585378Y-56450479D01*
X65585379Y-56450479D01*
X65635952Y-56453395D01*
X65635956Y-56453395D01*
X65637775Y-56453500D01*
X66882999Y-56453500D01*
X66885786Y-56453251D01*
X66885792Y-56453251D01*
X66964571Y-56446220D01*
X67049762Y-56438617D01*
X67055176Y-56437136D01*
X67055181Y-56437135D01*
X67182912Y-56402191D01*
X67266451Y-56379337D01*
X67271509Y-56376925D01*
X67271513Y-56376923D01*
X67347300Y-56340774D01*
X67401544Y-56328500D01*
X69946963Y-56328500D01*
X69993957Y-56337592D01*
X70160783Y-56404656D01*
X70380767Y-56450213D01*
X70385378Y-56450479D01*
X70385379Y-56450479D01*
X70435952Y-56453395D01*
X70435956Y-56453395D01*
X70437775Y-56453500D01*
X71682999Y-56453500D01*
X71685786Y-56453251D01*
X71685792Y-56453251D01*
X71764571Y-56446220D01*
X71849762Y-56438617D01*
X71855176Y-56437136D01*
X71855181Y-56437135D01*
X71982912Y-56402191D01*
X72066451Y-56379337D01*
X72071509Y-56376925D01*
X72071513Y-56376923D01*
X72176295Y-56326944D01*
X72269218Y-56282622D01*
X72451654Y-56151529D01*
X72522655Y-56078262D01*
X72604089Y-55994229D01*
X72604091Y-55994226D01*
X72607992Y-55990201D01*
X72733290Y-55803738D01*
X72823588Y-55598033D01*
X72830759Y-55568167D01*
X72874722Y-55385046D01*
X72874722Y-55385045D01*
X72876032Y-55379589D01*
X72888963Y-55155310D01*
X72861975Y-54932285D01*
X72795918Y-54717565D01*
X72784307Y-54695068D01*
X72695454Y-54522919D01*
X72695454Y-54522918D01*
X72692882Y-54517936D01*
X72556123Y-54339708D01*
X72551978Y-54335937D01*
X72551975Y-54335933D01*
X72413627Y-54210046D01*
X72376704Y-54149405D01*
X72378427Y-54078430D01*
X72418249Y-54019653D01*
X72436859Y-54006918D01*
X72601230Y-53914865D01*
X72610705Y-53908353D01*
X72644445Y-53880292D01*
X72709609Y-53852111D01*
X72779665Y-53863635D01*
X72823760Y-53898902D01*
X72835098Y-53913207D01*
X72949829Y-54027739D01*
X72961240Y-54036751D01*
X73099243Y-54121816D01*
X73112424Y-54127963D01*
X73266710Y-54179138D01*
X73280086Y-54182005D01*
X73374438Y-54191672D01*
X73380854Y-54192000D01*
X73493385Y-54192000D01*
X73508624Y-54187525D01*
X73509829Y-54186135D01*
X73511500Y-54178452D01*
X73511500Y-51744116D01*
X73507025Y-51728877D01*
X73505635Y-51727672D01*
X73497952Y-51726001D01*
X73380905Y-51726001D01*
X73374386Y-51726338D01*
X73278794Y-51736257D01*
X73265395Y-51739150D01*
X73229038Y-51751280D01*
X73158089Y-51753866D01*
X73097004Y-51717682D01*
X73065179Y-51654218D01*
X73064465Y-51613678D01*
X73087190Y-51456939D01*
X73087723Y-51453263D01*
X73089249Y-51395000D01*
X73075749Y-51248077D01*
X73071137Y-51197880D01*
X73071136Y-51197877D01*
X73070608Y-51192126D01*
X73041439Y-51088702D01*
X73042199Y-51017709D01*
X73081220Y-50958398D01*
X73146113Y-50929598D01*
X73162708Y-50928500D01*
X73810633Y-50928500D01*
X73821694Y-50929433D01*
X73821715Y-50929153D01*
X73827688Y-50929592D01*
X73833607Y-50930598D01*
X73928371Y-50928530D01*
X73931119Y-50928500D01*
X73971041Y-50928500D01*
X73978705Y-50927769D01*
X73987901Y-50927231D01*
X74023565Y-50926453D01*
X74043852Y-50926010D01*
X74043853Y-50926010D01*
X74049848Y-50925879D01*
X74083495Y-50918635D01*
X74098044Y-50916383D01*
X74118510Y-50914430D01*
X74132315Y-50913113D01*
X74191768Y-50895671D01*
X74200719Y-50893397D01*
X74261295Y-50880356D01*
X74286198Y-50869760D01*
X74292966Y-50866880D01*
X74306827Y-50861917D01*
X74339860Y-50852226D01*
X74394941Y-50823858D01*
X74403286Y-50819939D01*
X74460320Y-50795671D01*
X74488879Y-50776444D01*
X74501554Y-50768948D01*
X74523308Y-50757744D01*
X74593027Y-50744335D01*
X74658927Y-50770748D01*
X74700087Y-50828597D01*
X74707000Y-50869760D01*
X74707000Y-51740163D01*
X74686998Y-51808284D01*
X74633342Y-51854777D01*
X74563068Y-51864881D01*
X74514885Y-51847423D01*
X74431762Y-51796186D01*
X74418576Y-51790037D01*
X74264290Y-51738862D01*
X74250914Y-51735995D01*
X74156562Y-51726328D01*
X74150145Y-51726000D01*
X74037615Y-51726000D01*
X74022376Y-51730475D01*
X74021171Y-51731865D01*
X74019500Y-51739548D01*
X74019500Y-54173884D01*
X74023975Y-54189123D01*
X74025365Y-54190328D01*
X74033048Y-54191999D01*
X74150095Y-54191999D01*
X74156614Y-54191662D01*
X74252206Y-54181743D01*
X74265600Y-54178851D01*
X74419784Y-54127412D01*
X74432962Y-54121239D01*
X74514697Y-54070659D01*
X74583148Y-54051821D01*
X74650918Y-54072982D01*
X74696489Y-54127423D01*
X74707000Y-54177803D01*
X74707000Y-54701799D01*
X74686998Y-54769920D01*
X74670095Y-54790894D01*
X73568709Y-55892280D01*
X73560224Y-55899444D01*
X73560408Y-55899657D01*
X73555872Y-55903572D01*
X73550979Y-55907043D01*
X73546833Y-55911374D01*
X73485395Y-55975553D01*
X73483472Y-55977517D01*
X73455282Y-56005707D01*
X73453373Y-56008019D01*
X73453370Y-56008022D01*
X73450396Y-56011624D01*
X73444261Y-56018521D01*
X73405563Y-56058946D01*
X73405560Y-56058950D01*
X73401410Y-56063285D01*
X73398157Y-56068324D01*
X73398154Y-56068327D01*
X73382740Y-56092200D01*
X73374042Y-56104083D01*
X73352124Y-56130625D01*
X73322406Y-56185019D01*
X73317693Y-56192939D01*
X73287341Y-56239946D01*
X73287339Y-56239950D01*
X73284084Y-56244991D01*
X73271216Y-56276920D01*
X73264928Y-56290222D01*
X73248421Y-56320435D01*
X73246595Y-56326140D01*
X73246594Y-56326142D01*
X73240127Y-56346346D01*
X73230340Y-56376923D01*
X73229531Y-56379449D01*
X73226395Y-56388135D01*
X73220581Y-56402561D01*
X73203234Y-56445604D01*
X73202084Y-56451490D01*
X73202084Y-56451492D01*
X73196637Y-56479385D01*
X73192975Y-56493648D01*
X73182481Y-56526432D01*
X73181766Y-56532381D01*
X73181765Y-56532387D01*
X73175089Y-56587955D01*
X73173653Y-56597075D01*
X73170852Y-56611419D01*
X73161778Y-56657887D01*
X73161500Y-56663571D01*
X73161500Y-56693545D01*
X73160601Y-56708573D01*
X73159861Y-56714737D01*
X73156684Y-56741180D01*
X73157107Y-56747156D01*
X73157107Y-56747159D01*
X73161185Y-56804751D01*
X73161500Y-56813650D01*
X73161500Y-58084633D01*
X73160567Y-58095694D01*
X73160847Y-58095715D01*
X73160408Y-58101688D01*
X73159402Y-58107607D01*
X73159533Y-58113608D01*
X73161470Y-58202370D01*
X73161500Y-58205119D01*
X73161500Y-58245041D01*
X73162231Y-58252705D01*
X73162769Y-58261906D01*
X73163956Y-58316268D01*
X73164121Y-58323848D01*
X73165383Y-58329708D01*
X73171365Y-58357494D01*
X73173617Y-58372044D01*
X73176887Y-58406315D01*
X73178577Y-58412075D01*
X73178577Y-58412076D01*
X73194329Y-58465768D01*
X73196603Y-58474717D01*
X73209644Y-58535295D01*
X73211992Y-58540814D01*
X73211993Y-58540816D01*
X73223120Y-58566966D01*
X73228083Y-58580827D01*
X73237774Y-58613860D01*
X73264450Y-58665654D01*
X73266139Y-58668934D01*
X73270061Y-58677286D01*
X73294329Y-58734320D01*
X73297680Y-58739297D01*
X73313556Y-58762879D01*
X73321052Y-58775554D01*
X73336809Y-58806148D01*
X73375083Y-58854874D01*
X73380506Y-58862324D01*
X73408373Y-58903715D01*
X73415122Y-58913740D01*
X73418945Y-58917956D01*
X73440138Y-58939149D01*
X73450128Y-58950410D01*
X73470417Y-58976239D01*
X73474947Y-58980170D01*
X73474948Y-58980171D01*
X73518564Y-59018019D01*
X73525078Y-59024089D01*
X74723029Y-60222041D01*
X74756851Y-60283434D01*
X74772222Y-60351639D01*
X74856266Y-60558616D01*
X74972987Y-60749088D01*
X75119250Y-60917938D01*
X75291126Y-61060632D01*
X75484000Y-61173338D01*
X75488825Y-61175180D01*
X75488826Y-61175181D01*
X75516807Y-61185866D01*
X75692692Y-61253030D01*
X75697760Y-61254061D01*
X75697763Y-61254062D01*
X75766807Y-61268109D01*
X75911597Y-61297567D01*
X75916772Y-61297757D01*
X75916774Y-61297757D01*
X76129673Y-61305564D01*
X76129677Y-61305564D01*
X76134837Y-61305753D01*
X76139957Y-61305097D01*
X76139959Y-61305097D01*
X76351288Y-61278025D01*
X76351289Y-61278025D01*
X76356416Y-61277368D01*
X76407890Y-61261925D01*
X76565429Y-61214661D01*
X76565434Y-61214659D01*
X76570384Y-61213174D01*
X76626000Y-61185928D01*
X76766349Y-61117172D01*
X76766353Y-61117170D01*
X76770994Y-61114896D01*
X76771055Y-61114852D01*
X76834054Y-61097500D01*
X77291923Y-61097500D01*
X77360044Y-61117502D01*
X77392752Y-61147938D01*
X77399739Y-61157261D01*
X77406919Y-61162642D01*
X77406922Y-61162645D01*
X77441250Y-61188372D01*
X77516295Y-61244615D01*
X77652684Y-61295745D01*
X77714866Y-61302500D01*
X79511134Y-61302500D01*
X79573316Y-61295745D01*
X79709705Y-61244615D01*
X79826261Y-61157261D01*
X79913615Y-61040705D01*
X79964745Y-60904316D01*
X79971500Y-60842134D01*
X79971500Y-59045866D01*
X79964745Y-58983684D01*
X79913615Y-58847295D01*
X79826261Y-58730739D01*
X79709705Y-58643385D01*
X79590687Y-58598767D01*
X79533923Y-58556125D01*
X79509223Y-58489564D01*
X79524430Y-58420215D01*
X79545977Y-58391535D01*
X79647052Y-58290812D01*
X79653730Y-58282965D01*
X79778003Y-58110020D01*
X79783313Y-58101183D01*
X79877670Y-57910267D01*
X79881469Y-57900672D01*
X79943377Y-57696910D01*
X79945555Y-57686837D01*
X79946986Y-57675962D01*
X79944775Y-57661778D01*
X79931617Y-57658000D01*
X75945000Y-57658000D01*
X75876879Y-57637998D01*
X75830386Y-57584342D01*
X75819000Y-57532000D01*
X75819000Y-57276000D01*
X75839002Y-57207879D01*
X75892658Y-57161386D01*
X75945000Y-57150000D01*
X79931344Y-57150000D01*
X79944875Y-57146027D01*
X79946180Y-57136947D01*
X79904214Y-56969875D01*
X79900894Y-56960124D01*
X79815972Y-56764814D01*
X79811105Y-56755739D01*
X79695426Y-56576926D01*
X79689136Y-56568758D01*
X79622294Y-56495299D01*
X79591242Y-56431454D01*
X79599638Y-56360955D01*
X79644814Y-56306187D01*
X79715488Y-56284500D01*
X80562944Y-56284500D01*
X80574800Y-56285059D01*
X80574803Y-56285059D01*
X80582537Y-56286788D01*
X80653369Y-56284562D01*
X80657327Y-56284500D01*
X80686432Y-56284500D01*
X80690832Y-56283944D01*
X80702664Y-56283012D01*
X80748831Y-56281562D01*
X80756445Y-56279350D01*
X80764273Y-56278110D01*
X80764787Y-56281356D01*
X80820698Y-56281528D01*
X80880306Y-56320095D01*
X80882891Y-56323361D01*
X80884960Y-56326944D01*
X80889375Y-56331848D01*
X80889377Y-56331850D01*
X80957800Y-56407841D01*
X81012747Y-56468866D01*
X81100176Y-56532387D01*
X81133391Y-56556519D01*
X81167248Y-56581118D01*
X81173276Y-56583802D01*
X81173278Y-56583803D01*
X81329682Y-56653438D01*
X81341712Y-56658794D01*
X81435112Y-56678647D01*
X81522056Y-56697128D01*
X81522061Y-56697128D01*
X81528513Y-56698500D01*
X81719487Y-56698500D01*
X81725939Y-56697128D01*
X81725944Y-56697128D01*
X81812887Y-56678647D01*
X81906288Y-56658794D01*
X81912315Y-56656111D01*
X81912323Y-56656108D01*
X81970536Y-56630189D01*
X82040903Y-56620754D01*
X82105201Y-56650860D01*
X82125320Y-56682831D01*
X82128063Y-56681068D01*
X82149701Y-56714737D01*
X83102492Y-57667528D01*
X83136518Y-57729840D01*
X83131453Y-57800655D01*
X83102492Y-57845718D01*
X82921472Y-58026738D01*
X82859160Y-58060764D01*
X82788345Y-58055699D01*
X82743282Y-58026738D01*
X81793722Y-57077178D01*
X81779778Y-57069564D01*
X81777945Y-57069695D01*
X81771330Y-57073946D01*
X81688558Y-57156718D01*
X81684209Y-57161541D01*
X81623610Y-57236171D01*
X81616188Y-57247682D01*
X81543534Y-57393083D01*
X81538584Y-57406757D01*
X81501429Y-57564556D01*
X81499757Y-57579001D01*
X81499898Y-57741117D01*
X81501594Y-57755553D01*
X81539027Y-57913290D01*
X81544000Y-57926954D01*
X81616911Y-58072238D01*
X81624342Y-58083723D01*
X81684224Y-58157278D01*
X81688532Y-58162049D01*
X81711888Y-58185405D01*
X81745914Y-58247717D01*
X81740849Y-58318532D01*
X81698302Y-58375368D01*
X81631782Y-58400179D01*
X81622793Y-58400500D01*
X81565513Y-58400500D01*
X81559061Y-58401872D01*
X81559056Y-58401872D01*
X81472762Y-58420215D01*
X81378712Y-58440206D01*
X81372682Y-58442891D01*
X81372681Y-58442891D01*
X81210278Y-58515197D01*
X81210276Y-58515198D01*
X81204248Y-58517882D01*
X81049747Y-58630134D01*
X81045326Y-58635044D01*
X81045325Y-58635045D01*
X80955938Y-58734320D01*
X80921960Y-58772056D01*
X80878521Y-58847295D01*
X80840159Y-58913740D01*
X80826473Y-58937444D01*
X80767458Y-59119072D01*
X80766768Y-59125633D01*
X80766768Y-59125635D01*
X80760249Y-59187658D01*
X80747496Y-59309000D01*
X80748186Y-59315565D01*
X80766138Y-59486365D01*
X80767458Y-59498928D01*
X80826473Y-59680556D01*
X80829776Y-59686278D01*
X80829777Y-59686279D01*
X80835716Y-59696565D01*
X80921960Y-59845944D01*
X80926378Y-59850851D01*
X80926379Y-59850852D01*
X81035447Y-59971984D01*
X81049747Y-59987866D01*
X81204248Y-60100118D01*
X81210276Y-60102802D01*
X81210278Y-60102803D01*
X81372681Y-60175109D01*
X81378712Y-60177794D01*
X81472113Y-60197647D01*
X81559056Y-60216128D01*
X81559061Y-60216128D01*
X81565513Y-60217500D01*
X81756487Y-60217500D01*
X81762939Y-60216128D01*
X81762944Y-60216128D01*
X81849887Y-60197647D01*
X81943288Y-60177794D01*
X81949319Y-60175109D01*
X82111722Y-60102803D01*
X82111724Y-60102802D01*
X82117752Y-60100118D01*
X82267163Y-59991564D01*
X82334031Y-59967706D01*
X82341224Y-59967500D01*
X83973472Y-59967500D01*
X83985328Y-59968059D01*
X83985331Y-59968059D01*
X83993065Y-59969788D01*
X84063897Y-59967562D01*
X84067855Y-59967500D01*
X84096960Y-59967500D01*
X84101360Y-59966944D01*
X84113192Y-59966012D01*
X84159359Y-59964562D01*
X84179949Y-59958580D01*
X84199310Y-59954570D01*
X84206298Y-59953688D01*
X84212732Y-59952875D01*
X84212733Y-59952875D01*
X84220592Y-59951882D01*
X84227957Y-59948966D01*
X84227961Y-59948965D01*
X84263549Y-59934874D01*
X84274759Y-59931035D01*
X84319128Y-59918145D01*
X84320541Y-59917310D01*
X84388228Y-59908956D01*
X84452206Y-59939736D01*
X84487637Y-59994353D01*
X84509473Y-60061556D01*
X84512776Y-60067278D01*
X84512777Y-60067279D01*
X84518534Y-60077250D01*
X84604960Y-60226944D01*
X84609378Y-60231851D01*
X84609379Y-60231852D01*
X84647549Y-60274244D01*
X84732747Y-60368866D01*
X84831843Y-60440864D01*
X84850652Y-60454529D01*
X84887248Y-60481118D01*
X84893276Y-60483802D01*
X84893278Y-60483803D01*
X84983949Y-60524172D01*
X85061712Y-60558794D01*
X85125888Y-60572435D01*
X85242056Y-60597128D01*
X85242061Y-60597128D01*
X85248513Y-60598500D01*
X85439487Y-60598500D01*
X85445939Y-60597128D01*
X85445944Y-60597128D01*
X85562112Y-60572435D01*
X85626288Y-60558794D01*
X85704051Y-60524172D01*
X85794722Y-60483803D01*
X85794724Y-60483802D01*
X85800752Y-60481118D01*
X85837349Y-60454529D01*
X85856157Y-60440864D01*
X85955253Y-60368866D01*
X86040451Y-60274244D01*
X86078621Y-60231852D01*
X86078622Y-60231851D01*
X86083040Y-60226944D01*
X86169466Y-60077250D01*
X86175223Y-60067279D01*
X86175224Y-60067278D01*
X86178527Y-60061556D01*
X86237542Y-59879928D01*
X86239638Y-59859991D01*
X86256814Y-59696565D01*
X86257504Y-59690000D01*
X86247118Y-59591186D01*
X86238232Y-59506635D01*
X86238232Y-59506633D01*
X86237542Y-59500072D01*
X86178527Y-59318444D01*
X86173075Y-59309000D01*
X86137435Y-59247271D01*
X86083040Y-59153056D01*
X86065950Y-59134075D01*
X86052557Y-59119201D01*
X86021839Y-59055194D01*
X86030604Y-58984740D01*
X86057098Y-58945796D01*
X87010405Y-57992489D01*
X87072717Y-57958463D01*
X87143532Y-57963528D01*
X87200368Y-58006075D01*
X87225179Y-58072595D01*
X87225500Y-58081584D01*
X87225500Y-60115944D01*
X87224941Y-60127800D01*
X87223212Y-60135537D01*
X87223461Y-60143459D01*
X87225438Y-60206369D01*
X87225500Y-60210327D01*
X87225500Y-60239432D01*
X87226056Y-60243832D01*
X87226988Y-60255664D01*
X87228438Y-60301831D01*
X87230650Y-60309444D01*
X87230650Y-60309445D01*
X87234419Y-60322416D01*
X87238430Y-60341782D01*
X87241118Y-60363064D01*
X87244034Y-60370429D01*
X87244035Y-60370433D01*
X87258126Y-60406021D01*
X87261965Y-60417231D01*
X87274855Y-60461600D01*
X87285775Y-60480065D01*
X87294466Y-60497805D01*
X87302365Y-60517756D01*
X87329516Y-60555126D01*
X87336033Y-60565048D01*
X87355507Y-60597977D01*
X87355510Y-60597981D01*
X87359547Y-60604807D01*
X87374711Y-60619971D01*
X87387551Y-60635004D01*
X87400159Y-60652357D01*
X87435752Y-60681802D01*
X87444532Y-60689792D01*
X88630345Y-61875605D01*
X88638335Y-61884385D01*
X88642584Y-61891080D01*
X88648362Y-61896506D01*
X88648363Y-61896507D01*
X88694257Y-61939604D01*
X88697099Y-61942359D01*
X88717667Y-61962927D01*
X88721170Y-61965644D01*
X88730195Y-61973352D01*
X88763867Y-62004972D01*
X88770812Y-62008790D01*
X88770816Y-62008793D01*
X88782653Y-62015300D01*
X88799181Y-62026156D01*
X88816131Y-62039304D01*
X88858545Y-62057659D01*
X88869183Y-62062871D01*
X88909663Y-62085124D01*
X88917342Y-62087096D01*
X88924713Y-62090014D01*
X88923550Y-62092951D01*
X88971969Y-62121770D01*
X89003659Y-62185302D01*
X88995971Y-62255881D01*
X88951346Y-62311099D01*
X88879630Y-62333500D01*
X73354500Y-62333500D01*
X73286379Y-62313498D01*
X73239886Y-62259842D01*
X73228500Y-62207500D01*
X73228500Y-61729600D01*
X73227913Y-61723944D01*
X73218238Y-61630692D01*
X73218237Y-61630688D01*
X73217526Y-61623834D01*
X73199821Y-61570764D01*
X73167726Y-61474565D01*
X73161550Y-61456054D01*
X73068478Y-61305652D01*
X72943303Y-61180695D01*
X72934358Y-61175181D01*
X72798968Y-61091725D01*
X72798966Y-61091724D01*
X72792738Y-61087885D01*
X72680532Y-61050668D01*
X72631389Y-61034368D01*
X72631387Y-61034368D01*
X72624861Y-61032203D01*
X72618025Y-61031503D01*
X72618022Y-61031502D01*
X72574969Y-61027091D01*
X72520400Y-61021500D01*
X71719600Y-61021500D01*
X71716354Y-61021837D01*
X71716350Y-61021837D01*
X71620692Y-61031762D01*
X71620688Y-61031763D01*
X71613834Y-61032474D01*
X71607298Y-61034655D01*
X71607296Y-61034655D01*
X71532216Y-61059704D01*
X71446054Y-61088450D01*
X71295652Y-61181522D01*
X71229523Y-61247767D01*
X71209216Y-61268109D01*
X71146934Y-61302188D01*
X71076114Y-61297185D01*
X71031025Y-61268264D01*
X70948483Y-61185866D01*
X70943303Y-61180695D01*
X70934358Y-61175181D01*
X70798968Y-61091725D01*
X70798966Y-61091724D01*
X70792738Y-61087885D01*
X70680532Y-61050668D01*
X70631389Y-61034368D01*
X70631387Y-61034368D01*
X70624861Y-61032203D01*
X70618025Y-61031503D01*
X70618022Y-61031502D01*
X70574969Y-61027091D01*
X70520400Y-61021500D01*
X69719600Y-61021500D01*
X69716354Y-61021837D01*
X69716350Y-61021837D01*
X69620692Y-61031762D01*
X69620688Y-61031763D01*
X69613834Y-61032474D01*
X69607298Y-61034655D01*
X69607296Y-61034655D01*
X69532216Y-61059704D01*
X69446054Y-61088450D01*
X69295652Y-61181522D01*
X69290479Y-61186704D01*
X69232669Y-61244615D01*
X69170695Y-61306697D01*
X69166855Y-61312927D01*
X69166854Y-61312928D01*
X69086904Y-61442631D01*
X69077885Y-61457262D01*
X69072146Y-61474565D01*
X69068629Y-61485169D01*
X69028197Y-61543528D01*
X68962633Y-61570764D01*
X68949036Y-61571500D01*
X68269631Y-61571500D01*
X68201510Y-61551498D01*
X68186939Y-61539767D01*
X68186929Y-61539780D01*
X68181183Y-61535242D01*
X68176003Y-61530071D01*
X68069149Y-61464205D01*
X68034150Y-61442631D01*
X68034148Y-61442630D01*
X68027920Y-61438791D01*
X67862809Y-61384026D01*
X67855973Y-61383326D01*
X67855970Y-61383325D01*
X67804474Y-61378049D01*
X67760072Y-61373500D01*
X67060928Y-61373500D01*
X67057682Y-61373837D01*
X67057678Y-61373837D01*
X66963765Y-61383581D01*
X66963761Y-61383582D01*
X66956907Y-61384293D01*
X66950371Y-61386474D01*
X66950369Y-61386474D01*
X66871608Y-61412751D01*
X66791893Y-61439346D01*
X66643969Y-61530884D01*
X66638797Y-61536065D01*
X66636727Y-61538139D01*
X66634962Y-61539105D01*
X66633059Y-61540613D01*
X66632801Y-61540287D01*
X66574446Y-61572219D01*
X66503625Y-61567218D01*
X66458530Y-61538292D01*
X66455869Y-61535636D01*
X66444460Y-61526625D01*
X66308937Y-61443088D01*
X66295759Y-61436944D01*
X66144234Y-61386685D01*
X66130868Y-61383819D01*
X66038230Y-61374328D01*
X66031815Y-61374000D01*
X65957615Y-61374000D01*
X65942376Y-61378475D01*
X65941171Y-61379865D01*
X65939500Y-61387548D01*
X65939500Y-63321885D01*
X65943975Y-63337124D01*
X65945365Y-63338329D01*
X65953048Y-63340000D01*
X66031766Y-63340000D01*
X66038282Y-63339663D01*
X66132132Y-63329925D01*
X66145528Y-63327032D01*
X66296953Y-63276512D01*
X66310115Y-63270347D01*
X66445492Y-63186574D01*
X66456894Y-63177536D01*
X66458567Y-63175861D01*
X66459993Y-63175081D01*
X66462627Y-63172993D01*
X66462984Y-63173444D01*
X66520849Y-63141781D01*
X66591669Y-63146784D01*
X66636754Y-63175701D01*
X66639421Y-63178363D01*
X66644997Y-63183929D01*
X66651227Y-63187769D01*
X66651228Y-63187770D01*
X66747103Y-63246868D01*
X66793080Y-63275209D01*
X66958191Y-63329974D01*
X66965027Y-63330674D01*
X66965030Y-63330675D01*
X67012370Y-63335525D01*
X67060928Y-63340500D01*
X67760072Y-63340500D01*
X67763318Y-63340163D01*
X67763322Y-63340163D01*
X67857235Y-63330419D01*
X67857239Y-63330418D01*
X67864093Y-63329707D01*
X67870629Y-63327526D01*
X67870631Y-63327526D01*
X68017645Y-63278478D01*
X68029107Y-63274654D01*
X68177031Y-63183116D01*
X68184433Y-63175701D01*
X68294758Y-63065184D01*
X68294762Y-63065179D01*
X68299929Y-63060003D01*
X68368732Y-62948384D01*
X68421504Y-62900891D01*
X68475992Y-62888500D01*
X68811500Y-62888500D01*
X68879621Y-62908502D01*
X68926114Y-62962158D01*
X68937500Y-63014500D01*
X68937500Y-63460241D01*
X68917498Y-63528362D01*
X68905136Y-63544551D01*
X68856960Y-63598056D01*
X68761473Y-63763444D01*
X68702458Y-63945072D01*
X68701768Y-63951633D01*
X68701768Y-63951635D01*
X68694709Y-64018800D01*
X68682496Y-64135000D01*
X68683186Y-64141565D01*
X68701463Y-64315457D01*
X68702458Y-64324928D01*
X68761473Y-64506556D01*
X68856960Y-64671944D01*
X68861378Y-64676851D01*
X68861379Y-64676852D01*
X68923724Y-64746093D01*
X68984747Y-64813866D01*
X69139248Y-64926118D01*
X69145276Y-64928802D01*
X69145278Y-64928803D01*
X69307681Y-65001109D01*
X69313712Y-65003794D01*
X69407113Y-65023647D01*
X69494056Y-65042128D01*
X69494061Y-65042128D01*
X69500513Y-65043500D01*
X69691487Y-65043500D01*
X69697939Y-65042128D01*
X69697944Y-65042128D01*
X69784887Y-65023647D01*
X69878288Y-65003794D01*
X69884319Y-65001109D01*
X70046722Y-64928803D01*
X70046724Y-64928802D01*
X70052752Y-64926118D01*
X70207253Y-64813866D01*
X70268276Y-64746093D01*
X70330621Y-64676852D01*
X70330622Y-64676851D01*
X70335040Y-64671944D01*
X70430527Y-64506556D01*
X70489542Y-64324928D01*
X70490538Y-64315457D01*
X70508814Y-64141565D01*
X70509504Y-64135000D01*
X70497291Y-64018800D01*
X70490232Y-63951635D01*
X70490232Y-63951633D01*
X70489542Y-63945072D01*
X70430527Y-63763444D01*
X70374242Y-63665955D01*
X70352040Y-63627500D01*
X70335302Y-63558504D01*
X70358523Y-63491413D01*
X70414330Y-63447526D01*
X70461159Y-63438500D01*
X70520400Y-63438500D01*
X70523646Y-63438163D01*
X70523650Y-63438163D01*
X70619308Y-63428238D01*
X70619312Y-63428237D01*
X70626166Y-63427526D01*
X70632702Y-63425345D01*
X70632704Y-63425345D01*
X70764806Y-63381272D01*
X70793946Y-63371550D01*
X70944348Y-63278478D01*
X71030784Y-63191891D01*
X71093066Y-63157812D01*
X71163886Y-63162815D01*
X71208976Y-63191736D01*
X71296697Y-63279305D01*
X71302927Y-63283145D01*
X71302928Y-63283146D01*
X71440090Y-63367694D01*
X71447262Y-63372115D01*
X71486586Y-63385158D01*
X71608611Y-63425632D01*
X71608613Y-63425632D01*
X71615139Y-63427797D01*
X71621975Y-63428497D01*
X71621978Y-63428498D01*
X71665031Y-63432909D01*
X71719600Y-63438500D01*
X72345050Y-63438500D01*
X72413171Y-63458502D01*
X72434145Y-63475405D01*
X72445667Y-63486927D01*
X72449170Y-63489644D01*
X72458195Y-63497352D01*
X72491867Y-63528972D01*
X72498818Y-63532793D01*
X72498819Y-63532794D01*
X72510658Y-63539303D01*
X72527182Y-63550157D01*
X72537271Y-63557982D01*
X72544132Y-63563304D01*
X72551404Y-63566451D01*
X72551406Y-63566452D01*
X72586535Y-63581654D01*
X72597195Y-63586876D01*
X72630220Y-63605032D01*
X72637663Y-63609124D01*
X72658441Y-63614459D01*
X72677131Y-63620858D01*
X72696824Y-63629380D01*
X72740596Y-63636313D01*
X72742448Y-63636606D01*
X72754071Y-63639013D01*
X72782072Y-63646202D01*
X72798812Y-63650500D01*
X72820259Y-63650500D01*
X72839969Y-63652051D01*
X72861152Y-63655406D01*
X72907141Y-63651059D01*
X72918996Y-63650500D01*
X88981776Y-63650500D01*
X89049897Y-63670502D01*
X89055834Y-63674562D01*
X89104168Y-63709679D01*
X89186820Y-63769729D01*
X89205248Y-63783118D01*
X89211276Y-63785802D01*
X89211278Y-63785803D01*
X89368430Y-63855771D01*
X89379712Y-63860794D01*
X89473112Y-63880647D01*
X89560056Y-63899128D01*
X89560061Y-63899128D01*
X89566513Y-63900500D01*
X89757487Y-63900500D01*
X89763939Y-63899128D01*
X89763944Y-63899128D01*
X89850888Y-63880647D01*
X89944288Y-63860794D01*
X89955570Y-63855771D01*
X90112722Y-63785803D01*
X90112724Y-63785802D01*
X90118752Y-63783118D01*
X90137181Y-63769729D01*
X90174157Y-63742864D01*
X90273253Y-63670866D01*
X90302976Y-63637855D01*
X90396621Y-63533852D01*
X90396622Y-63533851D01*
X90401040Y-63528944D01*
X90490255Y-63374419D01*
X90493223Y-63369279D01*
X90493224Y-63369278D01*
X90496527Y-63363556D01*
X90555542Y-63181928D01*
X90558338Y-63155332D01*
X90574814Y-62998565D01*
X90575504Y-62992000D01*
X90563565Y-62878406D01*
X90556232Y-62808635D01*
X90556232Y-62808633D01*
X90555542Y-62802072D01*
X90496527Y-62620444D01*
X90491075Y-62611000D01*
X90404341Y-62460774D01*
X90401040Y-62455056D01*
X90294571Y-62336810D01*
X90263853Y-62272803D01*
X90272618Y-62202349D01*
X90318081Y-62147818D01*
X90388207Y-62126500D01*
X92433932Y-62126500D01*
X92445788Y-62127059D01*
X92445791Y-62127059D01*
X92453525Y-62128788D01*
X92524357Y-62126562D01*
X92528315Y-62126500D01*
X92557420Y-62126500D01*
X92561820Y-62125944D01*
X92573652Y-62125012D01*
X92619819Y-62123562D01*
X92640409Y-62117580D01*
X92659770Y-62113570D01*
X92666758Y-62112688D01*
X92673192Y-62111875D01*
X92673193Y-62111875D01*
X92681052Y-62110882D01*
X92688417Y-62107966D01*
X92688421Y-62107965D01*
X92724009Y-62093874D01*
X92735219Y-62090035D01*
X92779588Y-62077145D01*
X92798053Y-62066225D01*
X92815793Y-62057534D01*
X92835744Y-62049635D01*
X92873117Y-62022482D01*
X92883036Y-62015967D01*
X92915965Y-61996493D01*
X92915969Y-61996490D01*
X92922795Y-61992453D01*
X92937959Y-61977289D01*
X92952993Y-61964448D01*
X92970345Y-61951841D01*
X92999791Y-61916247D01*
X93007780Y-61907468D01*
X94904987Y-60010261D01*
X94967299Y-59976235D01*
X94994082Y-59973356D01*
X95014619Y-59973356D01*
X95021071Y-59971984D01*
X95021076Y-59971984D01*
X95112235Y-59952607D01*
X95201420Y-59933650D01*
X95207451Y-59930965D01*
X95369854Y-59858659D01*
X95369856Y-59858658D01*
X95375884Y-59855974D01*
X95530385Y-59743722D01*
X95558967Y-59711979D01*
X95648527Y-59612512D01*
X95708973Y-59575272D01*
X95781830Y-59577229D01*
X95904139Y-59617797D01*
X95910975Y-59618497D01*
X95910978Y-59618498D01*
X95954031Y-59622909D01*
X96008600Y-59628500D01*
X96809400Y-59628500D01*
X96812646Y-59628163D01*
X96812650Y-59628163D01*
X96908308Y-59618238D01*
X96908312Y-59618237D01*
X96915166Y-59617526D01*
X96921702Y-59615345D01*
X96921704Y-59615345D01*
X97075998Y-59563868D01*
X97082946Y-59561550D01*
X97208197Y-59484042D01*
X97276649Y-59465204D01*
X97344419Y-59486365D01*
X97389990Y-59540806D01*
X97400500Y-59591186D01*
X97400500Y-62411076D01*
X97380498Y-62479197D01*
X97363595Y-62500171D01*
X95798191Y-64065575D01*
X95704397Y-64179761D01*
X95610938Y-64354063D01*
X95609136Y-64359958D01*
X95562777Y-64511590D01*
X95553113Y-64543198D01*
X95552490Y-64549333D01*
X95535487Y-64716720D01*
X95533126Y-64739962D01*
X95551739Y-64936862D01*
X95608241Y-65126396D01*
X95700482Y-65301346D01*
X95704358Y-65306132D01*
X95704359Y-65306134D01*
X95807854Y-65433939D01*
X95824947Y-65455047D01*
X95829682Y-65458992D01*
X95952258Y-65561118D01*
X95976896Y-65581646D01*
X96150541Y-65676322D01*
X96244904Y-65705893D01*
X96333386Y-65733622D01*
X96333389Y-65733623D01*
X96339268Y-65735465D01*
X96345391Y-65736130D01*
X96345395Y-65736131D01*
X96529763Y-65756159D01*
X96529767Y-65756159D01*
X96535888Y-65756824D01*
X96732913Y-65739587D01*
X96738830Y-65737868D01*
X96738835Y-65737867D01*
X96869564Y-65699886D01*
X96922836Y-65684409D01*
X97098426Y-65593392D01*
X97143717Y-65557237D01*
X97216723Y-65498958D01*
X97216730Y-65498951D01*
X97219473Y-65496762D01*
X99078379Y-63637855D01*
X99088522Y-63628753D01*
X99113218Y-63608897D01*
X99118025Y-63605032D01*
X99150292Y-63566578D01*
X99153472Y-63562931D01*
X99155115Y-63561119D01*
X99157309Y-63558925D01*
X99184642Y-63525651D01*
X99185348Y-63524800D01*
X99211791Y-63493287D01*
X99245154Y-63453526D01*
X99247722Y-63448856D01*
X99251103Y-63444739D01*
X99295015Y-63362842D01*
X99295624Y-63361720D01*
X99337466Y-63285611D01*
X99337468Y-63285606D01*
X99340433Y-63280213D01*
X99342044Y-63275135D01*
X99344563Y-63270437D01*
X99371753Y-63181502D01*
X99372136Y-63180272D01*
X99398371Y-63097570D01*
X99400235Y-63091694D01*
X99400828Y-63086403D01*
X99402388Y-63081302D01*
X99411795Y-62988689D01*
X99411915Y-62987569D01*
X99417500Y-62937773D01*
X99417500Y-62934244D01*
X99417555Y-62933261D01*
X99418004Y-62927556D01*
X99421752Y-62890664D01*
X99421752Y-62890661D01*
X99422374Y-62884537D01*
X99418059Y-62838888D01*
X99417500Y-62827031D01*
X99417500Y-59282985D01*
X99436241Y-59216868D01*
X99447274Y-59198970D01*
X99447276Y-59198967D01*
X99451115Y-59192738D01*
X99506797Y-59024861D01*
X99517500Y-58920400D01*
X99517500Y-58789925D01*
X99537502Y-58721804D01*
X99554405Y-58700830D01*
X100520370Y-57734865D01*
X101488405Y-56766829D01*
X101550717Y-56732804D01*
X101621532Y-56737868D01*
X101678368Y-56780415D01*
X101703179Y-56846935D01*
X101703500Y-56855924D01*
X101703500Y-60793241D01*
X101683498Y-60861362D01*
X101671136Y-60877551D01*
X101648223Y-60902999D01*
X101622960Y-60931056D01*
X101605738Y-60960885D01*
X101532415Y-61087885D01*
X101527473Y-61096444D01*
X101468458Y-61278072D01*
X101467768Y-61284633D01*
X101467768Y-61284635D01*
X101458428Y-61373500D01*
X101448496Y-61468000D01*
X101449186Y-61474565D01*
X101464875Y-61623834D01*
X101468458Y-61657928D01*
X101527473Y-61839556D01*
X101622960Y-62004944D01*
X101627378Y-62009851D01*
X101627379Y-62009852D01*
X101736827Y-62131406D01*
X101750747Y-62146866D01*
X101905248Y-62259118D01*
X101911276Y-62261802D01*
X101911278Y-62261803D01*
X102073681Y-62334109D01*
X102079712Y-62336794D01*
X102173113Y-62356647D01*
X102260056Y-62375128D01*
X102260061Y-62375128D01*
X102266513Y-62376500D01*
X102457487Y-62376500D01*
X102463939Y-62375128D01*
X102463944Y-62375128D01*
X102550887Y-62356647D01*
X102644288Y-62336794D01*
X102650319Y-62334109D01*
X102812722Y-62261803D01*
X102812724Y-62261802D01*
X102818752Y-62259118D01*
X102973253Y-62146866D01*
X102987173Y-62131406D01*
X103096621Y-62009852D01*
X103096622Y-62009851D01*
X103101040Y-62004944D01*
X103196527Y-61839556D01*
X103255542Y-61657928D01*
X103259126Y-61623834D01*
X103274814Y-61474565D01*
X103275504Y-61468000D01*
X103265572Y-61373500D01*
X103256232Y-61284635D01*
X103256232Y-61284633D01*
X103255542Y-61278072D01*
X103196527Y-61096444D01*
X103191586Y-61087885D01*
X103118262Y-60960885D01*
X103101040Y-60931056D01*
X103075778Y-60902999D01*
X103052864Y-60877551D01*
X103022146Y-60813544D01*
X103020500Y-60793241D01*
X103020500Y-53372451D01*
X103040502Y-53304330D01*
X103057404Y-53283356D01*
X103744854Y-52595905D01*
X103807167Y-52561880D01*
X103833950Y-52559000D01*
X103854487Y-52559000D01*
X103860939Y-52557628D01*
X103860944Y-52557628D01*
X103947888Y-52539147D01*
X104041288Y-52519294D01*
X104150143Y-52470829D01*
X104209722Y-52444303D01*
X104209724Y-52444302D01*
X104215752Y-52441618D01*
X104370253Y-52329366D01*
X104396244Y-52300500D01*
X104493621Y-52192352D01*
X104493622Y-52192351D01*
X104498040Y-52187444D01*
X104577301Y-52050160D01*
X104590223Y-52027779D01*
X104590224Y-52027778D01*
X104593527Y-52022056D01*
X104652542Y-51840428D01*
X104653405Y-51832221D01*
X104670210Y-51672329D01*
X104697223Y-51606673D01*
X104755445Y-51566043D01*
X104795520Y-51559500D01*
X108141416Y-51559500D01*
X108209537Y-51579502D01*
X108221901Y-51588556D01*
X108224172Y-51590441D01*
X108311126Y-51662632D01*
X108315583Y-51665236D01*
X108315588Y-51665240D01*
X108372070Y-51698245D01*
X108420794Y-51749883D01*
X108434500Y-51807033D01*
X108434500Y-57559944D01*
X108433941Y-57571800D01*
X108432212Y-57579537D01*
X108432461Y-57587459D01*
X108434438Y-57650369D01*
X108434500Y-57654327D01*
X108434500Y-57683432D01*
X108435056Y-57687832D01*
X108435988Y-57699664D01*
X108437438Y-57745831D01*
X108439650Y-57753444D01*
X108439650Y-57753445D01*
X108443419Y-57766416D01*
X108447430Y-57785782D01*
X108450118Y-57807064D01*
X108453034Y-57814429D01*
X108453035Y-57814433D01*
X108467126Y-57850021D01*
X108470965Y-57861231D01*
X108483855Y-57905600D01*
X108494775Y-57924065D01*
X108503466Y-57941805D01*
X108511365Y-57961756D01*
X108533694Y-57992489D01*
X108538516Y-57999126D01*
X108545033Y-58009048D01*
X108564507Y-58041977D01*
X108564510Y-58041981D01*
X108568547Y-58048807D01*
X108583711Y-58063971D01*
X108596552Y-58079005D01*
X108609159Y-58096357D01*
X108607063Y-58097880D01*
X108633402Y-58149946D01*
X108635500Y-58172843D01*
X108635500Y-58793400D01*
X108635837Y-58796646D01*
X108635837Y-58796650D01*
X108643574Y-58871214D01*
X108646474Y-58899166D01*
X108648655Y-58905702D01*
X108648655Y-58905704D01*
X108674930Y-58984458D01*
X108702450Y-59066946D01*
X108795522Y-59217348D01*
X108920697Y-59342305D01*
X109005375Y-59394501D01*
X109025616Y-59406978D01*
X109073109Y-59459750D01*
X109085500Y-59514238D01*
X109085500Y-60881689D01*
X109065498Y-60949810D01*
X109025804Y-60988833D01*
X108919652Y-61054522D01*
X108794695Y-61179697D01*
X108790855Y-61185927D01*
X108790854Y-61185928D01*
X108716993Y-61305753D01*
X108701885Y-61330262D01*
X108681369Y-61392115D01*
X108656200Y-61468000D01*
X108646203Y-61498139D01*
X108645503Y-61504975D01*
X108645502Y-61504978D01*
X108641851Y-61540613D01*
X108635500Y-61602600D01*
X108635500Y-62603400D01*
X108635837Y-62606646D01*
X108635837Y-62606650D01*
X108644430Y-62689463D01*
X108646474Y-62709166D01*
X108648655Y-62715702D01*
X108648655Y-62715704D01*
X108669522Y-62778249D01*
X108702450Y-62876946D01*
X108795522Y-63027348D01*
X108920697Y-63152305D01*
X108926927Y-63156145D01*
X108926928Y-63156146D01*
X109064090Y-63240694D01*
X109071262Y-63245115D01*
X109147335Y-63270347D01*
X109232611Y-63298632D01*
X109232613Y-63298632D01*
X109239139Y-63300797D01*
X109245975Y-63301497D01*
X109245978Y-63301498D01*
X109289031Y-63305909D01*
X109343600Y-63311500D01*
X110144400Y-63311500D01*
X110147646Y-63311163D01*
X110147650Y-63311163D01*
X110243308Y-63301238D01*
X110243312Y-63301237D01*
X110250166Y-63300526D01*
X110256702Y-63298345D01*
X110256704Y-63298345D01*
X110388806Y-63254272D01*
X110417946Y-63244550D01*
X110568348Y-63151478D01*
X110654784Y-63064891D01*
X110717066Y-63030812D01*
X110787886Y-63035815D01*
X110832975Y-63064736D01*
X110908431Y-63140060D01*
X110920697Y-63152305D01*
X110926927Y-63156145D01*
X110926928Y-63156146D01*
X111064090Y-63240694D01*
X111071262Y-63245115D01*
X111147335Y-63270347D01*
X111232611Y-63298632D01*
X111232613Y-63298632D01*
X111239139Y-63300797D01*
X111245975Y-63301497D01*
X111245978Y-63301498D01*
X111289031Y-63305909D01*
X111343600Y-63311500D01*
X111483500Y-63311500D01*
X111551621Y-63331502D01*
X111598114Y-63385158D01*
X111609500Y-63437500D01*
X111609500Y-64095241D01*
X111589498Y-64163362D01*
X111577136Y-64179551D01*
X111544260Y-64216064D01*
X111528960Y-64233056D01*
X111433473Y-64398444D01*
X111374458Y-64580072D01*
X111354496Y-64770000D01*
X111355186Y-64776565D01*
X111371683Y-64933522D01*
X111374458Y-64959928D01*
X111433473Y-65141556D01*
X111436776Y-65147278D01*
X111436777Y-65147279D01*
X111440868Y-65154365D01*
X111528960Y-65306944D01*
X111656747Y-65448866D01*
X111811248Y-65561118D01*
X111817276Y-65563802D01*
X111817278Y-65563803D01*
X111932595Y-65615145D01*
X111985712Y-65638794D01*
X112073495Y-65657453D01*
X112166056Y-65677128D01*
X112166061Y-65677128D01*
X112172513Y-65678500D01*
X112363487Y-65678500D01*
X112369939Y-65677128D01*
X112369944Y-65677128D01*
X112462505Y-65657453D01*
X112550288Y-65638794D01*
X112603405Y-65615145D01*
X112718722Y-65563803D01*
X112718724Y-65563802D01*
X112724752Y-65561118D01*
X112730094Y-65557237D01*
X112815128Y-65495456D01*
X112881996Y-65471597D01*
X112951147Y-65487678D01*
X113000628Y-65538592D01*
X113015189Y-65597459D01*
X113014225Y-67422159D01*
X112994187Y-67490269D01*
X112940507Y-67536733D01*
X112888225Y-67548092D01*
X101097135Y-67548092D01*
X101029014Y-67528090D01*
X100982521Y-67474434D01*
X100972417Y-67404160D01*
X101001911Y-67339580D01*
X101050747Y-67304942D01*
X101061018Y-67300875D01*
X101072231Y-67297035D01*
X101116600Y-67284145D01*
X101135065Y-67273225D01*
X101152805Y-67264534D01*
X101172756Y-67256635D01*
X101210129Y-67229482D01*
X101220048Y-67222967D01*
X101252977Y-67203493D01*
X101252981Y-67203490D01*
X101259807Y-67199453D01*
X101274971Y-67184289D01*
X101290005Y-67171448D01*
X101300943Y-67163501D01*
X101307357Y-67158841D01*
X101336803Y-67123247D01*
X101344792Y-67114468D01*
X101912855Y-66546405D01*
X101975167Y-66512379D01*
X102001950Y-66509500D01*
X103275134Y-66509500D01*
X103337316Y-66502745D01*
X103473705Y-66451615D01*
X103590261Y-66364261D01*
X103677615Y-66247705D01*
X103720561Y-66133148D01*
X103721598Y-66130382D01*
X103764240Y-66073618D01*
X103830802Y-66048918D01*
X103900150Y-66064126D01*
X103934817Y-66092114D01*
X103963250Y-66124938D01*
X104135126Y-66267632D01*
X104328000Y-66380338D01*
X104536692Y-66460030D01*
X104541760Y-66461061D01*
X104541763Y-66461062D01*
X104628919Y-66478794D01*
X104755597Y-66504567D01*
X104760772Y-66504757D01*
X104760774Y-66504757D01*
X104973673Y-66512564D01*
X104973677Y-66512564D01*
X104978837Y-66512753D01*
X104983957Y-66512097D01*
X104983959Y-66512097D01*
X105195288Y-66485025D01*
X105195289Y-66485025D01*
X105200416Y-66484368D01*
X105218995Y-66478794D01*
X105409429Y-66421661D01*
X105409434Y-66421659D01*
X105414384Y-66420174D01*
X105614994Y-66321896D01*
X105796860Y-66192173D01*
X105845429Y-66143774D01*
X105951435Y-66038137D01*
X105955096Y-66034489D01*
X106063318Y-65883882D01*
X106085453Y-65853077D01*
X106086776Y-65854028D01*
X106133645Y-65810857D01*
X106203580Y-65798625D01*
X106269026Y-65826144D01*
X106296875Y-65857994D01*
X106356987Y-65956088D01*
X106503250Y-66124938D01*
X106675126Y-66267632D01*
X106868000Y-66380338D01*
X107076692Y-66460030D01*
X107081760Y-66461061D01*
X107081763Y-66461062D01*
X107168919Y-66478794D01*
X107295597Y-66504567D01*
X107300772Y-66504757D01*
X107300774Y-66504757D01*
X107513673Y-66512564D01*
X107513677Y-66512564D01*
X107518837Y-66512753D01*
X107523957Y-66512097D01*
X107523959Y-66512097D01*
X107735288Y-66485025D01*
X107735289Y-66485025D01*
X107740416Y-66484368D01*
X107758995Y-66478794D01*
X107949429Y-66421661D01*
X107949434Y-66421659D01*
X107954384Y-66420174D01*
X108154994Y-66321896D01*
X108336860Y-66192173D01*
X108385429Y-66143774D01*
X108491435Y-66038137D01*
X108495096Y-66034489D01*
X108603318Y-65883882D01*
X108622435Y-65857277D01*
X108625453Y-65853077D01*
X108646320Y-65810857D01*
X108722136Y-65657453D01*
X108722137Y-65657451D01*
X108724430Y-65652811D01*
X108771174Y-65498958D01*
X108787865Y-65444023D01*
X108787865Y-65444021D01*
X108789370Y-65439069D01*
X108818529Y-65217590D01*
X108820156Y-65151000D01*
X108801852Y-64928361D01*
X108747431Y-64711702D01*
X108658354Y-64506840D01*
X108618906Y-64445862D01*
X108539822Y-64323617D01*
X108539820Y-64323614D01*
X108537014Y-64319277D01*
X108386670Y-64154051D01*
X108382619Y-64150852D01*
X108382615Y-64150848D01*
X108215414Y-64018800D01*
X108215410Y-64018798D01*
X108211359Y-64015598D01*
X108015789Y-63907638D01*
X108010920Y-63905914D01*
X108010916Y-63905912D01*
X107810087Y-63834795D01*
X107810083Y-63834794D01*
X107805212Y-63833069D01*
X107800119Y-63832162D01*
X107800116Y-63832161D01*
X107590373Y-63794800D01*
X107590367Y-63794799D01*
X107585284Y-63793894D01*
X107511452Y-63792992D01*
X107367081Y-63791228D01*
X107367079Y-63791228D01*
X107361911Y-63791165D01*
X107141091Y-63824955D01*
X107140928Y-63823891D01*
X107075329Y-63820488D01*
X107027948Y-63790688D01*
X105344470Y-62107210D01*
X105310444Y-62044898D01*
X105308255Y-62031286D01*
X105304886Y-61999226D01*
X105299263Y-61945732D01*
X105295732Y-61912136D01*
X105295732Y-61912135D01*
X105295042Y-61905572D01*
X105275452Y-61845279D01*
X105238069Y-61730229D01*
X105236027Y-61723944D01*
X105140540Y-61558556D01*
X105122157Y-61538139D01*
X105017175Y-61421545D01*
X105017174Y-61421544D01*
X105012753Y-61416634D01*
X104858252Y-61304382D01*
X104852224Y-61301698D01*
X104852222Y-61301697D01*
X104689819Y-61229391D01*
X104689818Y-61229391D01*
X104683788Y-61226706D01*
X104590388Y-61206853D01*
X104503444Y-61188372D01*
X104503439Y-61188372D01*
X104496987Y-61187000D01*
X104306013Y-61187000D01*
X104299561Y-61188372D01*
X104299556Y-61188372D01*
X104212612Y-61206853D01*
X104119212Y-61226706D01*
X104113182Y-61229391D01*
X104113181Y-61229391D01*
X103950778Y-61301697D01*
X103950776Y-61301698D01*
X103944748Y-61304382D01*
X103790247Y-61416634D01*
X103785826Y-61421544D01*
X103785825Y-61421545D01*
X103680844Y-61538139D01*
X103662460Y-61558556D01*
X103566973Y-61723944D01*
X103507958Y-61905572D01*
X103507268Y-61912133D01*
X103507268Y-61912135D01*
X103492817Y-62049635D01*
X103487996Y-62095500D01*
X103488686Y-62102065D01*
X103504853Y-62255881D01*
X103507958Y-62285428D01*
X103566973Y-62467056D01*
X103570276Y-62472778D01*
X103570277Y-62472779D01*
X103586092Y-62500171D01*
X103662460Y-62632444D01*
X103666878Y-62637351D01*
X103666879Y-62637352D01*
X103760323Y-62741132D01*
X103790247Y-62774366D01*
X103819740Y-62795794D01*
X103931436Y-62876946D01*
X103944748Y-62886618D01*
X103950776Y-62889302D01*
X103950778Y-62889303D01*
X104067503Y-62941272D01*
X104119212Y-62964294D01*
X104212613Y-62984147D01*
X104299556Y-63002628D01*
X104299561Y-63002628D01*
X104306013Y-63004000D01*
X104326550Y-63004000D01*
X104394671Y-63024002D01*
X104415645Y-63040905D01*
X104951292Y-63576552D01*
X104985318Y-63638864D01*
X104980253Y-63709679D01*
X104937706Y-63766515D01*
X104871186Y-63791326D01*
X104860659Y-63791638D01*
X104827081Y-63791228D01*
X104827079Y-63791228D01*
X104821911Y-63791165D01*
X104601091Y-63824955D01*
X104388756Y-63894357D01*
X104190607Y-63997507D01*
X104186474Y-64000610D01*
X104186471Y-64000612D01*
X104096776Y-64067957D01*
X104011965Y-64131635D01*
X103955537Y-64190684D01*
X103931283Y-64216064D01*
X103869759Y-64251494D01*
X103798846Y-64248037D01*
X103741060Y-64206791D01*
X103722207Y-64173243D01*
X103680767Y-64062703D01*
X103677615Y-64054295D01*
X103590261Y-63937739D01*
X103473705Y-63850385D01*
X103337316Y-63799255D01*
X103275134Y-63792500D01*
X101478866Y-63792500D01*
X101416684Y-63799255D01*
X101280295Y-63850385D01*
X101163739Y-63937739D01*
X101076385Y-64054295D01*
X101025255Y-64190684D01*
X101018500Y-64252866D01*
X101018500Y-65526050D01*
X100998498Y-65594171D01*
X100981595Y-65615145D01*
X100617145Y-65979595D01*
X100554833Y-66013621D01*
X100528050Y-66016500D01*
X95676224Y-66016500D01*
X95608103Y-65996498D01*
X95602163Y-65992436D01*
X95601909Y-65992251D01*
X95452752Y-65883882D01*
X95446724Y-65881198D01*
X95446722Y-65881197D01*
X95284319Y-65808891D01*
X95284318Y-65808891D01*
X95278288Y-65806206D01*
X95184888Y-65786353D01*
X95097944Y-65767872D01*
X95097939Y-65767872D01*
X95091487Y-65766500D01*
X94900513Y-65766500D01*
X94894061Y-65767872D01*
X94894056Y-65767872D01*
X94807112Y-65786353D01*
X94713712Y-65806206D01*
X94707682Y-65808891D01*
X94707681Y-65808891D01*
X94545278Y-65881197D01*
X94545276Y-65881198D01*
X94539248Y-65883882D01*
X94384747Y-65996134D01*
X94380326Y-66001044D01*
X94380325Y-66001045D01*
X94337026Y-66049134D01*
X94256960Y-66138056D01*
X94161473Y-66303444D01*
X94102458Y-66485072D01*
X94101768Y-66491633D01*
X94101768Y-66491635D01*
X94096012Y-66546405D01*
X94082496Y-66675000D01*
X94102458Y-66864928D01*
X94161473Y-67046556D01*
X94256960Y-67211944D01*
X94261378Y-67216851D01*
X94261379Y-67216852D01*
X94370265Y-67337782D01*
X94400983Y-67401789D01*
X94392218Y-67472243D01*
X94346755Y-67526774D01*
X94276629Y-67548092D01*
X64149908Y-67548092D01*
X64081787Y-67528090D01*
X64035294Y-67474434D01*
X64023908Y-67422092D01*
X64023908Y-62640766D01*
X64640000Y-62640766D01*
X64640337Y-62647282D01*
X64650075Y-62741132D01*
X64652968Y-62754528D01*
X64703488Y-62905953D01*
X64709653Y-62919115D01*
X64793426Y-63054492D01*
X64802460Y-63065890D01*
X64915129Y-63178363D01*
X64926540Y-63187375D01*
X65062063Y-63270912D01*
X65075241Y-63277056D01*
X65226766Y-63327315D01*
X65240132Y-63330181D01*
X65332770Y-63339672D01*
X65339185Y-63340000D01*
X65413385Y-63340000D01*
X65428624Y-63335525D01*
X65429829Y-63334135D01*
X65431500Y-63326452D01*
X65431500Y-62629115D01*
X65427025Y-62613876D01*
X65425635Y-62612671D01*
X65417952Y-62611000D01*
X64658115Y-62611000D01*
X64642876Y-62615475D01*
X64641671Y-62616865D01*
X64640000Y-62624548D01*
X64640000Y-62640766D01*
X64023908Y-62640766D01*
X64023908Y-62084885D01*
X64640000Y-62084885D01*
X64644475Y-62100124D01*
X64645865Y-62101329D01*
X64653548Y-62103000D01*
X65413385Y-62103000D01*
X65428624Y-62098525D01*
X65429829Y-62097135D01*
X65431500Y-62089452D01*
X65431500Y-61392115D01*
X65427025Y-61376876D01*
X65425635Y-61375671D01*
X65417952Y-61374000D01*
X65339234Y-61374000D01*
X65332718Y-61374337D01*
X65238868Y-61384075D01*
X65225472Y-61386968D01*
X65074047Y-61437488D01*
X65060885Y-61443653D01*
X64925508Y-61527426D01*
X64914110Y-61536460D01*
X64801637Y-61649129D01*
X64792625Y-61660540D01*
X64709088Y-61796063D01*
X64702944Y-61809241D01*
X64652685Y-61960766D01*
X64649819Y-61974132D01*
X64640328Y-62066770D01*
X64640000Y-62073185D01*
X64640000Y-62084885D01*
X64023908Y-62084885D01*
X64023908Y-42669885D01*
X65721000Y-42669885D01*
X65725475Y-42685124D01*
X65726865Y-42686329D01*
X65734548Y-42688000D01*
X66656885Y-42688000D01*
X66672124Y-42683525D01*
X66673329Y-42682135D01*
X66675000Y-42674452D01*
X66675000Y-42669885D01*
X67183000Y-42669885D01*
X67187475Y-42685124D01*
X67188865Y-42686329D01*
X67196548Y-42688000D01*
X68051000Y-42688000D01*
X68119121Y-42708002D01*
X68165614Y-42761658D01*
X68171787Y-42790034D01*
X68171896Y-42790002D01*
X68181475Y-42822624D01*
X68182865Y-42823829D01*
X68190548Y-42825500D01*
X68815885Y-42825500D01*
X68831124Y-42821025D01*
X68832329Y-42819635D01*
X68834000Y-42811952D01*
X68834000Y-42807385D01*
X69342000Y-42807385D01*
X69346475Y-42822624D01*
X69347865Y-42823829D01*
X69355548Y-42825500D01*
X70052885Y-42825500D01*
X70068124Y-42821025D01*
X70069329Y-42819635D01*
X70071000Y-42811952D01*
X70071000Y-42733234D01*
X70070663Y-42726718D01*
X70060925Y-42632868D01*
X70058032Y-42619472D01*
X70007512Y-42468047D01*
X70001347Y-42454885D01*
X69917574Y-42319508D01*
X69908540Y-42308110D01*
X69795871Y-42195637D01*
X69784460Y-42186625D01*
X69648937Y-42103088D01*
X69635759Y-42096944D01*
X69484234Y-42046685D01*
X69470868Y-42043819D01*
X69378230Y-42034328D01*
X69371815Y-42034000D01*
X69360115Y-42034000D01*
X69344876Y-42038475D01*
X69343671Y-42039865D01*
X69342000Y-42047548D01*
X69342000Y-42807385D01*
X68834000Y-42807385D01*
X68834000Y-42052115D01*
X68829525Y-42036876D01*
X68828135Y-42035671D01*
X68820452Y-42034000D01*
X68804234Y-42034000D01*
X68797718Y-42034337D01*
X68703868Y-42044075D01*
X68690472Y-42046968D01*
X68539047Y-42097488D01*
X68525885Y-42103653D01*
X68390508Y-42187426D01*
X68379110Y-42196460D01*
X68272269Y-42303487D01*
X68209986Y-42337566D01*
X68139166Y-42332563D01*
X68082294Y-42290066D01*
X68068997Y-42267923D01*
X68066244Y-42262046D01*
X67980937Y-42124193D01*
X67971901Y-42112792D01*
X67857171Y-41998261D01*
X67845760Y-41989249D01*
X67707757Y-41904184D01*
X67694576Y-41898037D01*
X67540290Y-41846862D01*
X67526914Y-41843995D01*
X67432562Y-41834328D01*
X67426145Y-41834000D01*
X67201115Y-41834000D01*
X67185876Y-41838475D01*
X67184671Y-41839865D01*
X67183000Y-41847548D01*
X67183000Y-42669885D01*
X66675000Y-42669885D01*
X66675000Y-41852116D01*
X66670525Y-41836877D01*
X66669135Y-41835672D01*
X66661452Y-41834001D01*
X66431905Y-41834001D01*
X66425386Y-41834338D01*
X66329794Y-41844257D01*
X66316400Y-41847149D01*
X66162216Y-41898588D01*
X66149038Y-41904761D01*
X66011193Y-41990063D01*
X65999792Y-41999099D01*
X65885261Y-42113829D01*
X65876249Y-42125240D01*
X65791184Y-42263243D01*
X65785037Y-42276424D01*
X65733862Y-42430710D01*
X65730995Y-42444086D01*
X65721328Y-42538438D01*
X65721000Y-42544855D01*
X65721000Y-42669885D01*
X64023908Y-42669885D01*
X64023908Y-40479695D01*
X70900251Y-40479695D01*
X70913110Y-40702715D01*
X70914247Y-40707761D01*
X70914248Y-40707767D01*
X70938304Y-40814508D01*
X70962222Y-40920639D01*
X71046266Y-41127616D01*
X71083685Y-41188678D01*
X71160291Y-41313688D01*
X71162987Y-41318088D01*
X71309250Y-41486938D01*
X71481126Y-41629632D01*
X71674000Y-41742338D01*
X71882692Y-41822030D01*
X71887760Y-41823061D01*
X71887763Y-41823062D01*
X71995017Y-41844883D01*
X72101597Y-41866567D01*
X72106772Y-41866757D01*
X72106774Y-41866757D01*
X72319673Y-41874564D01*
X72319677Y-41874564D01*
X72324837Y-41874753D01*
X72329957Y-41874097D01*
X72329959Y-41874097D01*
X72541288Y-41847025D01*
X72541289Y-41847025D01*
X72546416Y-41846368D01*
X72551366Y-41844883D01*
X72755429Y-41783661D01*
X72755434Y-41783659D01*
X72760384Y-41782174D01*
X72960994Y-41683896D01*
X73142860Y-41554173D01*
X73301096Y-41396489D01*
X73360594Y-41313689D01*
X73431453Y-41215077D01*
X73432776Y-41216028D01*
X73479645Y-41172857D01*
X73549580Y-41160625D01*
X73615026Y-41188144D01*
X73642875Y-41219994D01*
X73702987Y-41318088D01*
X73849250Y-41486938D01*
X74021126Y-41629632D01*
X74214000Y-41742338D01*
X74422692Y-41822030D01*
X74427760Y-41823061D01*
X74427763Y-41823062D01*
X74535017Y-41844883D01*
X74641597Y-41866567D01*
X74646772Y-41866757D01*
X74646774Y-41866757D01*
X74859673Y-41874564D01*
X74859677Y-41874564D01*
X74864837Y-41874753D01*
X74869957Y-41874097D01*
X74869959Y-41874097D01*
X75081288Y-41847025D01*
X75081289Y-41847025D01*
X75086416Y-41846368D01*
X75091366Y-41844883D01*
X75295429Y-41783661D01*
X75295434Y-41783659D01*
X75300384Y-41782174D01*
X75500994Y-41683896D01*
X75682860Y-41554173D01*
X75841096Y-41396489D01*
X75900594Y-41313689D01*
X75971453Y-41215077D01*
X75972776Y-41216028D01*
X76019645Y-41172857D01*
X76089580Y-41160625D01*
X76155026Y-41188144D01*
X76182875Y-41219994D01*
X76242987Y-41318088D01*
X76389250Y-41486938D01*
X76561126Y-41629632D01*
X76754000Y-41742338D01*
X76962692Y-41822030D01*
X76967760Y-41823061D01*
X76967763Y-41823062D01*
X77075017Y-41844883D01*
X77181597Y-41866567D01*
X77186772Y-41866757D01*
X77186774Y-41866757D01*
X77399673Y-41874564D01*
X77399677Y-41874564D01*
X77404837Y-41874753D01*
X77409957Y-41874097D01*
X77409959Y-41874097D01*
X77621288Y-41847025D01*
X77621289Y-41847025D01*
X77626416Y-41846368D01*
X77631366Y-41844883D01*
X77835429Y-41783661D01*
X77835434Y-41783659D01*
X77840384Y-41782174D01*
X78040994Y-41683896D01*
X78222860Y-41554173D01*
X78381096Y-41396489D01*
X78440594Y-41313689D01*
X78511453Y-41215077D01*
X78512776Y-41216028D01*
X78559645Y-41172857D01*
X78629580Y-41160625D01*
X78695026Y-41188144D01*
X78722875Y-41219994D01*
X78782987Y-41318088D01*
X78929250Y-41486938D01*
X79101126Y-41629632D01*
X79294000Y-41742338D01*
X79502692Y-41822030D01*
X79507760Y-41823061D01*
X79507763Y-41823062D01*
X79615017Y-41844883D01*
X79721597Y-41866567D01*
X79726772Y-41866757D01*
X79726774Y-41866757D01*
X79939673Y-41874564D01*
X79939677Y-41874564D01*
X79944837Y-41874753D01*
X79949957Y-41874097D01*
X79949959Y-41874097D01*
X80161288Y-41847025D01*
X80161289Y-41847025D01*
X80166416Y-41846368D01*
X80171366Y-41844883D01*
X80375429Y-41783661D01*
X80375434Y-41783659D01*
X80380384Y-41782174D01*
X80580994Y-41683896D01*
X80762860Y-41554173D01*
X80921096Y-41396489D01*
X80980594Y-41313689D01*
X81051453Y-41215077D01*
X81052776Y-41216028D01*
X81099645Y-41172857D01*
X81169580Y-41160625D01*
X81235026Y-41188144D01*
X81262875Y-41219994D01*
X81322987Y-41318088D01*
X81469250Y-41486938D01*
X81641126Y-41629632D01*
X81834000Y-41742338D01*
X82042692Y-41822030D01*
X82047760Y-41823061D01*
X82047763Y-41823062D01*
X82155017Y-41844883D01*
X82261597Y-41866567D01*
X82266772Y-41866757D01*
X82266774Y-41866757D01*
X82479673Y-41874564D01*
X82479677Y-41874564D01*
X82484837Y-41874753D01*
X82489957Y-41874097D01*
X82489959Y-41874097D01*
X82701288Y-41847025D01*
X82701289Y-41847025D01*
X82706416Y-41846368D01*
X82711366Y-41844883D01*
X82915429Y-41783661D01*
X82915434Y-41783659D01*
X82920384Y-41782174D01*
X83120994Y-41683896D01*
X83302860Y-41554173D01*
X83461096Y-41396489D01*
X83520594Y-41313689D01*
X83591453Y-41215077D01*
X83592776Y-41216028D01*
X83639645Y-41172857D01*
X83709580Y-41160625D01*
X83775026Y-41188144D01*
X83802875Y-41219994D01*
X83862987Y-41318088D01*
X84009250Y-41486938D01*
X84181126Y-41629632D01*
X84374000Y-41742338D01*
X84582692Y-41822030D01*
X84587760Y-41823061D01*
X84587763Y-41823062D01*
X84695017Y-41844883D01*
X84801597Y-41866567D01*
X84806772Y-41866757D01*
X84806774Y-41866757D01*
X85019673Y-41874564D01*
X85019677Y-41874564D01*
X85024837Y-41874753D01*
X85029957Y-41874097D01*
X85029959Y-41874097D01*
X85241288Y-41847025D01*
X85241289Y-41847025D01*
X85246416Y-41846368D01*
X85251366Y-41844883D01*
X85455429Y-41783661D01*
X85455434Y-41783659D01*
X85460384Y-41782174D01*
X85660994Y-41683896D01*
X85842860Y-41554173D01*
X86001096Y-41396489D01*
X86060594Y-41313689D01*
X86131453Y-41215077D01*
X86132776Y-41216028D01*
X86179645Y-41172857D01*
X86249580Y-41160625D01*
X86315026Y-41188144D01*
X86342875Y-41219994D01*
X86402987Y-41318088D01*
X86549250Y-41486938D01*
X86721126Y-41629632D01*
X86914000Y-41742338D01*
X87122692Y-41822030D01*
X87127760Y-41823061D01*
X87127763Y-41823062D01*
X87235017Y-41844883D01*
X87341597Y-41866567D01*
X87346772Y-41866757D01*
X87346774Y-41866757D01*
X87559673Y-41874564D01*
X87559677Y-41874564D01*
X87564837Y-41874753D01*
X87569957Y-41874097D01*
X87569959Y-41874097D01*
X87781288Y-41847025D01*
X87781289Y-41847025D01*
X87786416Y-41846368D01*
X87791366Y-41844883D01*
X87995429Y-41783661D01*
X87995434Y-41783659D01*
X88000384Y-41782174D01*
X88200994Y-41683896D01*
X88382860Y-41554173D01*
X88541096Y-41396489D01*
X88600594Y-41313689D01*
X88671453Y-41215077D01*
X88672776Y-41216028D01*
X88719645Y-41172857D01*
X88789580Y-41160625D01*
X88855026Y-41188144D01*
X88882875Y-41219994D01*
X88942987Y-41318088D01*
X89089250Y-41486938D01*
X89261126Y-41629632D01*
X89454000Y-41742338D01*
X89662692Y-41822030D01*
X89667760Y-41823061D01*
X89667763Y-41823062D01*
X89775017Y-41844883D01*
X89881597Y-41866567D01*
X89886772Y-41866757D01*
X89886774Y-41866757D01*
X90099673Y-41874564D01*
X90099677Y-41874564D01*
X90104837Y-41874753D01*
X90109957Y-41874097D01*
X90109959Y-41874097D01*
X90321288Y-41847025D01*
X90321289Y-41847025D01*
X90326416Y-41846368D01*
X90331366Y-41844883D01*
X90535429Y-41783661D01*
X90535434Y-41783659D01*
X90540384Y-41782174D01*
X90740994Y-41683896D01*
X90922860Y-41554173D01*
X91081096Y-41396489D01*
X91140594Y-41313689D01*
X91211453Y-41215077D01*
X91212776Y-41216028D01*
X91259645Y-41172857D01*
X91329580Y-41160625D01*
X91395026Y-41188144D01*
X91422875Y-41219994D01*
X91482987Y-41318088D01*
X91629250Y-41486938D01*
X91801126Y-41629632D01*
X91994000Y-41742338D01*
X92202692Y-41822030D01*
X92207760Y-41823061D01*
X92207763Y-41823062D01*
X92315017Y-41844883D01*
X92421597Y-41866567D01*
X92426772Y-41866757D01*
X92426774Y-41866757D01*
X92639673Y-41874564D01*
X92639677Y-41874564D01*
X92644837Y-41874753D01*
X92649957Y-41874097D01*
X92649959Y-41874097D01*
X92861288Y-41847025D01*
X92861289Y-41847025D01*
X92866416Y-41846368D01*
X92871366Y-41844883D01*
X93075429Y-41783661D01*
X93075434Y-41783659D01*
X93080384Y-41782174D01*
X93280994Y-41683896D01*
X93462860Y-41554173D01*
X93621096Y-41396489D01*
X93680594Y-41313689D01*
X93751453Y-41215077D01*
X93752776Y-41216028D01*
X93799645Y-41172857D01*
X93869580Y-41160625D01*
X93935026Y-41188144D01*
X93962875Y-41219994D01*
X94022987Y-41318088D01*
X94169250Y-41486938D01*
X94341126Y-41629632D01*
X94534000Y-41742338D01*
X94742692Y-41822030D01*
X94747760Y-41823061D01*
X94747763Y-41823062D01*
X94855017Y-41844883D01*
X94961597Y-41866567D01*
X94966772Y-41866757D01*
X94966774Y-41866757D01*
X95179673Y-41874564D01*
X95179677Y-41874564D01*
X95184837Y-41874753D01*
X95189957Y-41874097D01*
X95189959Y-41874097D01*
X95401288Y-41847025D01*
X95401289Y-41847025D01*
X95406416Y-41846368D01*
X95411366Y-41844883D01*
X95615429Y-41783661D01*
X95615434Y-41783659D01*
X95620384Y-41782174D01*
X95820994Y-41683896D01*
X96002860Y-41554173D01*
X96161096Y-41396489D01*
X96220594Y-41313689D01*
X96291453Y-41215077D01*
X96292776Y-41216028D01*
X96339645Y-41172857D01*
X96409580Y-41160625D01*
X96475026Y-41188144D01*
X96502875Y-41219994D01*
X96562987Y-41318088D01*
X96709250Y-41486938D01*
X96881126Y-41629632D01*
X97074000Y-41742338D01*
X97282692Y-41822030D01*
X97287760Y-41823061D01*
X97287763Y-41823062D01*
X97395017Y-41844883D01*
X97501597Y-41866567D01*
X97506772Y-41866757D01*
X97506774Y-41866757D01*
X97719673Y-41874564D01*
X97719677Y-41874564D01*
X97724837Y-41874753D01*
X97729957Y-41874097D01*
X97729959Y-41874097D01*
X97941288Y-41847025D01*
X97941289Y-41847025D01*
X97946416Y-41846368D01*
X97951366Y-41844883D01*
X98155429Y-41783661D01*
X98155434Y-41783659D01*
X98160384Y-41782174D01*
X98360994Y-41683896D01*
X98542860Y-41554173D01*
X98701096Y-41396489D01*
X98760594Y-41313689D01*
X98831453Y-41215077D01*
X98832776Y-41216028D01*
X98879645Y-41172857D01*
X98949580Y-41160625D01*
X99015026Y-41188144D01*
X99042875Y-41219994D01*
X99102987Y-41318088D01*
X99249250Y-41486938D01*
X99421126Y-41629632D01*
X99614000Y-41742338D01*
X99822692Y-41822030D01*
X99827760Y-41823061D01*
X99827763Y-41823062D01*
X99935017Y-41844883D01*
X100041597Y-41866567D01*
X100046772Y-41866757D01*
X100046774Y-41866757D01*
X100259673Y-41874564D01*
X100259677Y-41874564D01*
X100264837Y-41874753D01*
X100269957Y-41874097D01*
X100269959Y-41874097D01*
X100481288Y-41847025D01*
X100481289Y-41847025D01*
X100486416Y-41846368D01*
X100491366Y-41844883D01*
X100695429Y-41783661D01*
X100695434Y-41783659D01*
X100700384Y-41782174D01*
X100900994Y-41683896D01*
X101082860Y-41554173D01*
X101241096Y-41396489D01*
X101300594Y-41313689D01*
X101371453Y-41215077D01*
X101372776Y-41216028D01*
X101419645Y-41172857D01*
X101489580Y-41160625D01*
X101555026Y-41188144D01*
X101582875Y-41219994D01*
X101642987Y-41318088D01*
X101789250Y-41486938D01*
X101961126Y-41629632D01*
X102154000Y-41742338D01*
X102362692Y-41822030D01*
X102367760Y-41823061D01*
X102367763Y-41823062D01*
X102475017Y-41844883D01*
X102581597Y-41866567D01*
X102586772Y-41866757D01*
X102586774Y-41866757D01*
X102799673Y-41874564D01*
X102799677Y-41874564D01*
X102804837Y-41874753D01*
X102809957Y-41874097D01*
X102809959Y-41874097D01*
X103021288Y-41847025D01*
X103021289Y-41847025D01*
X103026416Y-41846368D01*
X103031366Y-41844883D01*
X103235429Y-41783661D01*
X103235434Y-41783659D01*
X103240384Y-41782174D01*
X103440994Y-41683896D01*
X103622860Y-41554173D01*
X103781096Y-41396489D01*
X103840594Y-41313689D01*
X103911453Y-41215077D01*
X103912776Y-41216028D01*
X103959645Y-41172857D01*
X104029580Y-41160625D01*
X104095026Y-41188144D01*
X104122875Y-41219994D01*
X104182987Y-41318088D01*
X104329250Y-41486938D01*
X104501126Y-41629632D01*
X104694000Y-41742338D01*
X104902692Y-41822030D01*
X104907760Y-41823061D01*
X104907763Y-41823062D01*
X105015017Y-41844883D01*
X105121597Y-41866567D01*
X105126772Y-41866757D01*
X105126774Y-41866757D01*
X105339673Y-41874564D01*
X105339677Y-41874564D01*
X105344837Y-41874753D01*
X105349957Y-41874097D01*
X105349959Y-41874097D01*
X105561288Y-41847025D01*
X105561289Y-41847025D01*
X105566416Y-41846368D01*
X105571366Y-41844883D01*
X105775429Y-41783661D01*
X105775434Y-41783659D01*
X105780384Y-41782174D01*
X105980994Y-41683896D01*
X106162860Y-41554173D01*
X106321096Y-41396489D01*
X106380594Y-41313689D01*
X106451453Y-41215077D01*
X106452776Y-41216028D01*
X106499645Y-41172857D01*
X106569580Y-41160625D01*
X106635026Y-41188144D01*
X106662875Y-41219994D01*
X106722987Y-41318088D01*
X106869250Y-41486938D01*
X107041126Y-41629632D01*
X107234000Y-41742338D01*
X107442692Y-41822030D01*
X107447760Y-41823061D01*
X107447763Y-41823062D01*
X107555017Y-41844883D01*
X107661597Y-41866567D01*
X107666772Y-41866757D01*
X107666774Y-41866757D01*
X107879673Y-41874564D01*
X107879677Y-41874564D01*
X107884837Y-41874753D01*
X107889957Y-41874097D01*
X107889959Y-41874097D01*
X108101288Y-41847025D01*
X108101289Y-41847025D01*
X108106416Y-41846368D01*
X108111366Y-41844883D01*
X108315429Y-41783661D01*
X108315434Y-41783659D01*
X108320384Y-41782174D01*
X108520994Y-41683896D01*
X108702860Y-41554173D01*
X108811091Y-41446319D01*
X108873462Y-41412404D01*
X108944268Y-41417592D01*
X109001030Y-41460238D01*
X109018012Y-41491341D01*
X109062385Y-41609705D01*
X109149739Y-41726261D01*
X109266295Y-41813615D01*
X109402684Y-41864745D01*
X109464866Y-41871500D01*
X111261134Y-41871500D01*
X111323316Y-41864745D01*
X111459705Y-41813615D01*
X111576261Y-41726261D01*
X111663615Y-41609705D01*
X111714745Y-41473316D01*
X111721500Y-41411134D01*
X111721500Y-39614866D01*
X111714745Y-39552684D01*
X111663615Y-39416295D01*
X111576261Y-39299739D01*
X111459705Y-39212385D01*
X111323316Y-39161255D01*
X111261134Y-39154500D01*
X109464866Y-39154500D01*
X109402684Y-39161255D01*
X109266295Y-39212385D01*
X109149739Y-39299739D01*
X109062385Y-39416295D01*
X109059233Y-39424703D01*
X109017919Y-39534907D01*
X108975277Y-39591671D01*
X108908716Y-39616371D01*
X108839367Y-39601163D01*
X108806743Y-39575476D01*
X108756151Y-39519875D01*
X108756142Y-39519866D01*
X108752670Y-39516051D01*
X108748619Y-39512852D01*
X108748615Y-39512848D01*
X108581414Y-39380800D01*
X108581410Y-39380798D01*
X108577359Y-39377598D01*
X108381789Y-39269638D01*
X108376920Y-39267914D01*
X108376916Y-39267912D01*
X108176087Y-39196795D01*
X108176083Y-39196794D01*
X108171212Y-39195069D01*
X108166119Y-39194162D01*
X108166116Y-39194161D01*
X107956373Y-39156800D01*
X107956367Y-39156799D01*
X107951284Y-39155894D01*
X107877452Y-39154992D01*
X107733081Y-39153228D01*
X107733079Y-39153228D01*
X107727911Y-39153165D01*
X107507091Y-39186955D01*
X107294756Y-39256357D01*
X107096607Y-39359507D01*
X107092474Y-39362610D01*
X107092471Y-39362612D01*
X106922100Y-39490530D01*
X106917965Y-39493635D01*
X106878525Y-39534907D01*
X106824280Y-39591671D01*
X106763629Y-39655138D01*
X106656201Y-39812621D01*
X106601293Y-39857621D01*
X106530768Y-39865792D01*
X106467021Y-39834538D01*
X106446324Y-39810054D01*
X106365822Y-39685617D01*
X106365820Y-39685614D01*
X106363014Y-39681277D01*
X106212670Y-39516051D01*
X106208619Y-39512852D01*
X106208615Y-39512848D01*
X106041414Y-39380800D01*
X106041410Y-39380798D01*
X106037359Y-39377598D01*
X105841789Y-39269638D01*
X105836920Y-39267914D01*
X105836916Y-39267912D01*
X105636087Y-39196795D01*
X105636083Y-39196794D01*
X105631212Y-39195069D01*
X105626119Y-39194162D01*
X105626116Y-39194161D01*
X105416373Y-39156800D01*
X105416367Y-39156799D01*
X105411284Y-39155894D01*
X105337452Y-39154992D01*
X105193081Y-39153228D01*
X105193079Y-39153228D01*
X105187911Y-39153165D01*
X104967091Y-39186955D01*
X104754756Y-39256357D01*
X104556607Y-39359507D01*
X104552474Y-39362610D01*
X104552471Y-39362612D01*
X104382100Y-39490530D01*
X104377965Y-39493635D01*
X104338525Y-39534907D01*
X104284280Y-39591671D01*
X104223629Y-39655138D01*
X104116201Y-39812621D01*
X104061293Y-39857621D01*
X103990768Y-39865792D01*
X103927021Y-39834538D01*
X103906324Y-39810054D01*
X103825822Y-39685617D01*
X103825820Y-39685614D01*
X103823014Y-39681277D01*
X103672670Y-39516051D01*
X103668619Y-39512852D01*
X103668615Y-39512848D01*
X103501414Y-39380800D01*
X103501410Y-39380798D01*
X103497359Y-39377598D01*
X103301789Y-39269638D01*
X103296920Y-39267914D01*
X103296916Y-39267912D01*
X103096087Y-39196795D01*
X103096083Y-39196794D01*
X103091212Y-39195069D01*
X103086119Y-39194162D01*
X103086116Y-39194161D01*
X102876373Y-39156800D01*
X102876367Y-39156799D01*
X102871284Y-39155894D01*
X102797452Y-39154992D01*
X102653081Y-39153228D01*
X102653079Y-39153228D01*
X102647911Y-39153165D01*
X102427091Y-39186955D01*
X102214756Y-39256357D01*
X102016607Y-39359507D01*
X102012474Y-39362610D01*
X102012471Y-39362612D01*
X101842100Y-39490530D01*
X101837965Y-39493635D01*
X101798525Y-39534907D01*
X101744280Y-39591671D01*
X101683629Y-39655138D01*
X101576201Y-39812621D01*
X101521293Y-39857621D01*
X101450768Y-39865792D01*
X101387021Y-39834538D01*
X101366324Y-39810054D01*
X101285822Y-39685617D01*
X101285820Y-39685614D01*
X101283014Y-39681277D01*
X101132670Y-39516051D01*
X101128619Y-39512852D01*
X101128615Y-39512848D01*
X100961414Y-39380800D01*
X100961410Y-39380798D01*
X100957359Y-39377598D01*
X100761789Y-39269638D01*
X100756920Y-39267914D01*
X100756916Y-39267912D01*
X100556087Y-39196795D01*
X100556083Y-39196794D01*
X100551212Y-39195069D01*
X100546119Y-39194162D01*
X100546116Y-39194161D01*
X100336373Y-39156800D01*
X100336367Y-39156799D01*
X100331284Y-39155894D01*
X100257452Y-39154992D01*
X100113081Y-39153228D01*
X100113079Y-39153228D01*
X100107911Y-39153165D01*
X99887091Y-39186955D01*
X99674756Y-39256357D01*
X99476607Y-39359507D01*
X99472474Y-39362610D01*
X99472471Y-39362612D01*
X99302100Y-39490530D01*
X99297965Y-39493635D01*
X99258525Y-39534907D01*
X99204280Y-39591671D01*
X99143629Y-39655138D01*
X99036201Y-39812621D01*
X98981293Y-39857621D01*
X98910768Y-39865792D01*
X98847021Y-39834538D01*
X98826324Y-39810054D01*
X98745822Y-39685617D01*
X98745820Y-39685614D01*
X98743014Y-39681277D01*
X98592670Y-39516051D01*
X98588619Y-39512852D01*
X98588615Y-39512848D01*
X98421414Y-39380800D01*
X98421410Y-39380798D01*
X98417359Y-39377598D01*
X98221789Y-39269638D01*
X98216920Y-39267914D01*
X98216916Y-39267912D01*
X98016087Y-39196795D01*
X98016083Y-39196794D01*
X98011212Y-39195069D01*
X98006119Y-39194162D01*
X98006116Y-39194161D01*
X97796373Y-39156800D01*
X97796367Y-39156799D01*
X97791284Y-39155894D01*
X97717452Y-39154992D01*
X97573081Y-39153228D01*
X97573079Y-39153228D01*
X97567911Y-39153165D01*
X97347091Y-39186955D01*
X97134756Y-39256357D01*
X96936607Y-39359507D01*
X96932474Y-39362610D01*
X96932471Y-39362612D01*
X96762100Y-39490530D01*
X96757965Y-39493635D01*
X96718525Y-39534907D01*
X96664280Y-39591671D01*
X96603629Y-39655138D01*
X96496201Y-39812621D01*
X96441293Y-39857621D01*
X96370768Y-39865792D01*
X96307021Y-39834538D01*
X96286324Y-39810054D01*
X96205822Y-39685617D01*
X96205820Y-39685614D01*
X96203014Y-39681277D01*
X96052670Y-39516051D01*
X96048619Y-39512852D01*
X96048615Y-39512848D01*
X95881414Y-39380800D01*
X95881410Y-39380798D01*
X95877359Y-39377598D01*
X95681789Y-39269638D01*
X95676920Y-39267914D01*
X95676916Y-39267912D01*
X95476087Y-39196795D01*
X95476083Y-39196794D01*
X95471212Y-39195069D01*
X95466119Y-39194162D01*
X95466116Y-39194161D01*
X95256373Y-39156800D01*
X95256367Y-39156799D01*
X95251284Y-39155894D01*
X95177452Y-39154992D01*
X95033081Y-39153228D01*
X95033079Y-39153228D01*
X95027911Y-39153165D01*
X94807091Y-39186955D01*
X94594756Y-39256357D01*
X94396607Y-39359507D01*
X94392474Y-39362610D01*
X94392471Y-39362612D01*
X94222100Y-39490530D01*
X94217965Y-39493635D01*
X94178525Y-39534907D01*
X94124280Y-39591671D01*
X94063629Y-39655138D01*
X93956201Y-39812621D01*
X93901293Y-39857621D01*
X93830768Y-39865792D01*
X93767021Y-39834538D01*
X93746324Y-39810054D01*
X93665822Y-39685617D01*
X93665820Y-39685614D01*
X93663014Y-39681277D01*
X93512670Y-39516051D01*
X93508619Y-39512852D01*
X93508615Y-39512848D01*
X93341414Y-39380800D01*
X93341410Y-39380798D01*
X93337359Y-39377598D01*
X93141789Y-39269638D01*
X93136920Y-39267914D01*
X93136916Y-39267912D01*
X92936087Y-39196795D01*
X92936083Y-39196794D01*
X92931212Y-39195069D01*
X92926119Y-39194162D01*
X92926116Y-39194161D01*
X92716373Y-39156800D01*
X92716367Y-39156799D01*
X92711284Y-39155894D01*
X92637452Y-39154992D01*
X92493081Y-39153228D01*
X92493079Y-39153228D01*
X92487911Y-39153165D01*
X92267091Y-39186955D01*
X92054756Y-39256357D01*
X91856607Y-39359507D01*
X91852474Y-39362610D01*
X91852471Y-39362612D01*
X91682100Y-39490530D01*
X91677965Y-39493635D01*
X91638525Y-39534907D01*
X91584280Y-39591671D01*
X91523629Y-39655138D01*
X91416201Y-39812621D01*
X91361293Y-39857621D01*
X91290768Y-39865792D01*
X91227021Y-39834538D01*
X91206324Y-39810054D01*
X91125822Y-39685617D01*
X91125820Y-39685614D01*
X91123014Y-39681277D01*
X90972670Y-39516051D01*
X90968619Y-39512852D01*
X90968615Y-39512848D01*
X90801414Y-39380800D01*
X90801410Y-39380798D01*
X90797359Y-39377598D01*
X90601789Y-39269638D01*
X90596920Y-39267914D01*
X90596916Y-39267912D01*
X90396087Y-39196795D01*
X90396083Y-39196794D01*
X90391212Y-39195069D01*
X90386119Y-39194162D01*
X90386116Y-39194161D01*
X90176373Y-39156800D01*
X90176367Y-39156799D01*
X90171284Y-39155894D01*
X90097452Y-39154992D01*
X89953081Y-39153228D01*
X89953079Y-39153228D01*
X89947911Y-39153165D01*
X89727091Y-39186955D01*
X89514756Y-39256357D01*
X89316607Y-39359507D01*
X89312474Y-39362610D01*
X89312471Y-39362612D01*
X89142100Y-39490530D01*
X89137965Y-39493635D01*
X89098525Y-39534907D01*
X89044280Y-39591671D01*
X88983629Y-39655138D01*
X88876201Y-39812621D01*
X88821293Y-39857621D01*
X88750768Y-39865792D01*
X88687021Y-39834538D01*
X88666324Y-39810054D01*
X88585822Y-39685617D01*
X88585820Y-39685614D01*
X88583014Y-39681277D01*
X88432670Y-39516051D01*
X88428619Y-39512852D01*
X88428615Y-39512848D01*
X88261414Y-39380800D01*
X88261410Y-39380798D01*
X88257359Y-39377598D01*
X88061789Y-39269638D01*
X88056920Y-39267914D01*
X88056916Y-39267912D01*
X87856087Y-39196795D01*
X87856083Y-39196794D01*
X87851212Y-39195069D01*
X87846119Y-39194162D01*
X87846116Y-39194161D01*
X87636373Y-39156800D01*
X87636367Y-39156799D01*
X87631284Y-39155894D01*
X87557452Y-39154992D01*
X87413081Y-39153228D01*
X87413079Y-39153228D01*
X87407911Y-39153165D01*
X87187091Y-39186955D01*
X86974756Y-39256357D01*
X86776607Y-39359507D01*
X86772474Y-39362610D01*
X86772471Y-39362612D01*
X86602100Y-39490530D01*
X86597965Y-39493635D01*
X86558525Y-39534907D01*
X86504280Y-39591671D01*
X86443629Y-39655138D01*
X86336201Y-39812621D01*
X86281293Y-39857621D01*
X86210768Y-39865792D01*
X86147021Y-39834538D01*
X86126324Y-39810054D01*
X86045822Y-39685617D01*
X86045820Y-39685614D01*
X86043014Y-39681277D01*
X85892670Y-39516051D01*
X85888619Y-39512852D01*
X85888615Y-39512848D01*
X85721414Y-39380800D01*
X85721410Y-39380798D01*
X85717359Y-39377598D01*
X85521789Y-39269638D01*
X85516920Y-39267914D01*
X85516916Y-39267912D01*
X85316087Y-39196795D01*
X85316083Y-39196794D01*
X85311212Y-39195069D01*
X85306119Y-39194162D01*
X85306116Y-39194161D01*
X85096373Y-39156800D01*
X85096367Y-39156799D01*
X85091284Y-39155894D01*
X85017452Y-39154992D01*
X84873081Y-39153228D01*
X84873079Y-39153228D01*
X84867911Y-39153165D01*
X84647091Y-39186955D01*
X84434756Y-39256357D01*
X84236607Y-39359507D01*
X84232474Y-39362610D01*
X84232471Y-39362612D01*
X84062100Y-39490530D01*
X84057965Y-39493635D01*
X84018525Y-39534907D01*
X83964280Y-39591671D01*
X83903629Y-39655138D01*
X83796201Y-39812621D01*
X83741293Y-39857621D01*
X83670768Y-39865792D01*
X83607021Y-39834538D01*
X83586324Y-39810054D01*
X83505822Y-39685617D01*
X83505820Y-39685614D01*
X83503014Y-39681277D01*
X83352670Y-39516051D01*
X83348619Y-39512852D01*
X83348615Y-39512848D01*
X83181414Y-39380800D01*
X83181410Y-39380798D01*
X83177359Y-39377598D01*
X82981789Y-39269638D01*
X82976920Y-39267914D01*
X82976916Y-39267912D01*
X82776087Y-39196795D01*
X82776083Y-39196794D01*
X82771212Y-39195069D01*
X82766119Y-39194162D01*
X82766116Y-39194161D01*
X82556373Y-39156800D01*
X82556367Y-39156799D01*
X82551284Y-39155894D01*
X82477452Y-39154992D01*
X82333081Y-39153228D01*
X82333079Y-39153228D01*
X82327911Y-39153165D01*
X82107091Y-39186955D01*
X81894756Y-39256357D01*
X81696607Y-39359507D01*
X81692474Y-39362610D01*
X81692471Y-39362612D01*
X81522100Y-39490530D01*
X81517965Y-39493635D01*
X81478525Y-39534907D01*
X81424280Y-39591671D01*
X81363629Y-39655138D01*
X81256201Y-39812621D01*
X81201293Y-39857621D01*
X81130768Y-39865792D01*
X81067021Y-39834538D01*
X81046324Y-39810054D01*
X80965822Y-39685617D01*
X80965820Y-39685614D01*
X80963014Y-39681277D01*
X80812670Y-39516051D01*
X80808619Y-39512852D01*
X80808615Y-39512848D01*
X80641414Y-39380800D01*
X80641410Y-39380798D01*
X80637359Y-39377598D01*
X80441789Y-39269638D01*
X80436920Y-39267914D01*
X80436916Y-39267912D01*
X80236087Y-39196795D01*
X80236083Y-39196794D01*
X80231212Y-39195069D01*
X80226119Y-39194162D01*
X80226116Y-39194161D01*
X80016373Y-39156800D01*
X80016367Y-39156799D01*
X80011284Y-39155894D01*
X79937452Y-39154992D01*
X79793081Y-39153228D01*
X79793079Y-39153228D01*
X79787911Y-39153165D01*
X79567091Y-39186955D01*
X79354756Y-39256357D01*
X79156607Y-39359507D01*
X79152474Y-39362610D01*
X79152471Y-39362612D01*
X78982100Y-39490530D01*
X78977965Y-39493635D01*
X78938525Y-39534907D01*
X78884280Y-39591671D01*
X78823629Y-39655138D01*
X78716201Y-39812621D01*
X78661293Y-39857621D01*
X78590768Y-39865792D01*
X78527021Y-39834538D01*
X78506324Y-39810054D01*
X78425822Y-39685617D01*
X78425820Y-39685614D01*
X78423014Y-39681277D01*
X78272670Y-39516051D01*
X78268619Y-39512852D01*
X78268615Y-39512848D01*
X78101414Y-39380800D01*
X78101410Y-39380798D01*
X78097359Y-39377598D01*
X77901789Y-39269638D01*
X77896920Y-39267914D01*
X77896916Y-39267912D01*
X77696087Y-39196795D01*
X77696083Y-39196794D01*
X77691212Y-39195069D01*
X77686119Y-39194162D01*
X77686116Y-39194161D01*
X77476373Y-39156800D01*
X77476367Y-39156799D01*
X77471284Y-39155894D01*
X77397452Y-39154992D01*
X77253081Y-39153228D01*
X77253079Y-39153228D01*
X77247911Y-39153165D01*
X77027091Y-39186955D01*
X76814756Y-39256357D01*
X76616607Y-39359507D01*
X76612474Y-39362610D01*
X76612471Y-39362612D01*
X76442100Y-39490530D01*
X76437965Y-39493635D01*
X76398525Y-39534907D01*
X76344280Y-39591671D01*
X76283629Y-39655138D01*
X76176201Y-39812621D01*
X76121293Y-39857621D01*
X76050768Y-39865792D01*
X75987021Y-39834538D01*
X75966324Y-39810054D01*
X75885822Y-39685617D01*
X75885820Y-39685614D01*
X75883014Y-39681277D01*
X75732670Y-39516051D01*
X75728619Y-39512852D01*
X75728615Y-39512848D01*
X75561414Y-39380800D01*
X75561410Y-39380798D01*
X75557359Y-39377598D01*
X75361789Y-39269638D01*
X75356920Y-39267914D01*
X75356916Y-39267912D01*
X75156087Y-39196795D01*
X75156083Y-39196794D01*
X75151212Y-39195069D01*
X75146119Y-39194162D01*
X75146116Y-39194161D01*
X74936373Y-39156800D01*
X74936367Y-39156799D01*
X74931284Y-39155894D01*
X74857452Y-39154992D01*
X74713081Y-39153228D01*
X74713079Y-39153228D01*
X74707911Y-39153165D01*
X74487091Y-39186955D01*
X74274756Y-39256357D01*
X74076607Y-39359507D01*
X74072474Y-39362610D01*
X74072471Y-39362612D01*
X73902100Y-39490530D01*
X73897965Y-39493635D01*
X73858525Y-39534907D01*
X73804280Y-39591671D01*
X73743629Y-39655138D01*
X73636201Y-39812621D01*
X73581293Y-39857621D01*
X73510768Y-39865792D01*
X73447021Y-39834538D01*
X73426324Y-39810054D01*
X73345822Y-39685617D01*
X73345820Y-39685614D01*
X73343014Y-39681277D01*
X73192670Y-39516051D01*
X73188619Y-39512852D01*
X73188615Y-39512848D01*
X73021414Y-39380800D01*
X73021410Y-39380798D01*
X73017359Y-39377598D01*
X72821789Y-39269638D01*
X72816920Y-39267914D01*
X72816916Y-39267912D01*
X72616087Y-39196795D01*
X72616083Y-39196794D01*
X72611212Y-39195069D01*
X72606119Y-39194162D01*
X72606116Y-39194161D01*
X72396373Y-39156800D01*
X72396367Y-39156799D01*
X72391284Y-39155894D01*
X72317452Y-39154992D01*
X72173081Y-39153228D01*
X72173079Y-39153228D01*
X72167911Y-39153165D01*
X71947091Y-39186955D01*
X71734756Y-39256357D01*
X71536607Y-39359507D01*
X71532474Y-39362610D01*
X71532471Y-39362612D01*
X71362100Y-39490530D01*
X71357965Y-39493635D01*
X71318525Y-39534907D01*
X71264280Y-39591671D01*
X71203629Y-39655138D01*
X71077743Y-39839680D01*
X70983688Y-40042305D01*
X70923989Y-40257570D01*
X70900251Y-40479695D01*
X64023908Y-40479695D01*
X64023908Y-38749829D01*
X64043910Y-38681708D01*
X64097566Y-38635215D01*
X64149869Y-38623829D01*
X87213238Y-38616615D01*
X112903329Y-38608579D01*
X112971454Y-38628560D01*
G37*
%TD.AperFunction*%
%TA.AperFunction,Conductor*%
G36*
X110787886Y-59225815D02*
G01*
X110832975Y-59254736D01*
X110861736Y-59283447D01*
X110920697Y-59342305D01*
X110926927Y-59346145D01*
X110926928Y-59346146D01*
X111025616Y-59406978D01*
X111071262Y-59435115D01*
X111145535Y-59459750D01*
X111232611Y-59488632D01*
X111232613Y-59488632D01*
X111239139Y-59490797D01*
X111245975Y-59491497D01*
X111245978Y-59491498D01*
X111289031Y-59495909D01*
X111343600Y-59501500D01*
X111483500Y-59501500D01*
X111551621Y-59521502D01*
X111598114Y-59575158D01*
X111609500Y-59627500D01*
X111609500Y-59904241D01*
X111589498Y-59972362D01*
X111577136Y-59988551D01*
X111528960Y-60042056D01*
X111433473Y-60207444D01*
X111374458Y-60389072D01*
X111373768Y-60395633D01*
X111373768Y-60395635D01*
X111356176Y-60563020D01*
X111354496Y-60579000D01*
X111373112Y-60756116D01*
X111373993Y-60764501D01*
X111361221Y-60834340D01*
X111312719Y-60886187D01*
X111261687Y-60902999D01*
X111244692Y-60904762D01*
X111244688Y-60904763D01*
X111237834Y-60905474D01*
X111231298Y-60907655D01*
X111231296Y-60907655D01*
X111104943Y-60949810D01*
X111070054Y-60961450D01*
X110919652Y-61054522D01*
X110914479Y-61059704D01*
X110833216Y-61141109D01*
X110770934Y-61175188D01*
X110700114Y-61170185D01*
X110655025Y-61141264D01*
X110572483Y-61058866D01*
X110567303Y-61053695D01*
X110546230Y-61040705D01*
X110462384Y-60989022D01*
X110414891Y-60936250D01*
X110402500Y-60881762D01*
X110402500Y-59514311D01*
X110422502Y-59446190D01*
X110462196Y-59407167D01*
X110568348Y-59341478D01*
X110654784Y-59254891D01*
X110717066Y-59220812D01*
X110787886Y-59225815D01*
G37*
%TD.AperFunction*%
%TA.AperFunction,Conductor*%
G36*
X92384025Y-55351808D02*
G01*
X92417525Y-55375785D01*
X93879935Y-56838195D01*
X93913961Y-56900507D01*
X93916840Y-56927290D01*
X93916840Y-57451581D01*
X93896838Y-57519702D01*
X93884476Y-57535891D01*
X93840851Y-57584342D01*
X93836300Y-57589396D01*
X93801097Y-57650369D01*
X93750558Y-57737906D01*
X93740813Y-57754784D01*
X93681798Y-57936412D01*
X93681108Y-57942973D01*
X93681108Y-57942975D01*
X93666171Y-58085091D01*
X93661836Y-58126340D01*
X93662526Y-58132905D01*
X93670913Y-58212699D01*
X93681798Y-58316268D01*
X93740813Y-58497896D01*
X93836300Y-58663284D01*
X93840718Y-58668191D01*
X93840719Y-58668192D01*
X93903502Y-58737920D01*
X93964087Y-58805206D01*
X93969431Y-58809089D01*
X93974338Y-58813507D01*
X93973472Y-58814469D01*
X94012537Y-58865134D01*
X94020431Y-58924014D01*
X94012403Y-59000394D01*
X94012377Y-59000642D01*
X93985364Y-59066299D01*
X93976162Y-59076566D01*
X92280133Y-60772595D01*
X92217821Y-60806621D01*
X92191038Y-60809500D01*
X90626327Y-60809500D01*
X90558206Y-60789498D01*
X90511713Y-60735842D01*
X90501609Y-60665568D01*
X90522335Y-60614508D01*
X90521790Y-60614194D01*
X90524054Y-60610273D01*
X90524054Y-60610272D01*
X90553878Y-60558616D01*
X90613973Y-60454529D01*
X90613974Y-60454528D01*
X90617277Y-60448806D01*
X90676292Y-60267178D01*
X90696254Y-60077250D01*
X90687248Y-59991564D01*
X90676982Y-59893885D01*
X90676982Y-59893883D01*
X90676292Y-59887322D01*
X90617277Y-59705694D01*
X90612007Y-59696565D01*
X90566784Y-59618238D01*
X90521790Y-59540306D01*
X90479911Y-59493794D01*
X90398425Y-59403295D01*
X90398424Y-59403294D01*
X90394003Y-59398384D01*
X90292626Y-59324729D01*
X90244844Y-59290013D01*
X90244843Y-59290012D01*
X90239502Y-59286132D01*
X90233474Y-59283448D01*
X90233472Y-59283447D01*
X90071069Y-59211141D01*
X90071068Y-59211141D01*
X90065038Y-59208456D01*
X89967192Y-59187658D01*
X89884694Y-59170122D01*
X89884689Y-59170122D01*
X89878237Y-59168750D01*
X89857700Y-59168750D01*
X89789579Y-59148748D01*
X89768605Y-59131845D01*
X89540475Y-58903715D01*
X89506449Y-58841403D01*
X89503570Y-58814620D01*
X89503570Y-58226259D01*
X89523572Y-58158138D01*
X89535934Y-58141949D01*
X89579691Y-58093352D01*
X89579692Y-58093351D01*
X89584110Y-58088444D01*
X89653549Y-57968172D01*
X89676293Y-57928779D01*
X89676294Y-57928778D01*
X89679597Y-57923056D01*
X89738612Y-57741428D01*
X89744247Y-57687819D01*
X89757884Y-57558065D01*
X89758574Y-57551500D01*
X89756933Y-57535891D01*
X89739302Y-57368135D01*
X89739302Y-57368133D01*
X89738612Y-57361572D01*
X89679597Y-57179944D01*
X89666188Y-57156718D01*
X89618399Y-57073946D01*
X89584110Y-57014556D01*
X89505536Y-56927290D01*
X89460745Y-56877545D01*
X89460744Y-56877544D01*
X89456323Y-56872634D01*
X89329395Y-56780415D01*
X89307164Y-56764263D01*
X89307163Y-56764262D01*
X89301822Y-56760382D01*
X89295794Y-56757698D01*
X89295792Y-56757697D01*
X89133389Y-56685391D01*
X89133388Y-56685391D01*
X89127358Y-56682706D01*
X89031417Y-56662313D01*
X88947014Y-56644372D01*
X88947009Y-56644372D01*
X88940557Y-56643000D01*
X88749583Y-56643000D01*
X88743130Y-56644372D01*
X88743126Y-56644372D01*
X88700476Y-56653438D01*
X88670776Y-56659751D01*
X88599986Y-56654349D01*
X88543354Y-56611532D01*
X88518860Y-56544895D01*
X88534281Y-56475593D01*
X88555485Y-56447409D01*
X88851254Y-56151640D01*
X88913566Y-56117614D01*
X88940349Y-56114735D01*
X90632105Y-56114735D01*
X90643961Y-56115294D01*
X90643964Y-56115294D01*
X90651698Y-56117023D01*
X90722530Y-56114797D01*
X90726488Y-56114735D01*
X90755593Y-56114735D01*
X90759993Y-56114179D01*
X90771825Y-56113247D01*
X90817992Y-56111797D01*
X90838582Y-56105815D01*
X90857943Y-56101805D01*
X90864931Y-56100923D01*
X90871365Y-56100110D01*
X90871366Y-56100110D01*
X90879225Y-56099117D01*
X90886590Y-56096201D01*
X90886594Y-56096200D01*
X90922182Y-56082109D01*
X90933392Y-56078270D01*
X90977761Y-56065380D01*
X90996226Y-56054460D01*
X91013966Y-56045769D01*
X91033917Y-56037870D01*
X91071290Y-56010717D01*
X91081196Y-56004210D01*
X91108853Y-55987853D01*
X91177665Y-55970394D01*
X91199187Y-55973061D01*
X91263896Y-55986816D01*
X91263909Y-55986817D01*
X91270362Y-55988189D01*
X91461336Y-55988189D01*
X91467788Y-55986817D01*
X91467793Y-55986817D01*
X91556106Y-55968045D01*
X91648137Y-55948483D01*
X91731486Y-55911374D01*
X91816571Y-55873492D01*
X91816573Y-55873491D01*
X91822601Y-55870807D01*
X91977102Y-55758555D01*
X91999662Y-55733500D01*
X92100470Y-55621541D01*
X92100471Y-55621540D01*
X92104889Y-55616633D01*
X92200376Y-55451245D01*
X92208597Y-55425942D01*
X92248671Y-55367338D01*
X92314068Y-55339701D01*
X92384025Y-55351808D01*
G37*
%TD.AperFunction*%
%TA.AperFunction,Conductor*%
G36*
X110214268Y-51450592D02*
G01*
X110271030Y-51493238D01*
X110288012Y-51524341D01*
X110311567Y-51587173D01*
X110332385Y-51642705D01*
X110419739Y-51759261D01*
X110536295Y-51846615D01*
X110672684Y-51897745D01*
X110734866Y-51904500D01*
X112531134Y-51904500D01*
X112593316Y-51897745D01*
X112729705Y-51846615D01*
X112820864Y-51778295D01*
X112887370Y-51753447D01*
X112956753Y-51768500D01*
X113006983Y-51818674D01*
X113022429Y-51879187D01*
X113021250Y-54113054D01*
X113019489Y-57451581D01*
X113019487Y-57454509D01*
X112999449Y-57522620D01*
X112945769Y-57569084D01*
X112875490Y-57579151D01*
X112810924Y-57549624D01*
X112787094Y-57518099D01*
X112785550Y-57519054D01*
X112715886Y-57406478D01*
X112692478Y-57368652D01*
X112567303Y-57243695D01*
X112536415Y-57224655D01*
X112422968Y-57154725D01*
X112422966Y-57154724D01*
X112416738Y-57150885D01*
X112256254Y-57097655D01*
X112255389Y-57097368D01*
X112255387Y-57097368D01*
X112248861Y-57095203D01*
X112242025Y-57094503D01*
X112242022Y-57094502D01*
X112198969Y-57090091D01*
X112144400Y-57084500D01*
X111343600Y-57084500D01*
X111340354Y-57084837D01*
X111340350Y-57084837D01*
X111244692Y-57094762D01*
X111244688Y-57094763D01*
X111237834Y-57095474D01*
X111231298Y-57097655D01*
X111231296Y-57097655D01*
X111124834Y-57133174D01*
X111070054Y-57151450D01*
X110919652Y-57244522D01*
X110914479Y-57249704D01*
X110833216Y-57331109D01*
X110770934Y-57365188D01*
X110700114Y-57360185D01*
X110655025Y-57331264D01*
X110572483Y-57248866D01*
X110567303Y-57243695D01*
X110536415Y-57224655D01*
X110422968Y-57154725D01*
X110422966Y-57154724D01*
X110416738Y-57150885D01*
X110256254Y-57097655D01*
X110255389Y-57097368D01*
X110255387Y-57097368D01*
X110248861Y-57095203D01*
X110242025Y-57094503D01*
X110242022Y-57094502D01*
X110198969Y-57090091D01*
X110144400Y-57084500D01*
X109877500Y-57084500D01*
X109809379Y-57064498D01*
X109762886Y-57010842D01*
X109751500Y-56958500D01*
X109751500Y-51809961D01*
X109771502Y-51741840D01*
X109804332Y-51707382D01*
X109809870Y-51703432D01*
X109972860Y-51587173D01*
X110081091Y-51479319D01*
X110143462Y-51445404D01*
X110214268Y-51450592D01*
G37*
%TD.AperFunction*%
%TA.AperFunction,Conductor*%
G36*
X84285897Y-54588674D02*
G01*
X84323710Y-54648763D01*
X84327809Y-54670104D01*
X84335076Y-54740133D01*
X84337969Y-54753532D01*
X84350278Y-54790427D01*
X84352862Y-54861376D01*
X84316678Y-54922460D01*
X84253213Y-54954284D01*
X84230867Y-54956302D01*
X84113299Y-54956404D01*
X84027253Y-54976823D01*
X83948328Y-54995553D01*
X83948327Y-54995553D01*
X83941207Y-54997243D01*
X83934668Y-55000525D01*
X83934667Y-55000525D01*
X83903800Y-55016016D01*
X83783127Y-55076577D01*
X83777794Y-55080919D01*
X83777792Y-55080920D01*
X83704188Y-55140843D01*
X83704182Y-55140849D01*
X83701694Y-55142874D01*
X83153120Y-55691448D01*
X83151066Y-55693978D01*
X83151062Y-55693982D01*
X83090438Y-55768642D01*
X83090436Y-55768646D01*
X83086092Y-55773995D01*
X83083014Y-55780156D01*
X83083011Y-55780160D01*
X83010304Y-55925672D01*
X83007035Y-55932215D01*
X82994178Y-55986816D01*
X82975679Y-56065380D01*
X82966496Y-56104377D01*
X82966502Y-56111693D01*
X82966502Y-56111696D01*
X82966540Y-56154805D01*
X82966650Y-56281247D01*
X82967881Y-56286433D01*
X82956099Y-56355615D01*
X82908234Y-56408050D01*
X82839618Y-56426283D01*
X82828397Y-56425490D01*
X82815547Y-56424003D01*
X82653429Y-56424144D01*
X82638993Y-56425840D01*
X82537388Y-56449952D01*
X82466489Y-56446220D01*
X82408864Y-56404750D01*
X82382806Y-56338708D01*
X82399175Y-56264357D01*
X82455223Y-56167279D01*
X82455224Y-56167278D01*
X82458527Y-56161556D01*
X82494964Y-56049416D01*
X82515502Y-55986207D01*
X82515502Y-55986205D01*
X82517542Y-55979928D01*
X82522450Y-55933230D01*
X82549463Y-55867573D01*
X82558665Y-55857305D01*
X83749565Y-54666405D01*
X83811877Y-54632379D01*
X83838660Y-54629500D01*
X83915487Y-54629500D01*
X83921939Y-54628128D01*
X83921944Y-54628128D01*
X84008888Y-54609647D01*
X84102288Y-54589794D01*
X84108321Y-54587108D01*
X84108327Y-54587106D01*
X84151233Y-54568003D01*
X84221600Y-54558568D01*
X84285897Y-54588674D01*
G37*
%TD.AperFunction*%
%TA.AperFunction,Conductor*%
G36*
X79981512Y-50842379D02*
G01*
X80003520Y-50867236D01*
X80010772Y-50878007D01*
X80013622Y-50882240D01*
X80017445Y-50886456D01*
X80038638Y-50907649D01*
X80048628Y-50918910D01*
X80068917Y-50944739D01*
X80073447Y-50948670D01*
X80073448Y-50948671D01*
X80117064Y-50986519D01*
X80123578Y-50992589D01*
X80387280Y-51256291D01*
X80394444Y-51264776D01*
X80394657Y-51264592D01*
X80398572Y-51269128D01*
X80402043Y-51274021D01*
X80406374Y-51278167D01*
X80470553Y-51339605D01*
X80472517Y-51341528D01*
X80500707Y-51369718D01*
X80503019Y-51371627D01*
X80503022Y-51371630D01*
X80506624Y-51374604D01*
X80513521Y-51380739D01*
X80553946Y-51419437D01*
X80553950Y-51419440D01*
X80558285Y-51423590D01*
X80563324Y-51426843D01*
X80563327Y-51426846D01*
X80587200Y-51442260D01*
X80599083Y-51450958D01*
X80625625Y-51472876D01*
X80680019Y-51502594D01*
X80687939Y-51507307D01*
X80734946Y-51537659D01*
X80734950Y-51537661D01*
X80739991Y-51540916D01*
X80771920Y-51553784D01*
X80785222Y-51560072D01*
X80810171Y-51573703D01*
X80815435Y-51576579D01*
X80821140Y-51578405D01*
X80821142Y-51578406D01*
X80837147Y-51583529D01*
X80874455Y-51595471D01*
X80883135Y-51598605D01*
X80940604Y-51621766D01*
X80946490Y-51622916D01*
X80946492Y-51622916D01*
X80974385Y-51628363D01*
X80988648Y-51632025D01*
X80996820Y-51634641D01*
X81015727Y-51640693D01*
X81015729Y-51640693D01*
X81021432Y-51642519D01*
X81027381Y-51643234D01*
X81027387Y-51643235D01*
X81082955Y-51649911D01*
X81092075Y-51651347D01*
X81132967Y-51659332D01*
X81152887Y-51663222D01*
X81158571Y-51663500D01*
X81188545Y-51663500D01*
X81203573Y-51664399D01*
X81230233Y-51667602D01*
X81230237Y-51667602D01*
X81236180Y-51668316D01*
X81242156Y-51667893D01*
X81242159Y-51667893D01*
X81299751Y-51663815D01*
X81308650Y-51663500D01*
X83204403Y-51663500D01*
X83272524Y-51683502D01*
X83319017Y-51737158D01*
X83329121Y-51807432D01*
X83324238Y-51828430D01*
X83307458Y-51880072D01*
X83305601Y-51897745D01*
X83294245Y-52005786D01*
X83267232Y-52071443D01*
X83258030Y-52081711D01*
X80409145Y-54930595D01*
X80346833Y-54964621D01*
X80320050Y-54967500D01*
X78023224Y-54967500D01*
X77955103Y-54947498D01*
X77949163Y-54943436D01*
X77805094Y-54838763D01*
X77805093Y-54838762D01*
X77799752Y-54834882D01*
X77793724Y-54832198D01*
X77793722Y-54832197D01*
X77631319Y-54759891D01*
X77631318Y-54759891D01*
X77625288Y-54757206D01*
X77531887Y-54737353D01*
X77444944Y-54718872D01*
X77444939Y-54718872D01*
X77438487Y-54717500D01*
X77247513Y-54717500D01*
X77241060Y-54718872D01*
X77241047Y-54718873D01*
X77126197Y-54743286D01*
X77055407Y-54737885D01*
X76998774Y-54695068D01*
X76974280Y-54628431D01*
X76974000Y-54620040D01*
X76974000Y-54218500D01*
X76994002Y-54150379D01*
X77047658Y-54103886D01*
X77100000Y-54092500D01*
X78548603Y-54092500D01*
X78566683Y-54093804D01*
X78577937Y-54095436D01*
X78577940Y-54095436D01*
X78583877Y-54096297D01*
X78662991Y-54092635D01*
X78668816Y-54092500D01*
X78693541Y-54092500D01*
X78696516Y-54092216D01*
X78696520Y-54092216D01*
X78705059Y-54091401D01*
X78716537Y-54090306D01*
X78722661Y-54089873D01*
X78799938Y-54086296D01*
X78805768Y-54084891D01*
X78818378Y-54081852D01*
X78835922Y-54078915D01*
X78854815Y-54077113D01*
X78860571Y-54075424D01*
X78860573Y-54075424D01*
X78929061Y-54055332D01*
X78935008Y-54053744D01*
X79004381Y-54037025D01*
X79004383Y-54037024D01*
X79010210Y-54035620D01*
X79015669Y-54033138D01*
X79015672Y-54033137D01*
X79027473Y-54027771D01*
X79044147Y-54021569D01*
X79062360Y-54016226D01*
X79068047Y-54013297D01*
X79131135Y-53980805D01*
X79136675Y-53978121D01*
X79201643Y-53948581D01*
X79201644Y-53948580D01*
X79207106Y-53946097D01*
X79222584Y-53935118D01*
X79237782Y-53925878D01*
X79249320Y-53919936D01*
X79249327Y-53919932D01*
X79254648Y-53917191D01*
X79315494Y-53869397D01*
X79320422Y-53865717D01*
X79378628Y-53824428D01*
X79378629Y-53824428D01*
X79383521Y-53820957D01*
X79396640Y-53807252D01*
X79409822Y-53795300D01*
X79420021Y-53787289D01*
X79420022Y-53787288D01*
X79424739Y-53783583D01*
X79425298Y-53782939D01*
X79486882Y-53751245D01*
X79557552Y-53758042D01*
X79588735Y-53776103D01*
X79605539Y-53789374D01*
X79741063Y-53872912D01*
X79754241Y-53879056D01*
X79905766Y-53929315D01*
X79919132Y-53932181D01*
X80011770Y-53941672D01*
X80018185Y-53942000D01*
X80092385Y-53942000D01*
X80107624Y-53937525D01*
X80108829Y-53936135D01*
X80110500Y-53928452D01*
X80110500Y-53923885D01*
X80618500Y-53923885D01*
X80622975Y-53939124D01*
X80624365Y-53940329D01*
X80632048Y-53942000D01*
X80710766Y-53942000D01*
X80717282Y-53941663D01*
X80811132Y-53931925D01*
X80824528Y-53929032D01*
X80975953Y-53878512D01*
X80989115Y-53872347D01*
X81124492Y-53788574D01*
X81135890Y-53779540D01*
X81248363Y-53666871D01*
X81257375Y-53655460D01*
X81340912Y-53519937D01*
X81347056Y-53506759D01*
X81397315Y-53355234D01*
X81400181Y-53341868D01*
X81409672Y-53249230D01*
X81410000Y-53242815D01*
X81410000Y-53231115D01*
X81405525Y-53215876D01*
X81404135Y-53214671D01*
X81396452Y-53213000D01*
X80636615Y-53213000D01*
X80621376Y-53217475D01*
X80620171Y-53218865D01*
X80618500Y-53226548D01*
X80618500Y-53923885D01*
X80110500Y-53923885D01*
X80110500Y-52686885D01*
X80618500Y-52686885D01*
X80622975Y-52702124D01*
X80624365Y-52703329D01*
X80632048Y-52705000D01*
X81391885Y-52705000D01*
X81407124Y-52700525D01*
X81408329Y-52699135D01*
X81410000Y-52691452D01*
X81410000Y-52675234D01*
X81409663Y-52668718D01*
X81399925Y-52574868D01*
X81397032Y-52561472D01*
X81346512Y-52410047D01*
X81340347Y-52396885D01*
X81256574Y-52261508D01*
X81247540Y-52250110D01*
X81134871Y-52137637D01*
X81123460Y-52128625D01*
X80987937Y-52045088D01*
X80974759Y-52038944D01*
X80823234Y-51988685D01*
X80809868Y-51985819D01*
X80717230Y-51976328D01*
X80710815Y-51976000D01*
X80636615Y-51976000D01*
X80621376Y-51980475D01*
X80620171Y-51981865D01*
X80618500Y-51989548D01*
X80618500Y-52686885D01*
X80110500Y-52686885D01*
X80110500Y-51994115D01*
X80106025Y-51978876D01*
X80104635Y-51977671D01*
X80096952Y-51976000D01*
X80018234Y-51976000D01*
X80011718Y-51976337D01*
X79912004Y-51986684D01*
X79842183Y-51973820D01*
X79790401Y-51925249D01*
X79773000Y-51861357D01*
X79773000Y-50937603D01*
X79793002Y-50869482D01*
X79846658Y-50822989D01*
X79916932Y-50812885D01*
X79981512Y-50842379D01*
G37*
%TD.AperFunction*%
%TA.AperFunction,Conductor*%
G36*
X69993957Y-48737592D02*
G01*
X70160783Y-48804656D01*
X70380767Y-48850213D01*
X70385378Y-48850479D01*
X70385379Y-48850479D01*
X70435952Y-48853395D01*
X70435956Y-48853395D01*
X70437775Y-48853500D01*
X71016054Y-48853500D01*
X71084175Y-48873502D01*
X71130668Y-48927158D01*
X71140772Y-48997432D01*
X71111219Y-49062080D01*
X71049002Y-49133779D01*
X70940693Y-49320999D01*
X70926473Y-49361950D01*
X70912607Y-49401879D01*
X70871365Y-49459669D01*
X70805427Y-49485988D01*
X70791936Y-49486535D01*
X70688655Y-49485183D01*
X70682958Y-49486162D01*
X70682957Y-49486162D01*
X70495831Y-49518316D01*
X70487870Y-49519684D01*
X70296734Y-49590198D01*
X70291773Y-49593150D01*
X70291772Y-49593150D01*
X70266012Y-49608476D01*
X70121649Y-49694363D01*
X69968478Y-49828690D01*
X69964911Y-49833215D01*
X69964906Y-49833220D01*
X69927854Y-49880221D01*
X69842351Y-49988681D01*
X69839662Y-49993792D01*
X69839660Y-49993795D01*
X69805337Y-50059033D01*
X69747492Y-50168978D01*
X69687078Y-50363543D01*
X69663132Y-50565859D01*
X69676457Y-50769151D01*
X69726605Y-50966610D01*
X69811898Y-51151624D01*
X69928964Y-51317268D01*
X69929479Y-51317997D01*
X69929336Y-51318098D01*
X69957346Y-51380613D01*
X69946738Y-51450813D01*
X69931453Y-51475655D01*
X69842351Y-51588681D01*
X69839662Y-51593792D01*
X69839660Y-51593795D01*
X69802987Y-51663500D01*
X69747492Y-51768978D01*
X69687078Y-51963543D01*
X69663132Y-52165859D01*
X69676457Y-52369151D01*
X69726605Y-52566610D01*
X69811898Y-52751624D01*
X69929479Y-52917997D01*
X69933613Y-52922024D01*
X70053725Y-53039032D01*
X70075410Y-53060157D01*
X70080206Y-53063362D01*
X70080209Y-53063364D01*
X70113256Y-53085445D01*
X70244803Y-53173342D01*
X70250106Y-53175620D01*
X70250109Y-53175622D01*
X70406505Y-53242815D01*
X70431987Y-53253763D01*
X70504817Y-53270243D01*
X70625055Y-53297450D01*
X70625060Y-53297451D01*
X70630692Y-53298725D01*
X70636463Y-53298952D01*
X70636465Y-53298952D01*
X70799739Y-53305367D01*
X70823599Y-53306304D01*
X70890882Y-53328965D01*
X70933078Y-53379456D01*
X71009916Y-53546130D01*
X71015664Y-53556086D01*
X71021788Y-53564751D01*
X71032377Y-53573140D01*
X71045678Y-53566112D01*
X71886905Y-52724885D01*
X71949217Y-52690859D01*
X72020032Y-52695924D01*
X72065095Y-52724885D01*
X72246115Y-52905905D01*
X72280141Y-52968217D01*
X72275076Y-53039032D01*
X72246115Y-53084095D01*
X71430615Y-53899595D01*
X71368303Y-53933621D01*
X71341520Y-53936500D01*
X70469001Y-53936500D01*
X70466214Y-53936749D01*
X70466208Y-53936749D01*
X70400315Y-53942630D01*
X70302238Y-53951383D01*
X70296824Y-53952864D01*
X70296819Y-53952865D01*
X70204501Y-53978121D01*
X70085549Y-54010663D01*
X70080491Y-54013075D01*
X70080487Y-54013077D01*
X70004700Y-54049226D01*
X69950456Y-54061500D01*
X67535500Y-54061500D01*
X67467379Y-54041498D01*
X67420886Y-53987842D01*
X67409500Y-53935500D01*
X67409500Y-48854500D01*
X67429502Y-48786379D01*
X67483158Y-48739886D01*
X67535500Y-48728500D01*
X69946963Y-48728500D01*
X69993957Y-48737592D01*
G37*
%TD.AperFunction*%
%TA.AperFunction,Conductor*%
G36*
X96957958Y-51579502D02*
G01*
X96964697Y-51584312D01*
X96968697Y-51588305D01*
X96973240Y-51591105D01*
X97013827Y-51648362D01*
X97017052Y-51719285D01*
X96981421Y-51780693D01*
X96972932Y-51788062D01*
X96962793Y-51796098D01*
X96848261Y-51910829D01*
X96839249Y-51922240D01*
X96754184Y-52060243D01*
X96748037Y-52073424D01*
X96696862Y-52227710D01*
X96693995Y-52241086D01*
X96684328Y-52335438D01*
X96684000Y-52341855D01*
X96684000Y-52454385D01*
X96688475Y-52469624D01*
X96689865Y-52470829D01*
X96697548Y-52472500D01*
X99131884Y-52472500D01*
X99147123Y-52468025D01*
X99148328Y-52466635D01*
X99149999Y-52458952D01*
X99149999Y-52341905D01*
X99149662Y-52335386D01*
X99139743Y-52239794D01*
X99136851Y-52226400D01*
X99085412Y-52072216D01*
X99079239Y-52059038D01*
X98993937Y-51921193D01*
X98984901Y-51909792D01*
X98950222Y-51875173D01*
X98916143Y-51812890D01*
X98921146Y-51742070D01*
X98963644Y-51685197D01*
X99030142Y-51660329D01*
X99039240Y-51660000D01*
X99203574Y-51660000D01*
X99271695Y-51680002D01*
X99292669Y-51696904D01*
X99919595Y-52323829D01*
X99953620Y-52386142D01*
X99956500Y-52412925D01*
X99956500Y-53599372D01*
X99936498Y-53667493D01*
X99882842Y-53713986D01*
X99817786Y-53724608D01*
X99812464Y-53723477D01*
X99621490Y-53723477D01*
X99615038Y-53724849D01*
X99615033Y-53724849D01*
X99542189Y-53740333D01*
X99434689Y-53763183D01*
X99428659Y-53765868D01*
X99428658Y-53765868D01*
X99266255Y-53838174D01*
X99266253Y-53838175D01*
X99260225Y-53840859D01*
X99254884Y-53844739D01*
X99254883Y-53844740D01*
X99110814Y-53949413D01*
X99043946Y-53973271D01*
X99036753Y-53973477D01*
X98805888Y-53973477D01*
X98737767Y-53953475D01*
X98691274Y-53899819D01*
X98681170Y-53829545D01*
X98710664Y-53764965D01*
X98739585Y-53740333D01*
X98859807Y-53665937D01*
X98871208Y-53656901D01*
X98985739Y-53542171D01*
X98994751Y-53530760D01*
X99079816Y-53392757D01*
X99085963Y-53379576D01*
X99137138Y-53225290D01*
X99140005Y-53211914D01*
X99149672Y-53117562D01*
X99150000Y-53111146D01*
X99150000Y-52998615D01*
X99145525Y-52983376D01*
X99144135Y-52982171D01*
X99136452Y-52980500D01*
X96702116Y-52980500D01*
X96686877Y-52984975D01*
X96685672Y-52986365D01*
X96684001Y-52994048D01*
X96684001Y-53085445D01*
X96663999Y-53153566D01*
X96610343Y-53200059D01*
X96540069Y-53210163D01*
X96475489Y-53180669D01*
X96468906Y-53174540D01*
X96292982Y-52998615D01*
X95345762Y-52051395D01*
X95337772Y-52042615D01*
X95337770Y-52042613D01*
X95333523Y-52035920D01*
X95312067Y-52015771D01*
X95281850Y-51987396D01*
X95279008Y-51984641D01*
X95258440Y-51964073D01*
X95254933Y-51961353D01*
X95245911Y-51953647D01*
X95218020Y-51927456D01*
X95212240Y-51922028D01*
X95205288Y-51918206D01*
X95193449Y-51911697D01*
X95176925Y-51900843D01*
X95166242Y-51892557D01*
X95166241Y-51892556D01*
X95159975Y-51887696D01*
X95117571Y-51869346D01*
X95106926Y-51864131D01*
X95066444Y-51841876D01*
X95058770Y-51839906D01*
X95058763Y-51839903D01*
X95045681Y-51836545D01*
X95026973Y-51830140D01*
X95007284Y-51821620D01*
X94999458Y-51820381D01*
X94999456Y-51820380D01*
X94974948Y-51816499D01*
X94961648Y-51814392D01*
X94950050Y-51811991D01*
X94932711Y-51807539D01*
X94871709Y-51771224D01*
X94840022Y-51707691D01*
X94847715Y-51637112D01*
X94892343Y-51581896D01*
X94964053Y-51559500D01*
X96889837Y-51559500D01*
X96957958Y-51579502D01*
G37*
%TD.AperFunction*%
%TA.AperFunction,Conductor*%
G36*
X91980041Y-51579502D02*
G01*
X92026534Y-51633158D01*
X92036638Y-51703432D01*
X92021040Y-51748498D01*
X91997057Y-51790037D01*
X91976583Y-51825500D01*
X91969398Y-51837944D01*
X91910383Y-52019572D01*
X91909693Y-52026133D01*
X91909693Y-52026135D01*
X91892715Y-52187671D01*
X91865702Y-52253327D01*
X91807480Y-52293957D01*
X91767405Y-52300500D01*
X91206520Y-52300500D01*
X91138399Y-52280498D01*
X91091906Y-52226842D01*
X91081210Y-52187671D01*
X91064232Y-52026135D01*
X91064232Y-52026133D01*
X91063542Y-52019572D01*
X91004527Y-51837944D01*
X90997343Y-51825500D01*
X90976868Y-51790037D01*
X90952886Y-51748499D01*
X90936148Y-51679505D01*
X90959368Y-51612413D01*
X91015175Y-51568526D01*
X91062005Y-51559500D01*
X91911920Y-51559500D01*
X91980041Y-51579502D01*
G37*
%TD.AperFunction*%
%TA.AperFunction,Conductor*%
G36*
X112985400Y-48697881D02*
G01*
X113020634Y-48759517D01*
X113024060Y-48788764D01*
X113023990Y-48922500D01*
X113023841Y-49205365D01*
X113023836Y-49213999D01*
X113003798Y-49282110D01*
X112950118Y-49328574D01*
X112879839Y-49338641D01*
X112822271Y-49314759D01*
X112736892Y-49250771D01*
X112736890Y-49250770D01*
X112729705Y-49245385D01*
X112682048Y-49227519D01*
X112610687Y-49200767D01*
X112553923Y-49158125D01*
X112529223Y-49091564D01*
X112544430Y-49022215D01*
X112565977Y-48993535D01*
X112667052Y-48892812D01*
X112673723Y-48884972D01*
X112795737Y-48715172D01*
X112851732Y-48671524D01*
X112922435Y-48665078D01*
X112985400Y-48697881D01*
G37*
%TD.AperFunction*%
%TD*%
M02*
